<svg width="395" height="187" viewBox="0 0 395 187" fill="none" xmlns="http://www.w3.org/2000/svg">
<mask id="path-1-outside-1_131_218" maskUnits="userSpaceOnUse" x="0" y="0" width="395" height="187" fill="black">
<rect fill="white" width="395" height="187"/>
<path d="M197.408 185.31C172.666 183.883 147.939 182.047 123.175 181.122C84.5427 179.687 45.8891 178.872 7.2427 177.779C5.02851 177.713 2.20979 178.325 2.01313 174.88C1.80919 171.442 4.00153 170.343 7.12617 169.804C48.1543 162.702 89.1969 155.652 130.167 148.186C137.319 146.882 144.18 143.867 151.078 141.376C152.141 140.99 153.285 139.169 153.35 137.953C153.882 128.593 154.217 119.22 154.443 109.853C154.472 108.578 153.758 107.143 153.015 106.029C151.588 103.873 149.81 101.943 148.332 99.8162C143.641 93.0862 143.547 88.6214 148.39 82.0954C154.144 74.3384 161.661 68.9413 171.071 66.4212C176.403 64.9937 180.998 65.8531 184.56 70.5656C185.31 71.5561 187.262 72.4739 188.275 72.1607C189.178 71.8839 190.015 69.8955 190.088 68.6063C191.268 49.0282 192.273 29.4355 193.453 9.85741C193.643 6.6818 193.359 2.18786 197.678 2.00578C202.194 1.8164 201.975 6.3249 202.164 9.49324C203.337 29.0713 204.349 48.6567 205.5 68.2421C205.58 69.6478 206.352 71.0099 206.797 72.3937C208.151 71.6363 209.914 71.1992 210.788 70.0703C214.095 65.7803 218.458 65.0083 223.199 66.2319C233.527 68.8977 241.685 74.8046 247.584 83.6978C251.073 88.9565 251.481 94.5721 246.914 99.1607C240.847 105.257 239.689 112.227 240.767 120.312C241.488 125.724 241.503 131.252 241.481 136.729C241.466 139.81 242.646 141.048 245.494 142.206C261.824 148.863 279.166 151.063 296.304 154.078C326.96 159.476 357.646 164.683 388.339 169.869C391.245 170.357 392.985 171.828 393 174.552C393.015 177.677 390.516 177.743 388.047 177.808C342.627 179.054 297.2 180.212 251.787 181.727C235.523 182.273 219.295 183.722 203.046 184.72C201.181 184.837 199.295 184.735 197.423 184.735C197.43 184.924 197.415 185.121 197.408 185.31ZM184.917 126.678C192.892 118.673 198.253 118.061 207.896 124.078C209.397 127.428 210.861 130.808 212.434 134.122C212.806 134.908 213.447 135.921 214.168 136.125C216.994 136.94 219.9 137.472 222.901 138.142C222.638 130.094 219.441 118.884 216.141 113.924C208.144 101.907 188.129 101.105 180.234 112.49C173.729 119.671 173.78 128.979 171.472 137.72C179.986 137.501 180.947 136.853 183.642 129.868C184.057 128.805 184.494 127.749 184.917 126.678ZM80.7262 163.154C80.9228 163.358 81.1122 163.562 81.3089 163.758C80.7626 165.441 80.2236 167.123 79.6773 168.806C79.8959 168.893 80.1216 168.988 80.3401 169.075C81.7969 166.963 83.2535 164.858 84.703 162.746C84.8632 162.855 85.0307 162.957 85.191 163.066C84.6447 164.894 84.0912 166.715 83.5449 168.544C83.7925 168.609 84.0474 168.675 84.2951 168.74C85.7299 166.519 87.1648 164.305 88.6069 162.083C88.8109 162.185 89.0075 162.28 89.2115 162.382C88.6506 164.363 88.0898 166.337 87.5217 168.318C87.7256 168.361 87.9369 168.412 88.1408 168.456C89.6193 166.184 91.1052 163.904 92.5837 161.631C92.7877 161.77 92.9989 161.908 93.2028 162.054C92.4891 164.122 91.7826 166.191 91.0688 168.259C92.6129 167.283 93.232 165.892 94.055 164.632C94.8125 163.467 95.7812 162.433 96.6552 161.347C96.7863 161.471 96.9174 161.595 97.0485 161.726C96.4149 163.707 95.7885 165.688 95.1548 167.67C95.3661 167.721 95.5773 167.771 95.7885 167.822C97.4054 165.397 99.0151 162.972 100.632 160.554C100.8 160.685 100.967 160.823 101.135 160.954C100.392 163.146 99.6488 165.346 98.9058 167.538C99.1462 167.604 99.3938 167.67 99.6342 167.735C101.164 165.251 102.686 162.768 104.216 160.284C104.449 160.393 104.674 160.503 104.907 160.612C104.15 162.884 103.4 165.157 102.642 167.429C102.861 167.502 103.072 167.582 103.291 167.655C104.995 164.945 106.706 162.243 108.411 159.534C108.622 159.672 108.841 159.803 109.052 159.942C108.221 162.28 107.398 164.618 106.568 166.948C106.801 167.014 107.042 167.072 107.275 167.138C108.855 164.567 110.443 161.996 112.023 159.425C112.242 159.541 112.453 159.65 112.672 159.767C111.936 162.09 111.2 164.414 110.465 166.745C110.676 166.795 110.887 166.839 111.091 166.89C112.796 164.108 114.507 161.333 116.211 158.551C116.43 158.682 116.656 158.813 116.874 158.944C115.986 161.471 115.104 163.999 114.216 166.526C114.442 166.599 114.675 166.679 114.9 166.752C116.532 163.991 118.163 161.238 119.795 158.478C119.715 161.245 118.6 163.562 118.076 166.002C117.515 168.624 116.117 169.403 113.611 169.556C99.5031 170.423 85.4022 171.406 71.3086 172.389C58.9266 173.256 46.5446 174.166 34.1626 175.062C60.2959 175.077 86.3927 174.421 112.482 173.715C118.047 173.562 122.927 171.675 127.931 169.017C135.36 165.069 143.248 161.347 151.384 159.512C177.67 153.583 204.32 153.685 230.978 157.043C244.409 158.733 257.191 162.28 268.772 169.716C271.78 171.646 275.619 172.986 279.173 173.22C291.54 174.043 303.952 174.465 316.348 174.654C331.287 174.88 346.232 174.705 361.171 174.705C352.445 174.465 343.69 173.81 334.928 173.205C316.945 171.96 298.955 170.772 280.979 169.425C279.705 169.33 277.906 168.405 277.389 167.364C275.961 164.457 275.08 161.289 273.98 158.216C274.184 158.084 274.388 157.953 274.592 157.822C276.456 160.859 278.328 163.897 280.193 166.934C280.426 166.839 280.659 166.752 280.892 166.657C279.858 163.991 278.823 161.326 277.789 158.66C277.993 158.529 278.204 158.398 278.408 158.266C280.266 161.165 282.123 164.064 283.98 166.963C284.184 166.89 284.395 166.817 284.599 166.745C283.667 164.217 282.735 161.697 281.795 159.17C282.028 159.053 282.261 158.937 282.502 158.82C284.25 161.653 285.998 164.494 287.746 167.327C287.979 167.232 288.212 167.138 288.445 167.036C287.578 164.625 286.711 162.207 285.845 159.796C286.056 159.679 286.267 159.563 286.486 159.454C288.197 162.178 289.909 164.894 291.613 167.619C291.846 167.502 292.072 167.385 292.305 167.269C291.431 164.938 290.557 162.6 289.683 160.269C289.887 160.138 290.098 160.007 290.302 159.876C291.992 162.52 293.689 165.157 295.379 167.801C295.583 167.735 295.794 167.669 295.998 167.597C295.284 165.368 294.57 163.139 293.857 160.903C294.053 160.808 294.25 160.714 294.447 160.619C296.056 163.081 297.666 165.543 299.268 168.005C299.494 167.888 299.72 167.764 299.953 167.648C299.217 165.601 298.489 163.554 297.753 161.508C297.979 161.398 298.205 161.289 298.431 161.173C299.946 163.525 301.468 165.878 302.983 168.23C303.15 168.179 303.311 168.136 303.478 168.085C303.129 166.402 302.779 164.712 302.429 163.03C302.655 162.921 302.881 162.811 303.099 162.709C304.374 164.705 305.656 166.708 306.931 168.704C307.134 168.595 307.331 168.485 307.535 168.376C307.04 166.599 306.552 164.814 306.057 163.037C306.275 162.943 306.486 162.855 306.705 162.76C308.016 164.742 309.334 166.715 310.645 168.696C310.842 168.58 311.038 168.471 311.235 168.354C310.885 166.89 310.529 165.433 310.179 163.969C310.405 163.86 310.623 163.744 310.849 163.634C312.087 165.463 313.318 167.298 314.556 169.126C314.768 169.01 314.972 168.893 315.183 168.777C314.753 167.152 314.323 165.521 313.894 163.897C314.105 163.817 314.316 163.729 314.52 163.649C315.816 165.601 317.113 167.553 318.409 169.498C318.577 169.425 318.744 169.352 318.912 169.272C318.642 167.801 318.373 166.322 318.096 164.851C318.3 164.734 318.504 164.618 318.708 164.501C319.859 166.235 321.01 167.975 322.16 169.709C322.393 169.6 322.627 169.483 322.86 169.374C322.474 167.837 322.08 166.307 321.694 164.771C321.884 164.683 322.073 164.603 322.262 164.516C323.537 166.315 324.804 168.107 326.079 169.906C326.254 169.825 326.436 169.753 326.611 169.672C326.37 168.347 326.13 167.021 325.89 165.696C326.079 165.594 326.276 165.492 326.465 165.397C327.565 166.97 328.672 168.536 330.42 171.035C330.056 168.536 329.852 167.116 329.488 164.589C331.316 167.174 332.51 168.864 334.368 171.486C334.076 169.075 333.916 167.793 333.639 165.492C335.3 167.728 336.371 169.17 338.017 171.399C337.82 169.228 337.711 167.99 337.543 166.125C339.146 168.077 340.311 169.498 342.27 171.879C341.848 169.549 341.658 168.529 341.272 166.402C343.115 168.616 344.208 169.935 345.606 171.61C345.73 170.124 345.81 169.192 345.941 167.691C347.208 169.272 348.126 170.423 349.583 172.236C349.583 170.372 349.583 169.381 349.583 167.924C350.952 169.454 351.957 170.576 353.079 171.836C353.429 170.721 353.676 169.942 354.011 168.871C355.133 170.241 355.919 171.209 357.092 172.644C357.318 171.173 357.442 170.357 357.719 168.5C358.869 170.474 359.569 171.675 360.588 173.423C361.229 171.486 361.462 170.787 362.067 168.988C362.985 170.707 363.531 171.726 364.266 173.118C365.009 171.894 365.344 171.34 365.221 171.559C371.696 172.185 377.785 172.775 383.874 173.365C383.939 172.826 384.005 172.287 384.07 171.748C340.843 164.487 297.622 157.225 253.338 149.788C270.396 159.381 273.485 162.214 273.303 166.708C255.057 148.405 230.519 149.373 206.979 147.094C211.808 137.334 211.298 130.48 205.413 125.578C201.079 121.965 194.466 121.47 190.256 125.134C187.983 127.115 185.405 130.072 185.172 132.781C184.764 137.508 186.06 142.388 186.65 147.239C180.343 147.742 172.819 147.902 165.441 149.009C149.344 151.427 133.058 153.692 121.31 166.97C124.442 157.698 133.066 154.559 141.66 149.745C96.0653 157.422 51.6576 164.894 7.24998 172.367C7.30097 172.753 7.35196 173.139 7.40294 173.525C16.0849 172.768 24.7669 172.018 33.6309 171.246C33.5435 170.976 33.7693 171.654 34.1626 172.834C35.328 171.391 36.1146 170.423 37.0979 169.206C37.4183 170.379 37.6441 171.217 37.9865 172.462C39.1518 171.056 40.0331 169.993 41.1985 168.587C41.4097 169.891 41.5408 170.707 41.7448 171.996C43.0849 170.525 44.0463 169.461 45.219 168.172C45.2991 169.549 45.3574 170.474 45.4448 172.032C46.9233 170.233 47.9503 168.988 49.3706 167.262C49.3706 169.002 49.3706 170.08 49.3706 171.865C50.82 169.913 51.8033 168.587 53.0779 166.868C53.1726 168.558 53.2382 169.672 53.3256 171.26C54.7386 169.425 55.7947 168.063 57.4335 165.943C57.1348 168.165 56.9819 169.323 56.6614 171.697C58.5551 169.163 59.7278 167.589 61.5559 165.135C61.1335 167.742 60.9223 169.01 60.7183 170.284C60.915 170.35 61.1189 170.415 61.3156 170.488C62.4445 168.842 63.5735 167.196 64.7024 165.55C64.8845 165.674 65.0593 165.79 65.2414 165.914C64.9938 167.32 64.7461 168.733 64.28 171.362C66.2902 168.5 67.5576 166.694 68.8249 164.887C68.9924 164.967 69.1526 165.055 69.3202 165.135C69.0215 166.606 68.7302 168.085 68.4316 169.556C68.6428 169.607 68.854 169.658 69.0652 169.709C70.2889 167.939 71.5125 166.169 72.7289 164.392C72.9109 164.516 73.0858 164.64 73.2678 164.756C72.9037 166.3 72.5468 167.837 72.1826 169.381C72.3938 169.425 72.605 169.469 72.8163 169.512C74.0982 167.662 75.3801 165.82 76.6692 163.969C76.8368 164.086 77.0043 164.195 77.1791 164.312C76.7712 165.951 76.3706 167.589 75.9627 169.228C76.1812 169.286 76.3998 169.345 76.6183 169.403C77.9876 167.327 79.3569 165.244 80.7262 163.154ZM157.494 139.388C158.267 126.722 159.017 114.463 159.767 102.205C160.146 102.234 160.524 102.256 160.903 102.285C160.779 104.376 160.656 106.473 160.524 108.564C160.707 108.6 160.889 108.637 161.071 108.673C161.588 107.282 162.105 105.883 163.059 103.334C163.059 106.051 163.059 107.537 163.059 109.642C163.744 108.535 164.072 108.003 164.654 107.078C164.756 108.833 164.829 110.159 164.946 112.162C165.776 110.261 166.315 109.03 166.861 107.799C166.985 107.835 167.109 107.872 167.233 107.901C167.014 109.671 166.803 111.448 166.584 113.218C166.759 113.276 166.927 113.334 167.101 113.393C167.633 112.366 168.172 111.331 169.192 109.365C168.966 111.914 168.842 113.385 168.646 115.57C169.549 114.31 170.015 113.662 170.692 112.715C170.794 114.041 170.867 115.053 170.998 116.743C171.989 115.068 172.615 114.012 173.635 112.278C173.445 114.587 173.329 116.095 173.205 117.603C178.223 107.107 186.235 101.958 197.721 102.001C209.142 102.045 216.841 107.617 221.895 117.617C221.684 116.175 221.466 114.726 221.131 112.475C222.398 114.325 223.185 115.468 224.401 117.253C224.117 114.973 223.942 113.524 223.68 111.426C224.656 112.956 225.246 113.873 226.448 115.753C226.047 112.934 225.814 111.288 225.457 108.775C226.469 110.61 227.045 111.666 227.875 113.174C227.984 111.448 228.057 110.29 228.152 108.731C228.931 109.984 229.441 110.8 230.33 112.227C230.126 109.707 229.98 108.003 229.74 105.075C230.767 107.595 231.306 108.928 232.296 111.368C232.296 108.746 232.296 107.347 232.296 104.791C233.003 106.575 233.28 107.267 233.899 108.833C234.052 106.262 234.154 104.565 234.256 102.868C234.62 102.861 234.984 102.853 235.355 102.846C235.996 114.959 236.637 127.078 237.285 139.395C234.729 139.067 232.828 138.827 230.92 138.586C230.869 138.834 230.818 139.082 230.759 139.329C233.411 140.232 236.069 141.136 239.281 142.228C238.582 129.839 238.312 118.01 237.14 106.277C235.705 91.9937 227.351 82.5543 214.262 77.3684C203.242 72.9983 191.909 72.9036 180.904 77.2883C170.459 81.4472 161.369 88.0169 159.395 99.707C157.065 113.509 156.446 127.596 154.989 142.469C158.98 141.07 161.493 140.189 164.013 139.307C163.955 139.067 163.889 138.819 163.831 138.579C162.039 138.798 160.226 139.031 157.494 139.388ZM239.376 103.079C239.667 103.341 239.959 103.604 240.257 103.866C241.991 101.484 243.666 99.0515 245.479 96.7353C248.276 93.1591 247.992 89.5173 245.749 85.8974C240.257 77.0333 232.347 71.3012 222.318 68.6791C217.219 67.3463 214.801 68.7301 212.485 73.6684C215.544 70.3616 218.96 68.497 222.697 70.3398C220.643 71.4105 218.181 72.6851 216.207 73.7193C223.185 79.4806 229.623 84.7976 235.996 90.0636C236.317 89.3207 237.125 87.6309 237.788 85.8901C238.167 84.9068 238.007 83.2753 238.633 82.9403C239.522 82.4596 241.175 82.4814 242.034 83.0204C245.545 85.2127 246.943 91.7825 244.729 95.3514C243.083 97.9953 241.175 100.501 239.376 103.079ZM153.394 80.6751C154.042 80.7844 154.683 80.8936 155.331 81.0029C155.586 82.4887 155.834 83.9818 156.045 85.2419C156.358 85.0452 156.897 84.7175 157.291 84.4625C158.063 86.9681 158.733 89.1604 159.41 91.36C159.148 91.0323 158.886 90.6972 158.623 90.3695C165.157 84.9505 171.683 79.5243 178.821 73.6028C176.541 72.5248 174.057 71.3449 171.96 70.3471C175.769 69.0433 179.542 69.7134 182.433 73.7995C179.855 68.5407 177.349 67.3608 172.069 68.752C164.305 70.7914 157.866 75.0886 152.622 81.0684C145.003 89.7431 145.768 95.9778 155.411 103.604C153.081 99.6196 149.534 96.0943 149.213 92.2923C148.907 88.5632 151.864 84.5572 153.394 80.6751ZM197.568 6.44144C197.102 6.41959 196.643 6.39774 196.177 6.38317C194.976 28.0516 193.774 49.7274 192.579 71.2284C196.694 72.3573 197.663 70.988 197.619 67.7396C197.481 55.9184 197.568 44.09 197.568 32.2688C197.568 23.6597 197.568 15.0506 197.568 6.44144ZM250.163 177.109C215.559 177.109 179.054 177.109 144.399 177.109C179.054 180.015 215.559 180.153 250.163 177.109ZM236.317 172.943C236.317 172.586 236.324 172.229 236.324 171.872C210.453 171.872 184.582 171.872 158.718 171.872C158.718 172.229 158.718 172.586 158.718 172.943C184.582 172.943 210.453 172.943 236.317 172.943ZM201.072 71.4979C201.735 71.4906 202.405 71.4833 203.068 71.476C202.361 57.2294 201.655 42.9829 201.072 31.1763C201.072 42.9974 201.072 57.244 201.072 71.4979ZM219.259 167.968C219.31 167.67 219.368 167.371 219.419 167.072C204.728 167.072 190.037 167.072 175.346 167.072C175.346 167.371 175.346 167.67 175.346 167.968C189.986 167.968 204.619 167.968 219.259 167.968ZM209.645 162.192C209.703 161.894 209.761 161.595 209.819 161.289C201.676 161.289 193.533 161.289 185.398 161.289C185.398 161.588 185.398 161.886 185.39 162.192C193.475 162.192 201.56 162.192 209.645 162.192Z"/>
</mask>
<path d="M197.408 185.31C172.666 183.883 147.939 182.047 123.175 181.122C84.5427 179.687 45.8891 178.872 7.2427 177.779C5.02851 177.713 2.20979 178.325 2.01313 174.88C1.80919 171.442 4.00153 170.343 7.12617 169.804C48.1543 162.702 89.1969 155.652 130.167 148.186C137.319 146.882 144.18 143.867 151.078 141.376C152.141 140.99 153.285 139.169 153.35 137.953C153.882 128.593 154.217 119.22 154.443 109.853C154.472 108.578 153.758 107.143 153.015 106.029C151.588 103.873 149.81 101.943 148.332 99.8162C143.641 93.0862 143.547 88.6214 148.39 82.0954C154.144 74.3384 161.661 68.9413 171.071 66.4212C176.403 64.9937 180.998 65.8531 184.56 70.5656C185.31 71.5561 187.262 72.4739 188.275 72.1607C189.178 71.8839 190.015 69.8955 190.088 68.6063C191.268 49.0282 192.273 29.4355 193.453 9.85741C193.643 6.6818 193.359 2.18786 197.678 2.00578C202.194 1.8164 201.975 6.3249 202.164 9.49324C203.337 29.0713 204.349 48.6567 205.5 68.2421C205.58 69.6478 206.352 71.0099 206.797 72.3937C208.151 71.6363 209.914 71.1992 210.788 70.0703C214.095 65.7803 218.458 65.0083 223.199 66.2319C233.527 68.8977 241.685 74.8046 247.584 83.6978C251.073 88.9565 251.481 94.5721 246.914 99.1607C240.847 105.257 239.689 112.227 240.767 120.312C241.488 125.724 241.503 131.252 241.481 136.729C241.466 139.81 242.646 141.048 245.494 142.206C261.824 148.863 279.166 151.063 296.304 154.078C326.96 159.476 357.646 164.683 388.339 169.869C391.245 170.357 392.985 171.828 393 174.552C393.015 177.677 390.516 177.743 388.047 177.808C342.627 179.054 297.2 180.212 251.787 181.727C235.523 182.273 219.295 183.722 203.046 184.72C201.181 184.837 199.295 184.735 197.423 184.735C197.43 184.924 197.415 185.121 197.408 185.31ZM184.917 126.678C192.892 118.673 198.253 118.061 207.896 124.078C209.397 127.428 210.861 130.808 212.434 134.122C212.806 134.908 213.447 135.921 214.168 136.125C216.994 136.94 219.9 137.472 222.901 138.142C222.638 130.094 219.441 118.884 216.141 113.924C208.144 101.907 188.129 101.105 180.234 112.49C173.729 119.671 173.78 128.979 171.472 137.72C179.986 137.501 180.947 136.853 183.642 129.868C184.057 128.805 184.494 127.749 184.917 126.678ZM80.7262 163.154C80.9228 163.358 81.1122 163.562 81.3089 163.758C80.7626 165.441 80.2236 167.123 79.6773 168.806C79.8959 168.893 80.1216 168.988 80.3401 169.075C81.7969 166.963 83.2535 164.858 84.703 162.746C84.8632 162.855 85.0307 162.957 85.191 163.066C84.6447 164.894 84.0912 166.715 83.5449 168.544C83.7925 168.609 84.0474 168.675 84.2951 168.74C85.7299 166.519 87.1648 164.305 88.6069 162.083C88.8109 162.185 89.0075 162.28 89.2115 162.382C88.6506 164.363 88.0898 166.337 87.5217 168.318C87.7256 168.361 87.9369 168.412 88.1408 168.456C89.6193 166.184 91.1052 163.904 92.5837 161.631C92.7877 161.77 92.9989 161.908 93.2028 162.054C92.4891 164.122 91.7826 166.191 91.0688 168.259C92.6129 167.283 93.232 165.892 94.055 164.632C94.8125 163.467 95.7812 162.433 96.6552 161.347C96.7863 161.471 96.9174 161.595 97.0485 161.726C96.4149 163.707 95.7885 165.688 95.1548 167.67C95.3661 167.721 95.5773 167.771 95.7885 167.822C97.4054 165.397 99.0151 162.972 100.632 160.554C100.8 160.685 100.967 160.823 101.135 160.954C100.392 163.146 99.6488 165.346 98.9058 167.538C99.1462 167.604 99.3938 167.67 99.6342 167.735C101.164 165.251 102.686 162.768 104.216 160.284C104.449 160.393 104.674 160.503 104.907 160.612C104.15 162.884 103.4 165.157 102.642 167.429C102.861 167.502 103.072 167.582 103.291 167.655C104.995 164.945 106.706 162.243 108.411 159.534C108.622 159.672 108.841 159.803 109.052 159.942C108.221 162.28 107.398 164.618 106.568 166.948C106.801 167.014 107.042 167.072 107.275 167.138C108.855 164.567 110.443 161.996 112.023 159.425C112.242 159.541 112.453 159.65 112.672 159.767C111.936 162.09 111.2 164.414 110.465 166.745C110.676 166.795 110.887 166.839 111.091 166.89C112.796 164.108 114.507 161.333 116.211 158.551C116.43 158.682 116.656 158.813 116.874 158.944C115.986 161.471 115.104 163.999 114.216 166.526C114.442 166.599 114.675 166.679 114.9 166.752C116.532 163.991 118.163 161.238 119.795 158.478C119.715 161.245 118.6 163.562 118.076 166.002C117.515 168.624 116.117 169.403 113.611 169.556C99.5031 170.423 85.4022 171.406 71.3086 172.389C58.9266 173.256 46.5446 174.166 34.1626 175.062C60.2959 175.077 86.3927 174.421 112.482 173.715C118.047 173.562 122.927 171.675 127.931 169.017C135.36 165.069 143.248 161.347 151.384 159.512C177.67 153.583 204.32 153.685 230.978 157.043C244.409 158.733 257.191 162.28 268.772 169.716C271.78 171.646 275.619 172.986 279.173 173.22C291.54 174.043 303.952 174.465 316.348 174.654C331.287 174.88 346.232 174.705 361.171 174.705C352.445 174.465 343.69 173.81 334.928 173.205C316.945 171.96 298.955 170.772 280.979 169.425C279.705 169.33 277.906 168.405 277.389 167.364C275.961 164.457 275.08 161.289 273.98 158.216C274.184 158.084 274.388 157.953 274.592 157.822C276.456 160.859 278.328 163.897 280.193 166.934C280.426 166.839 280.659 166.752 280.892 166.657C279.858 163.991 278.823 161.326 277.789 158.66C277.993 158.529 278.204 158.398 278.408 158.266C280.266 161.165 282.123 164.064 283.98 166.963C284.184 166.89 284.395 166.817 284.599 166.745C283.667 164.217 282.735 161.697 281.795 159.17C282.028 159.053 282.261 158.937 282.502 158.82C284.25 161.653 285.998 164.494 287.746 167.327C287.979 167.232 288.212 167.138 288.445 167.036C287.578 164.625 286.711 162.207 285.845 159.796C286.056 159.679 286.267 159.563 286.486 159.454C288.197 162.178 289.909 164.894 291.613 167.619C291.846 167.502 292.072 167.385 292.305 167.269C291.431 164.938 290.557 162.6 289.683 160.269C289.887 160.138 290.098 160.007 290.302 159.876C291.992 162.52 293.689 165.157 295.379 167.801C295.583 167.735 295.794 167.669 295.998 167.597C295.284 165.368 294.57 163.139 293.857 160.903C294.053 160.808 294.25 160.714 294.447 160.619C296.056 163.081 297.666 165.543 299.268 168.005C299.494 167.888 299.72 167.764 299.953 167.648C299.217 165.601 298.489 163.554 297.753 161.508C297.979 161.398 298.205 161.289 298.431 161.173C299.946 163.525 301.468 165.878 302.983 168.23C303.15 168.179 303.311 168.136 303.478 168.085C303.129 166.402 302.779 164.712 302.429 163.03C302.655 162.921 302.881 162.811 303.099 162.709C304.374 164.705 305.656 166.708 306.931 168.704C307.134 168.595 307.331 168.485 307.535 168.376C307.04 166.599 306.552 164.814 306.057 163.037C306.275 162.943 306.486 162.855 306.705 162.76C308.016 164.742 309.334 166.715 310.645 168.696C310.842 168.58 311.038 168.471 311.235 168.354C310.885 166.89 310.529 165.433 310.179 163.969C310.405 163.86 310.623 163.744 310.849 163.634C312.087 165.463 313.318 167.298 314.556 169.126C314.768 169.01 314.972 168.893 315.183 168.777C314.753 167.152 314.323 165.521 313.894 163.897C314.105 163.817 314.316 163.729 314.52 163.649C315.816 165.601 317.113 167.553 318.409 169.498C318.577 169.425 318.744 169.352 318.912 169.272C318.642 167.801 318.373 166.322 318.096 164.851C318.3 164.734 318.504 164.618 318.708 164.501C319.859 166.235 321.01 167.975 322.16 169.709C322.393 169.6 322.627 169.483 322.86 169.374C322.474 167.837 322.08 166.307 321.694 164.771C321.884 164.683 322.073 164.603 322.262 164.516C323.537 166.315 324.804 168.107 326.079 169.906C326.254 169.825 326.436 169.753 326.611 169.672C326.37 168.347 326.13 167.021 325.89 165.696C326.079 165.594 326.276 165.492 326.465 165.397C327.565 166.97 328.672 168.536 330.42 171.035C330.056 168.536 329.852 167.116 329.488 164.589C331.316 167.174 332.51 168.864 334.368 171.486C334.076 169.075 333.916 167.793 333.639 165.492C335.3 167.728 336.371 169.17 338.017 171.399C337.82 169.228 337.711 167.99 337.543 166.125C339.146 168.077 340.311 169.498 342.27 171.879C341.848 169.549 341.658 168.529 341.272 166.402C343.115 168.616 344.208 169.935 345.606 171.61C345.73 170.124 345.81 169.192 345.941 167.691C347.208 169.272 348.126 170.423 349.583 172.236C349.583 170.372 349.583 169.381 349.583 167.924C350.952 169.454 351.957 170.576 353.079 171.836C353.429 170.721 353.676 169.942 354.011 168.871C355.133 170.241 355.919 171.209 357.092 172.644C357.318 171.173 357.442 170.357 357.719 168.5C358.869 170.474 359.569 171.675 360.588 173.423C361.229 171.486 361.462 170.787 362.067 168.988C362.985 170.707 363.531 171.726 364.266 173.118C365.009 171.894 365.344 171.34 365.221 171.559C371.696 172.185 377.785 172.775 383.874 173.365C383.939 172.826 384.005 172.287 384.07 171.748C340.843 164.487 297.622 157.225 253.338 149.788C270.396 159.381 273.485 162.214 273.303 166.708C255.057 148.405 230.519 149.373 206.979 147.094C211.808 137.334 211.298 130.48 205.413 125.578C201.079 121.965 194.466 121.47 190.256 125.134C187.983 127.115 185.405 130.072 185.172 132.781C184.764 137.508 186.06 142.388 186.65 147.239C180.343 147.742 172.819 147.902 165.441 149.009C149.344 151.427 133.058 153.692 121.31 166.97C124.442 157.698 133.066 154.559 141.66 149.745C96.0653 157.422 51.6576 164.894 7.24998 172.367C7.30097 172.753 7.35196 173.139 7.40294 173.525C16.0849 172.768 24.7669 172.018 33.6309 171.246C33.5435 170.976 33.7693 171.654 34.1626 172.834C35.328 171.391 36.1146 170.423 37.0979 169.206C37.4183 170.379 37.6441 171.217 37.9865 172.462C39.1518 171.056 40.0331 169.993 41.1985 168.587C41.4097 169.891 41.5408 170.707 41.7448 171.996C43.0849 170.525 44.0463 169.461 45.219 168.172C45.2991 169.549 45.3574 170.474 45.4448 172.032C46.9233 170.233 47.9503 168.988 49.3706 167.262C49.3706 169.002 49.3706 170.08 49.3706 171.865C50.82 169.913 51.8033 168.587 53.0779 166.868C53.1726 168.558 53.2382 169.672 53.3256 171.26C54.7386 169.425 55.7947 168.063 57.4335 165.943C57.1348 168.165 56.9819 169.323 56.6614 171.697C58.5551 169.163 59.7278 167.589 61.5559 165.135C61.1335 167.742 60.9223 169.01 60.7183 170.284C60.915 170.35 61.1189 170.415 61.3156 170.488C62.4445 168.842 63.5735 167.196 64.7024 165.55C64.8845 165.674 65.0593 165.79 65.2414 165.914C64.9938 167.32 64.7461 168.733 64.28 171.362C66.2902 168.5 67.5576 166.694 68.8249 164.887C68.9924 164.967 69.1526 165.055 69.3202 165.135C69.0215 166.606 68.7302 168.085 68.4316 169.556C68.6428 169.607 68.854 169.658 69.0652 169.709C70.2889 167.939 71.5125 166.169 72.7289 164.392C72.9109 164.516 73.0858 164.64 73.2678 164.756C72.9037 166.3 72.5468 167.837 72.1826 169.381C72.3938 169.425 72.605 169.469 72.8163 169.512C74.0982 167.662 75.3801 165.82 76.6692 163.969C76.8368 164.086 77.0043 164.195 77.1791 164.312C76.7712 165.951 76.3706 167.589 75.9627 169.228C76.1812 169.286 76.3998 169.345 76.6183 169.403C77.9876 167.327 79.3569 165.244 80.7262 163.154ZM157.494 139.388C158.267 126.722 159.017 114.463 159.767 102.205C160.146 102.234 160.524 102.256 160.903 102.285C160.779 104.376 160.656 106.473 160.524 108.564C160.707 108.6 160.889 108.637 161.071 108.673C161.588 107.282 162.105 105.883 163.059 103.334C163.059 106.051 163.059 107.537 163.059 109.642C163.744 108.535 164.072 108.003 164.654 107.078C164.756 108.833 164.829 110.159 164.946 112.162C165.776 110.261 166.315 109.03 166.861 107.799C166.985 107.835 167.109 107.872 167.233 107.901C167.014 109.671 166.803 111.448 166.584 113.218C166.759 113.276 166.927 113.334 167.101 113.393C167.633 112.366 168.172 111.331 169.192 109.365C168.966 111.914 168.842 113.385 168.646 115.57C169.549 114.31 170.015 113.662 170.692 112.715C170.794 114.041 170.867 115.053 170.998 116.743C171.989 115.068 172.615 114.012 173.635 112.278C173.445 114.587 173.329 116.095 173.205 117.603C178.223 107.107 186.235 101.958 197.721 102.001C209.142 102.045 216.841 107.617 221.895 117.617C221.684 116.175 221.466 114.726 221.131 112.475C222.398 114.325 223.185 115.468 224.401 117.253C224.117 114.973 223.942 113.524 223.68 111.426C224.656 112.956 225.246 113.873 226.448 115.753C226.047 112.934 225.814 111.288 225.457 108.775C226.469 110.61 227.045 111.666 227.875 113.174C227.984 111.448 228.057 110.29 228.152 108.731C228.931 109.984 229.441 110.8 230.33 112.227C230.126 109.707 229.98 108.003 229.74 105.075C230.767 107.595 231.306 108.928 232.296 111.368C232.296 108.746 232.296 107.347 232.296 104.791C233.003 106.575 233.28 107.267 233.899 108.833C234.052 106.262 234.154 104.565 234.256 102.868C234.62 102.861 234.984 102.853 235.355 102.846C235.996 114.959 236.637 127.078 237.285 139.395C234.729 139.067 232.828 138.827 230.92 138.586C230.869 138.834 230.818 139.082 230.759 139.329C233.411 140.232 236.069 141.136 239.281 142.228C238.582 129.839 238.312 118.01 237.14 106.277C235.705 91.9937 227.351 82.5543 214.262 77.3684C203.242 72.9983 191.909 72.9036 180.904 77.2883C170.459 81.4472 161.369 88.0169 159.395 99.707C157.065 113.509 156.446 127.596 154.989 142.469C158.98 141.07 161.493 140.189 164.013 139.307C163.955 139.067 163.889 138.819 163.831 138.579C162.039 138.798 160.226 139.031 157.494 139.388ZM239.376 103.079C239.667 103.341 239.959 103.604 240.257 103.866C241.991 101.484 243.666 99.0515 245.479 96.7353C248.276 93.1591 247.992 89.5173 245.749 85.8974C240.257 77.0333 232.347 71.3012 222.318 68.6791C217.219 67.3463 214.801 68.7301 212.485 73.6684C215.544 70.3616 218.96 68.497 222.697 70.3398C220.643 71.4105 218.181 72.6851 216.207 73.7193C223.185 79.4806 229.623 84.7976 235.996 90.0636C236.317 89.3207 237.125 87.6309 237.788 85.8901C238.167 84.9068 238.007 83.2753 238.633 82.9403C239.522 82.4596 241.175 82.4814 242.034 83.0204C245.545 85.2127 246.943 91.7825 244.729 95.3514C243.083 97.9953 241.175 100.501 239.376 103.079ZM153.394 80.6751C154.042 80.7844 154.683 80.8936 155.331 81.0029C155.586 82.4887 155.834 83.9818 156.045 85.2419C156.358 85.0452 156.897 84.7175 157.291 84.4625C158.063 86.9681 158.733 89.1604 159.41 91.36C159.148 91.0323 158.886 90.6972 158.623 90.3695C165.157 84.9505 171.683 79.5243 178.821 73.6028C176.541 72.5248 174.057 71.3449 171.96 70.3471C175.769 69.0433 179.542 69.7134 182.433 73.7995C179.855 68.5407 177.349 67.3608 172.069 68.752C164.305 70.7914 157.866 75.0886 152.622 81.0684C145.003 89.7431 145.768 95.9778 155.411 103.604C153.081 99.6196 149.534 96.0943 149.213 92.2923C148.907 88.5632 151.864 84.5572 153.394 80.6751ZM197.568 6.44144C197.102 6.41959 196.643 6.39774 196.177 6.38317C194.976 28.0516 193.774 49.7274 192.579 71.2284C196.694 72.3573 197.663 70.988 197.619 67.7396C197.481 55.9184 197.568 44.09 197.568 32.2688C197.568 23.6597 197.568 15.0506 197.568 6.44144ZM250.163 177.109C215.559 177.109 179.054 177.109 144.399 177.109C179.054 180.015 215.559 180.153 250.163 177.109ZM236.317 172.943C236.317 172.586 236.324 172.229 236.324 171.872C210.453 171.872 184.582 171.872 158.718 171.872C158.718 172.229 158.718 172.586 158.718 172.943C184.582 172.943 210.453 172.943 236.317 172.943ZM201.072 71.4979C201.735 71.4906 202.405 71.4833 203.068 71.476C202.361 57.2294 201.655 42.9829 201.072 31.1763C201.072 42.9974 201.072 57.244 201.072 71.4979ZM219.259 167.968C219.31 167.67 219.368 167.371 219.419 167.072C204.728 167.072 190.037 167.072 175.346 167.072C175.346 167.371 175.346 167.67 175.346 167.968C189.986 167.968 204.619 167.968 219.259 167.968ZM209.645 162.192C209.703 161.894 209.761 161.595 209.819 161.289C201.676 161.289 193.533 161.289 185.398 161.289C185.398 161.588 185.398 161.886 185.39 162.192C193.475 162.192 201.56 162.192 209.645 162.192Z" stroke="white" stroke-width="3" mask="url(#path-1-outside-1_131_218)"/>
<path d="M191.675 133.928L192.281 134.4C193.052 135 193.792 135.687 194.452 136.302C194.8 136.625 195.126 136.928 195.424 137.188C196.371 138.014 197.047 138.422 197.62 138.437C197.797 138.44 198.037 138.37 198.366 138.155C198.694 137.941 199.052 137.622 199.451 137.218C199.745 136.922 200.04 136.601 200.351 136.263C200.464 136.14 200.579 136.015 200.697 135.888C201.132 135.42 201.595 134.935 202.08 134.504L202.633 134.013L203.132 134.558C204.528 136.085 205.191 137.864 205.353 139.777C205.377 139.398 205.375 139.024 205.346 138.657C205.184 136.578 204.181 134.631 202.317 133.034C199.491 130.62 195.453 130.604 192.64 132.986M191.675 133.928L192.64 132.986M191.675 133.928C191.967 133.599 192.289 133.283 192.64 132.986M191.675 133.928L192.64 132.986M185.426 139.948L185.426 139.948C185.457 147.133 190.866 152.941 197.641 152.8C204.42 152.659 209.737 146.695 209.599 139.61C209.469 132.682 204.159 127.063 197.528 127.024C190.665 126.977 185.395 132.715 185.426 139.948ZM189.825 141.681C189.155 139.306 189.589 136.726 191.129 134.608L191.083 134.856C190.747 136.683 190.37 138.728 189.999 140.74C189.941 141.055 189.883 141.369 189.825 141.681Z" stroke="white" stroke-width="1.5"/>
<path d="M192.26 85.6602C192.26 89.4185 192.478 92.8709 192.136 96.2723C192.019 97.4231 190.694 99.04 189.579 99.4042C183.949 101.261 183.316 100.57 184.692 94.699C185.086 93.0238 185.435 91.3341 185.858 89.6661C186.965 85.2523 186.972 85.2523 192.26 85.6602Z" fill="url(#paint0_linear_131_218)"/>
<path d="M202.23 85.7784C206.52 84.6203 208.706 85.8002 209.121 89.9591C209.288 91.6562 210.097 93.2877 210.33 94.9847C210.556 96.5944 210.41 98.2478 210.424 99.8866C208.472 99.7117 206.346 99.9521 204.641 99.2165C203.673 98.8013 203.046 96.8347 202.871 95.4873C202.464 92.3627 202.434 89.1871 202.23 85.7784Z" fill="url(#paint1_linear_131_218)"/>
<path d="M193.43 98.5447C193.714 94.0581 193.976 89.8409 194.231 85.7184C200.808 84.4875 200.939 84.5895 201.07 90.6639C201.121 92.9583 201.15 95.2453 201.158 97.5396C201.158 97.7945 200.983 98.0567 200.793 98.5447C198.645 98.5447 196.416 98.5447 193.43 98.5447Z" fill="url(#paint2_linear_131_218)"/>
<path d="M211.488 89.8475C217.082 89.1192 218.08 90.3938 219.813 100.467C212.559 99.6438 211.612 98.4275 211.488 89.8475Z" fill="url(#paint3_linear_131_218)"/>
<path d="M175.047 100.613C176.941 90.2488 177.822 89.149 183.416 89.8191C183.583 98.0058 182.665 99.2367 175.047 100.613Z" fill="url(#paint4_linear_131_218)"/>
<path d="M168.777 96.4855C170.533 93.1133 172.069 90.1634 173.628 87.1699C177.481 89.5298 177.445 89.9668 173.067 98.4812C171.8 97.8913 170.518 97.294 168.777 96.4855Z" fill="url(#paint5_linear_131_218)"/>
<path d="M220.467 87.291C226.06 92.8775 226.556 96.3444 222.236 98.3037C218.354 93.3728 217.75 90.0005 220.467 87.291Z" fill="url(#paint6_linear_131_218)"/>
<path d="M191.297 103.664C195.332 103.664 199.374 103.664 203.409 103.664C203.409 103.97 203.409 104.283 203.409 104.589C199.374 104.589 195.332 104.589 191.297 104.589C191.297 104.283 191.297 103.97 191.297 103.664Z" fill="url(#paint7_linear_131_218)"/>
<path d="M221.468 139.541C221.318 139.529 221.17 139.517 221.022 139.506C216.655 139.165 213.427 138.914 212.528 133.824C212.236 132.154 211.023 130.65 209.811 129.148C209.269 128.475 208.727 127.803 208.267 127.116C201.151 119.446 190.102 120.656 184.472 129.716L221.468 139.541ZM221.468 139.541C221.497 139.636 221.527 139.732 221.557 139.828L222.273 139.607L222.339 138.86C222.237 138.851 222.135 138.843 222.035 138.834C221.724 137.826 221.417 136.827 221.111 135.835C219.089 129.272 217.161 123.014 215.068 116.228C215.172 116.087 215.282 115.939 215.396 115.785L214.793 115.339L214.076 115.56C214.131 115.736 214.185 115.911 214.239 116.087C214.172 116.178 214.106 116.266 214.043 116.352C213.001 117.759 212.463 118.485 211.96 119.162L221.468 139.541ZM185.111 130.109C187.815 125.76 191.787 123.337 195.894 122.888C199.983 122.441 204.277 123.943 207.678 127.584C208.06 128.15 208.49 128.699 208.915 129.23C209.022 129.363 209.128 129.495 209.233 129.625C209.566 130.038 209.89 130.44 210.197 130.848C211.011 131.927 211.61 132.929 211.789 133.953L211.789 133.955C212.049 135.425 212.503 136.573 213.16 137.46C213.823 138.355 214.659 138.94 215.61 139.332C216.548 139.718 217.596 139.916 218.692 140.047C219.412 140.133 220.189 140.193 220.986 140.255C221.39 140.287 221.799 140.319 222.208 140.354L223.318 140.452L222.99 139.386C222.599 138.118 222.214 136.867 221.832 135.626C219.72 128.772 217.712 122.253 215.51 115.117L215.073 113.701L214.19 114.892C213.913 115.267 213.663 115.604 213.438 115.909C212.684 116.926 212.195 117.587 211.792 118.131C207.865 115.454 203.843 113.927 199.725 113.541C195.396 113.136 191.007 113.996 186.562 116.041C186.332 116.146 186.117 116.246 185.916 116.338C185.219 116.66 184.685 116.906 184.24 117.083C183.662 117.313 183.346 117.378 183.127 117.367C182.947 117.359 182.76 117.296 182.453 117.051C182.122 116.787 181.732 116.376 181.139 115.738L180.442 114.989L179.937 115.879C175.815 123.155 173.888 131.053 172.746 139.205L172.623 140.078L173.505 140.058C175.157 140.022 176.447 139.993 177.46 139.873C178.48 139.753 179.31 139.533 180.006 139.058C180.706 138.579 181.189 137.899 181.626 137.024C182.045 136.186 182.458 135.094 182.977 133.719L183.025 133.594C183.025 133.594 183.025 133.594 183.025 133.594C183.24 133.026 183.56 132.477 183.936 131.899C184.063 131.704 184.202 131.497 184.345 131.286C184.603 130.902 184.873 130.5 185.111 130.109Z" stroke="white" stroke-width="1.5"/>
<path d="M204.603 113.134C199.708 113.134 195.185 113.134 190.312 113.134C191.208 108.101 195.12 109.383 197.916 109.368C200.458 109.354 204.122 108.399 204.603 113.134Z" fill="url(#paint8_linear_131_218)"/>
<defs>
<linearGradient id="paint0_linear_131_218" x1="188.201" y1="85.4922" x2="188.201" y2="100.318" gradientUnits="userSpaceOnUse">
<stop stop-color="#89BAF3"/>
<stop offset="1" stop-color="#A07EFF"/>
</linearGradient>
<linearGradient id="paint1_linear_131_218" x1="206.344" y1="85.3574" x2="206.344" y2="99.8866" gradientUnits="userSpaceOnUse">
<stop stop-color="#89BAF3"/>
<stop offset="1" stop-color="#A07EFF"/>
</linearGradient>
<linearGradient id="paint2_linear_131_218" x1="197.294" y1="85.0957" x2="197.294" y2="98.5447" gradientUnits="userSpaceOnUse">
<stop stop-color="#89BAF3"/>
<stop offset="1" stop-color="#A07EFF"/>
</linearGradient>
<linearGradient id="paint3_linear_131_218" x1="215.651" y1="89.6777" x2="215.651" y2="100.467" gradientUnits="userSpaceOnUse">
<stop stop-color="#89BAF3"/>
<stop offset="1" stop-color="#A07EFF"/>
</linearGradient>
<linearGradient id="paint4_linear_131_218" x1="179.24" y1="89.6621" x2="179.24" y2="100.613" gradientUnits="userSpaceOnUse">
<stop stop-color="#89BAF3"/>
<stop offset="1" stop-color="#A07EFF"/>
</linearGradient>
<linearGradient id="paint5_linear_131_218" x1="172.608" y1="87.1699" x2="172.608" y2="98.4812" gradientUnits="userSpaceOnUse">
<stop stop-color="#89BAF3"/>
<stop offset="1" stop-color="#A07EFF"/>
</linearGradient>
<linearGradient id="paint6_linear_131_218" x1="221.957" y1="87.291" x2="221.957" y2="98.3037" gradientUnits="userSpaceOnUse">
<stop stop-color="#89BAF3"/>
<stop offset="1" stop-color="#A07EFF"/>
</linearGradient>
<linearGradient id="paint7_linear_131_218" x1="197.353" y1="103.664" x2="197.353" y2="104.589" gradientUnits="userSpaceOnUse">
<stop stop-color="white"/>
<stop offset="1" stop-color="#8C8C8C"/>
</linearGradient>
<linearGradient id="paint8_linear_131_218" x1="197.458" y1="109.232" x2="197.458" y2="113.134" gradientUnits="userSpaceOnUse">
<stop stop-color="white"/>
<stop offset="1" stop-color="#8C8C8C"/>
</linearGradient>
</defs>
</svg>
