<svg width="459" height="519" viewBox="0 0 459 519" fill="none" xmlns="http://www.w3.org/2000/svg">
<mask id="path-1-outside-1_126_219" maskUnits="userSpaceOnUse" x="-0.171875" y="0.0449219" width="460" height="519" fill="black">
<rect fill="white" x="-0.171875" y="0.0449219" width="460" height="519"/>
<path d="M453.797 418.694C451.059 415.527 448.354 412.338 445.582 409.215C429.165 390.752 411.867 373.091 385.773 369.946C352.387 365.922 319.959 370.496 292.247 390.422C269.716 406.631 246.656 421.586 222.618 435.452C189.584 454.509 163.468 481.396 143.102 514C140.265 504.906 142.618 491.93 152.482 466.946C158.365 452.024 165.15 437.465 171.528 422.74C170.802 422.301 170.076 421.861 169.34 421.41C161.477 434.716 153.615 448.01 144.62 463.241C145.268 458.567 145.521 455.609 146.126 452.728C146.742 449.792 147.699 446.933 147.424 443.26C139.121 452.596 130.819 461.932 122.956 470.784C125.442 454.553 128.048 437.454 130.654 420.365C129.763 420.101 128.873 419.848 127.982 419.584C124.122 432.714 120.251 445.844 116.392 458.985C115.721 458.963 115.061 458.941 114.39 458.919C111.52 447.098 108.639 435.276 105.263 421.355C100.535 428.69 96.4329 435.068 92.5842 441.05C89.5931 425.984 96.5759 412.316 120.284 388.069C111.3 385.968 107.814 380.778 107.001 371.387C106.605 366.845 103.273 359.478 93.9807 359.852C78.5197 360.467 76.6283 357.982 70.9101 343.236C69.3046 339.101 65.4448 335.857 62.6957 332.14C60.7383 329.49 57.3294 326.752 57.3184 324.058C57.3074 316.701 52.7659 312.611 48.4553 307.926C-4.38287 250.502 -13.2021 164.323 26.5503 97.1234C29.1674 92.6918 30.553 87.2375 31.3447 82.0802C32.7853 72.6232 41.9123 64.1009 51.2484 63.727C54.0415 63.6171 57.5603 62.3415 59.4078 60.3511C129.642 -14.9199 236.957 -17.537 310.667 53.8082C316.583 59.5264 325.908 62.6934 334.221 64.7497C348.571 68.2906 357.962 76.1861 365.176 89.019C374.732 106.009 386.069 121.997 396.659 138.415C399.012 142.055 398.375 145.079 397.649 149.555C396.241 158.253 390.182 167.028 397.803 177.156C410.35 193.838 414.33 213.862 411.526 234.525C409.371 250.425 412.593 262.819 426.229 272.902C439.567 282.777 441.349 297.018 436.807 312.556C435.851 315.822 436.994 319.747 437.346 323.343C437.467 324.509 438.49 325.608 438.534 326.763C439.051 341.135 446.627 353.748 448.453 367.912C450.311 382.394 454.149 396.613 456.953 410.974C457.404 413.261 457.019 415.703 457.019 418.078C455.952 418.276 454.874 418.485 453.797 418.694ZM128.708 328.457C152.064 320.121 175.146 311.885 198.227 303.637C198.37 303.945 198.513 304.253 198.656 304.561C196.237 306.288 193.807 308.014 189.672 310.961C194.115 310.158 196.556 309.719 200.581 308.993C196.897 311.709 194.555 313.435 190.211 316.635C195.577 315.261 198.403 314.535 203.363 313.259C199.47 316.129 197.381 317.669 194.632 319.692C197.425 319.956 199.129 320.121 201.394 320.33C199.151 321.98 197.414 323.255 195.28 324.806C198.7 326.004 201.834 328.347 204.012 327.654C216.779 323.629 229.326 318.901 241.938 314.359C242.213 314.26 242.301 313.644 242.752 312.655C239.86 313.105 237.452 313.479 232.394 314.271C239.134 310.906 243.39 308.773 247.646 306.651C247.415 306.178 247.195 305.716 246.964 305.243C242.334 306.365 237.705 307.475 233.086 308.597C232.965 308.289 232.844 307.981 232.734 307.673C236.836 305.463 240.938 303.264 245.028 301.053C244.908 300.69 244.776 300.328 244.655 299.965C239.772 301.031 234.901 302.109 230.018 303.176C229.93 302.879 229.831 302.582 229.743 302.285C234.076 300.086 238.409 297.886 242.741 295.687C242.554 295.258 242.367 294.829 242.18 294.411C237.463 295.5 232.734 296.578 228.017 297.666C227.929 297.314 227.83 296.952 227.742 296.6C232.02 294.433 236.308 292.278 240.586 290.112C240.465 289.727 240.333 289.353 240.212 288.968C235.363 290.046 230.524 291.123 225.675 292.201C265.24 271.913 305.63 253.439 342.018 225.002C346.361 236.526 350.254 246.841 354.246 257.441C359.326 254.527 361.558 250.425 358.325 243.212C351.859 228.828 345.536 215.666 348.231 197.631C358.204 130.872 334.397 76.1531 278.667 38.4571C222.871 0.706131 163.698 0.387238 104.779 33.0578C88.1966 42.2509 74.1431 54.7759 62.3988 69.6101C99.6439 100.906 136.251 131.674 173.254 162.761C187.88 151.105 204.693 145.453 223.992 149.511C237.111 152.271 250.186 155.295 263.371 157.758C266.219 158.297 271.178 157.989 272.19 156.295C278.821 145.211 287.409 134.258 290.114 122.096C295.293 98.8388 286.859 78.0335 271.717 59.4824C276.017 63.3421 280.316 67.2019 284.627 71.0727C285.056 70.6438 285.485 70.204 285.913 69.7751C279.03 62.4844 272.146 55.1937 265.251 47.9031C265.449 47.5842 265.658 47.2653 265.856 46.9464C272.795 51.7518 279.722 56.5463 286.661 61.3518C287.244 60.4721 287.827 59.5813 288.41 58.7016C272.74 47.9251 257.059 37.1485 243.192 27.6145C306.895 41.0523 346.702 121.514 341.556 166.214C332.352 160.122 325.908 160.958 322.279 171.207C319.266 179.707 319.002 189.417 318.936 198.599C318.914 202.217 321.927 207.099 325.039 209.134C328.008 211.069 332.901 210.046 339.213 210.475C335.255 215.644 332.561 221.252 328.151 224.584C286.826 255.781 240.069 276.542 191.915 294.521C188.584 295.764 185.12 296.655 181.722 297.71C181.568 297.314 181.414 296.93 181.26 296.534C186.681 293.928 192.102 291.321 197.513 288.704C197.348 288.396 197.194 288.099 197.029 287.792C194.423 288.099 191.806 288.418 188.595 288.803C194.753 282.579 200.35 276.938 205.925 271.308C205.276 270.945 203.979 270.219 202.439 269.361C206.079 268.295 209.147 267.404 211.797 266.623C201.438 263.698 191.091 260.784 180.215 257.716C178.654 260.817 176.388 264.468 174.915 268.405C161.785 303.33 135.448 321.947 100.007 329.457C95.5312 330.403 91.1216 331.613 86.6571 332.613C83.5011 333.317 80.3121 333.889 77.0791 334.527C81.6317 351.868 81.9506 352.198 92.0014 350.318C90.8907 346.062 89.7801 341.817 88.6034 337.32C101.887 333.779 94.8605 350.241 104.141 351.208C102.745 345.666 101.513 340.795 100.106 335.263C105.626 333.922 110.849 332.646 116.48 331.283C118.569 337.364 120.515 343.038 122.671 349.317C126.574 348.459 130.038 347.7 133.931 346.843C132.095 340.377 130.445 334.571 128.708 328.457ZM212.556 156.306C184.515 156.197 161.653 178.827 161.631 206.703C161.609 234.459 184.713 257.595 212.38 257.529C239.783 257.463 262.436 234.843 262.656 207.33C262.898 179.113 240.619 156.416 212.556 156.306ZM257.356 369.429C217.933 384.341 163.72 443.205 162.544 474.875C175.465 456.445 188.397 438.015 202.01 418.606C199.778 426.369 197.854 433.033 195.577 440.973C208.476 433.737 219.473 427.194 230.821 421.333C238.376 417.429 247.316 415.747 254.101 410.919C278.458 393.589 302.155 375.335 324.412 358.708C300.088 366.812 276.632 382.185 252.748 396.701C252.297 396.008 251.857 395.315 251.406 394.622C265.955 383.043 280.492 371.464 295.041 359.896C294.502 359.082 293.963 358.268 293.424 357.465C270.265 372.113 247.118 386.76 223.959 401.407C223.684 401.154 223.398 400.912 223.124 400.659C234.197 390.554 245.27 380.448 257.356 369.429ZM30.7839 120.48C33.511 115.202 36.0182 110.011 38.8113 104.975C44.3866 94.9131 44.4525 94.9461 40.5268 91.5701C0.345613 139.922 0.268643 250.612 41.9233 283.602C19.4025 244.047 10.8803 203.613 18.5338 161.805C21.4919 165.412 24.7688 172.504 27.8808 172.438C32.0925 172.339 37.7007 167.556 39.988 163.322C44.3536 155.207 46.7838 146.058 49.9618 137.502C58.0992 142.264 62.4538 140.428 64.807 130.014C65.4668 127.111 66.3026 123.515 65.2029 121.096C63.1026 116.488 59.6607 112.496 56.7686 108.252C53.7116 111.925 50.6436 115.586 47.5975 119.259C47.2347 119.699 46.9487 120.216 48.1584 118.413C41.4835 119.193 36.645 119.776 30.7839 120.48ZM360.899 184.468C358.512 199.369 349.847 213.389 359.821 227.839C363.043 232.512 365.539 238.186 366.573 243.729C367.408 248.248 367.167 254.549 364.571 257.782C360.063 263.379 356.643 268.064 360.239 275.245C361.305 277.378 361.778 279.808 362.944 281.875C366.507 288.231 367.958 294.301 361.877 300.097C360.294 301.614 359.095 303.538 357.786 305.199C367.013 306.914 375.568 308.509 384.31 310.136C388.676 307.629 393.822 304.66 400.134 301.042C398.078 297.886 396.461 293.081 393.118 290.684C378.284 280.039 375.48 265.733 377.404 248.688C379.604 229.235 376.525 210.321 367.057 192.848C365.407 189.846 362.966 187.262 360.899 184.468ZM116.348 380.195C120.559 377.655 122.627 375.533 124.991 375.126C133.095 373.74 141.519 373.839 149.425 371.805C180.347 363.832 211.115 355.266 241.938 346.92C244.952 349.152 249.02 351.098 252.143 350.087C254.332 349.372 255.2 344.621 256.817 341.355C284.077 328.017 312.503 314.084 340.984 300.251C342.237 299.635 344.514 299.305 345.382 299.998C351.727 305.089 354.762 299.536 358.204 296.094C362.438 291.86 361.239 288.121 356.742 285.031C347.549 291.057 339.268 298.172 329.701 302.45C294.986 317.988 260.336 333.867 224.74 347.14C190.519 359.895 155.341 370.419 118.217 371.475C116.502 371.519 113.236 374.378 113.445 375.038C114.291 377.71 116.227 380.019 116.348 380.195ZM91.5725 133.731C85.7114 142.957 80.1141 151.083 75.3857 159.682C74.0111 162.179 73.9011 166.841 75.3637 169.161C83.3251 181.928 78.2777 192.144 70.2173 202.217C67.941 205.054 66.2036 208.331 64.3342 211.476C54.6023 227.762 56.6256 234.623 73.0324 243.773C75.2977 245.037 78.1898 249.667 77.486 251.041C72.7795 260.256 76.9801 265.854 82.1045 268.724C82.7203 274.992 81.5657 280.886 83.798 282.777C90.6488 288.594 96.3999 294.191 94.1677 304.484C99.0501 294.51 98.7972 294.708 92.8371 287.055C90.5608 284.141 87.6578 279.368 88.6254 276.762C90.5058 271.693 90.2419 269.339 85.5904 266.348C83.644 265.095 82.2145 260.256 83.0502 257.958C86.998 247.072 85.2055 242.288 74.4729 238.461C63.9603 234.711 61.9589 230.214 67.3582 220.515C72.0977 211.993 77.409 203.789 82.6653 195.553C86.3822 189.725 87.7127 184.403 83.3471 177.926C77.9918 169.986 77.9918 162.124 86.3272 155.372C92.9471 149.995 93.4309 142.649 91.5725 133.731ZM352.97 270.373C276.379 315.294 194.588 344.193 106.847 360.357C108.892 362.711 110.289 364.327 110.794 364.91C114.698 362.953 117.249 360.995 120.086 360.357C133.744 357.333 147.677 355.365 161.158 351.736C186.043 345.039 210.675 337.441 235.418 330.216C235.132 330.964 234.846 331.712 234.56 332.459C237.562 333.449 241.345 336.033 243.379 335.032C246.106 333.702 247.481 329.6 250.571 325.015C275.5 313.072 302.881 299.855 330.405 286.934C332.649 285.878 335.904 286.351 338.554 286.857C347.131 288.506 355.301 279.687 352.97 270.373ZM40.6038 79.353C80.9719 112.705 120.801 145.618 160.718 178.596C161.059 177.827 161.917 176.463 161.708 176.276C135.657 152.92 109.541 129.64 83.0172 106.009C83.809 104.458 84.9416 102.259 86.0742 100.07C85.6014 99.4656 85.1286 98.8718 84.6557 98.267C82.9513 99.1247 81.2908 100.147 79.5093 100.796C78.2777 101.247 76.7382 101.566 75.5616 101.203C74.8908 101.005 74.0111 98.9158 74.341 98.388C76.1004 95.5839 79.3114 92.4389 74.1101 90.6464C71.8668 89.8767 68.6228 92.043 65.06 93.1096C62.9046 91.3502 60.1115 89.0739 57.1865 86.6987C58.649 84.3674 59.8806 82.4211 61.0352 80.5627C49.6429 69.4562 48.6422 69.3902 40.6038 79.353ZM66.0276 324.278C67.3692 325.246 68.018 326.004 68.8098 326.213C69.9534 326.521 71.207 326.587 72.3946 326.477C97.7305 324.344 120.856 315.415 142.871 303.22C144.4 302.373 145.895 301.009 146.775 299.503C155.231 285.097 163.687 270.681 171.77 256.067C172.848 254.12 171.913 251.063 171.913 248.512C171.088 248.49 170.263 248.479 169.439 248.457C166.074 254.89 162.225 261.125 159.421 267.811C148.094 294.796 126.761 309.092 99.413 315.987C88.6254 318.725 77.7939 321.364 66.0276 324.278ZM344.14 84.1475C345.097 84.6313 348.044 85.1262 349.143 86.8197C360.294 103.886 371.202 121.118 381.957 138.437C382.968 140.065 382.397 142.671 382.573 144.815C381.858 144.991 381.143 145.167 380.428 145.343C373.314 135.93 366.199 126.506 359.084 117.093C358.644 117.401 358.204 117.709 357.764 118.017C363.846 128.716 369.938 139.427 376.03 150.148C373.445 152.898 371.301 155.185 369.157 157.472C369.498 157.857 369.839 158.242 370.191 158.627C376.909 153.766 383.639 148.906 390.655 143.825C377.844 123.933 365.825 104.557 352.959 85.764C349.44 80.6176 343.337 77.2417 338.422 73.052C337.938 73.6788 337.454 74.3056 336.959 74.9435C339.037 77.6046 341.105 80.2547 344.14 84.1475ZM413.275 370.947C413.803 371.75 414.341 372.552 414.869 373.366C423.941 371.695 425.91 360.588 433.959 357.069C439.106 370.87 438.314 386.441 446.605 399.175C444.417 382.251 441.085 365.636 437.511 349.075C437.192 347.579 435.543 345.952 434.091 345.182C421.566 338.628 408.931 332.261 396.34 325.839C396.098 326.268 395.845 326.686 395.603 327.115C407.304 334.758 419.004 342.389 431.089 350.285C424.7 357.685 418.982 364.316 413.275 370.947ZM353.058 315.481C358.27 317.449 361.657 318.351 364.637 319.978C366.76 321.133 369.432 322.969 370.004 325.015C374.171 339.992 375.15 341.07 392.678 344.105C388.544 340.916 385.575 338.925 382.968 336.528C380.868 334.604 378.196 332.459 377.525 329.952C373.336 314.26 372.06 313.248 353.058 315.481ZM181.92 394.567C181.623 394.073 181.337 393.567 181.04 393.072C170.428 396.349 159.817 399.626 147.457 403.431C152.559 404.002 155.814 404.365 159.509 404.783C159.124 407.048 158.794 408.962 158.365 411.458C166.591 405.553 174.255 400.066 181.92 394.567ZM431.705 334.736C433.464 324.234 425.602 316.866 409.118 312.589C415.782 319.11 423.611 326.796 431.705 334.736ZM360.745 334.329C354.059 327.445 347.131 327.313 334.419 334.329C343.975 334.329 352.134 334.329 360.745 334.329ZM343.216 341.091C350.727 351.582 358.831 354.232 368.024 349.812C359.942 346.964 352.09 344.203 343.216 341.091ZM335.64 144.397C332.747 141.274 330.669 139.042 328.602 136.81C327.183 139.042 324.39 141.483 324.665 143.474C325.05 146.212 327.777 148.62 329.493 151.171C331.274 149.214 333.055 147.256 335.64 144.397ZM98.6103 230.423C97.7745 231.006 96.9388 231.588 96.103 232.171C100.963 238.78 105.835 245.389 110.695 251.998C111.542 251.393 112.389 250.799 113.236 250.195C108.364 243.608 103.482 237.021 98.6103 230.423Z"/>
</mask>
<path d="M453.797 418.694C451.059 415.527 448.354 412.338 445.582 409.215C429.165 390.752 411.867 373.091 385.773 369.946C352.387 365.922 319.959 370.496 292.247 390.422C269.716 406.631 246.656 421.586 222.618 435.452C189.584 454.509 163.468 481.396 143.102 514C140.265 504.906 142.618 491.93 152.482 466.946C158.365 452.024 165.15 437.465 171.528 422.74C170.802 422.301 170.076 421.861 169.34 421.41C161.477 434.716 153.615 448.01 144.62 463.241C145.268 458.567 145.521 455.609 146.126 452.728C146.742 449.792 147.699 446.933 147.424 443.26C139.121 452.596 130.819 461.932 122.956 470.784C125.442 454.553 128.048 437.454 130.654 420.365C129.763 420.101 128.873 419.848 127.982 419.584C124.122 432.714 120.251 445.844 116.392 458.985C115.721 458.963 115.061 458.941 114.39 458.919C111.52 447.098 108.639 435.276 105.263 421.355C100.535 428.69 96.4329 435.068 92.5842 441.05C89.5931 425.984 96.5759 412.316 120.284 388.069C111.3 385.968 107.814 380.778 107.001 371.387C106.605 366.845 103.273 359.478 93.9807 359.852C78.5197 360.467 76.6283 357.982 70.9101 343.236C69.3046 339.101 65.4448 335.857 62.6957 332.14C60.7383 329.49 57.3294 326.752 57.3184 324.058C57.3074 316.701 52.7659 312.611 48.4553 307.926C-4.38287 250.502 -13.2021 164.323 26.5503 97.1234C29.1674 92.6918 30.553 87.2375 31.3447 82.0802C32.7853 72.6232 41.9123 64.1009 51.2484 63.727C54.0415 63.6171 57.5603 62.3415 59.4078 60.3511C129.642 -14.9199 236.957 -17.537 310.667 53.8082C316.583 59.5264 325.908 62.6934 334.221 64.7497C348.571 68.2906 357.962 76.1861 365.176 89.019C374.732 106.009 386.069 121.997 396.659 138.415C399.012 142.055 398.375 145.079 397.649 149.555C396.241 158.253 390.182 167.028 397.803 177.156C410.35 193.838 414.33 213.862 411.526 234.525C409.371 250.425 412.593 262.819 426.229 272.902C439.567 282.777 441.349 297.018 436.807 312.556C435.851 315.822 436.994 319.747 437.346 323.343C437.467 324.509 438.49 325.608 438.534 326.763C439.051 341.135 446.627 353.748 448.453 367.912C450.311 382.394 454.149 396.613 456.953 410.974C457.404 413.261 457.019 415.703 457.019 418.078C455.952 418.276 454.874 418.485 453.797 418.694ZM128.708 328.457C152.064 320.121 175.146 311.885 198.227 303.637C198.37 303.945 198.513 304.253 198.656 304.561C196.237 306.288 193.807 308.014 189.672 310.961C194.115 310.158 196.556 309.719 200.581 308.993C196.897 311.709 194.555 313.435 190.211 316.635C195.577 315.261 198.403 314.535 203.363 313.259C199.47 316.129 197.381 317.669 194.632 319.692C197.425 319.956 199.129 320.121 201.394 320.33C199.151 321.98 197.414 323.255 195.28 324.806C198.7 326.004 201.834 328.347 204.012 327.654C216.779 323.629 229.326 318.901 241.938 314.359C242.213 314.26 242.301 313.644 242.752 312.655C239.86 313.105 237.452 313.479 232.394 314.271C239.134 310.906 243.39 308.773 247.646 306.651C247.415 306.178 247.195 305.716 246.964 305.243C242.334 306.365 237.705 307.475 233.086 308.597C232.965 308.289 232.844 307.981 232.734 307.673C236.836 305.463 240.938 303.264 245.028 301.053C244.908 300.69 244.776 300.328 244.655 299.965C239.772 301.031 234.901 302.109 230.018 303.176C229.93 302.879 229.831 302.582 229.743 302.285C234.076 300.086 238.409 297.886 242.741 295.687C242.554 295.258 242.367 294.829 242.18 294.411C237.463 295.5 232.734 296.578 228.017 297.666C227.929 297.314 227.83 296.952 227.742 296.6C232.02 294.433 236.308 292.278 240.586 290.112C240.465 289.727 240.333 289.353 240.212 288.968C235.363 290.046 230.524 291.123 225.675 292.201C265.24 271.913 305.63 253.439 342.018 225.002C346.361 236.526 350.254 246.841 354.246 257.441C359.326 254.527 361.558 250.425 358.325 243.212C351.859 228.828 345.536 215.666 348.231 197.631C358.204 130.872 334.397 76.1531 278.667 38.4571C222.871 0.706131 163.698 0.387238 104.779 33.0578C88.1966 42.2509 74.1431 54.7759 62.3988 69.6101C99.6439 100.906 136.251 131.674 173.254 162.761C187.88 151.105 204.693 145.453 223.992 149.511C237.111 152.271 250.186 155.295 263.371 157.758C266.219 158.297 271.178 157.989 272.19 156.295C278.821 145.211 287.409 134.258 290.114 122.096C295.293 98.8388 286.859 78.0335 271.717 59.4824C276.017 63.3421 280.316 67.2019 284.627 71.0727C285.056 70.6438 285.485 70.204 285.913 69.7751C279.03 62.4844 272.146 55.1937 265.251 47.9031C265.449 47.5842 265.658 47.2653 265.856 46.9464C272.795 51.7518 279.722 56.5463 286.661 61.3518C287.244 60.4721 287.827 59.5813 288.41 58.7016C272.74 47.9251 257.059 37.1485 243.192 27.6145C306.895 41.0523 346.702 121.514 341.556 166.214C332.352 160.122 325.908 160.958 322.279 171.207C319.266 179.707 319.002 189.417 318.936 198.599C318.914 202.217 321.927 207.099 325.039 209.134C328.008 211.069 332.901 210.046 339.213 210.475C335.255 215.644 332.561 221.252 328.151 224.584C286.826 255.781 240.069 276.542 191.915 294.521C188.584 295.764 185.12 296.655 181.722 297.71C181.568 297.314 181.414 296.93 181.26 296.534C186.681 293.928 192.102 291.321 197.513 288.704C197.348 288.396 197.194 288.099 197.029 287.792C194.423 288.099 191.806 288.418 188.595 288.803C194.753 282.579 200.35 276.938 205.925 271.308C205.276 270.945 203.979 270.219 202.439 269.361C206.079 268.295 209.147 267.404 211.797 266.623C201.438 263.698 191.091 260.784 180.215 257.716C178.654 260.817 176.388 264.468 174.915 268.405C161.785 303.33 135.448 321.947 100.007 329.457C95.5312 330.403 91.1216 331.613 86.6571 332.613C83.5011 333.317 80.3121 333.889 77.0791 334.527C81.6317 351.868 81.9506 352.198 92.0014 350.318C90.8907 346.062 89.7801 341.817 88.6034 337.32C101.887 333.779 94.8605 350.241 104.141 351.208C102.745 345.666 101.513 340.795 100.106 335.263C105.626 333.922 110.849 332.646 116.48 331.283C118.569 337.364 120.515 343.038 122.671 349.317C126.574 348.459 130.038 347.7 133.931 346.843C132.095 340.377 130.445 334.571 128.708 328.457ZM212.556 156.306C184.515 156.197 161.653 178.827 161.631 206.703C161.609 234.459 184.713 257.595 212.38 257.529C239.783 257.463 262.436 234.843 262.656 207.33C262.898 179.113 240.619 156.416 212.556 156.306ZM257.356 369.429C217.933 384.341 163.72 443.205 162.544 474.875C175.465 456.445 188.397 438.015 202.01 418.606C199.778 426.369 197.854 433.033 195.577 440.973C208.476 433.737 219.473 427.194 230.821 421.333C238.376 417.429 247.316 415.747 254.101 410.919C278.458 393.589 302.155 375.335 324.412 358.708C300.088 366.812 276.632 382.185 252.748 396.701C252.297 396.008 251.857 395.315 251.406 394.622C265.955 383.043 280.492 371.464 295.041 359.896C294.502 359.082 293.963 358.268 293.424 357.465C270.265 372.113 247.118 386.76 223.959 401.407C223.684 401.154 223.398 400.912 223.124 400.659C234.197 390.554 245.27 380.448 257.356 369.429ZM30.7839 120.48C33.511 115.202 36.0182 110.011 38.8113 104.975C44.3866 94.9131 44.4525 94.9461 40.5268 91.5701C0.345613 139.922 0.268643 250.612 41.9233 283.602C19.4025 244.047 10.8803 203.613 18.5338 161.805C21.4919 165.412 24.7688 172.504 27.8808 172.438C32.0925 172.339 37.7007 167.556 39.988 163.322C44.3536 155.207 46.7838 146.058 49.9618 137.502C58.0992 142.264 62.4538 140.428 64.807 130.014C65.4668 127.111 66.3026 123.515 65.2029 121.096C63.1026 116.488 59.6607 112.496 56.7686 108.252C53.7116 111.925 50.6436 115.586 47.5975 119.259C47.2347 119.699 46.9487 120.216 48.1584 118.413C41.4835 119.193 36.645 119.776 30.7839 120.48ZM360.899 184.468C358.512 199.369 349.847 213.389 359.821 227.839C363.043 232.512 365.539 238.186 366.573 243.729C367.408 248.248 367.167 254.549 364.571 257.782C360.063 263.379 356.643 268.064 360.239 275.245C361.305 277.378 361.778 279.808 362.944 281.875C366.507 288.231 367.958 294.301 361.877 300.097C360.294 301.614 359.095 303.538 357.786 305.199C367.013 306.914 375.568 308.509 384.31 310.136C388.676 307.629 393.822 304.66 400.134 301.042C398.078 297.886 396.461 293.081 393.118 290.684C378.284 280.039 375.48 265.733 377.404 248.688C379.604 229.235 376.525 210.321 367.057 192.848C365.407 189.846 362.966 187.262 360.899 184.468ZM116.348 380.195C120.559 377.655 122.627 375.533 124.991 375.126C133.095 373.74 141.519 373.839 149.425 371.805C180.347 363.832 211.115 355.266 241.938 346.92C244.952 349.152 249.02 351.098 252.143 350.087C254.332 349.372 255.2 344.621 256.817 341.355C284.077 328.017 312.503 314.084 340.984 300.251C342.237 299.635 344.514 299.305 345.382 299.998C351.727 305.089 354.762 299.536 358.204 296.094C362.438 291.86 361.239 288.121 356.742 285.031C347.549 291.057 339.268 298.172 329.701 302.45C294.986 317.988 260.336 333.867 224.74 347.14C190.519 359.895 155.341 370.419 118.217 371.475C116.502 371.519 113.236 374.378 113.445 375.038C114.291 377.71 116.227 380.019 116.348 380.195ZM91.5725 133.731C85.7114 142.957 80.1141 151.083 75.3857 159.682C74.0111 162.179 73.9011 166.841 75.3637 169.161C83.3251 181.928 78.2777 192.144 70.2173 202.217C67.941 205.054 66.2036 208.331 64.3342 211.476C54.6023 227.762 56.6256 234.623 73.0324 243.773C75.2977 245.037 78.1898 249.667 77.486 251.041C72.7795 260.256 76.9801 265.854 82.1045 268.724C82.7203 274.992 81.5657 280.886 83.798 282.777C90.6488 288.594 96.3999 294.191 94.1677 304.484C99.0501 294.51 98.7972 294.708 92.8371 287.055C90.5608 284.141 87.6578 279.368 88.6254 276.762C90.5058 271.693 90.2419 269.339 85.5904 266.348C83.644 265.095 82.2145 260.256 83.0502 257.958C86.998 247.072 85.2055 242.288 74.4729 238.461C63.9603 234.711 61.9589 230.214 67.3582 220.515C72.0977 211.993 77.409 203.789 82.6653 195.553C86.3822 189.725 87.7127 184.403 83.3471 177.926C77.9918 169.986 77.9918 162.124 86.3272 155.372C92.9471 149.995 93.4309 142.649 91.5725 133.731ZM352.97 270.373C276.379 315.294 194.588 344.193 106.847 360.357C108.892 362.711 110.289 364.327 110.794 364.91C114.698 362.953 117.249 360.995 120.086 360.357C133.744 357.333 147.677 355.365 161.158 351.736C186.043 345.039 210.675 337.441 235.418 330.216C235.132 330.964 234.846 331.712 234.56 332.459C237.562 333.449 241.345 336.033 243.379 335.032C246.106 333.702 247.481 329.6 250.571 325.015C275.5 313.072 302.881 299.855 330.405 286.934C332.649 285.878 335.904 286.351 338.554 286.857C347.131 288.506 355.301 279.687 352.97 270.373ZM40.6038 79.353C80.9719 112.705 120.801 145.618 160.718 178.596C161.059 177.827 161.917 176.463 161.708 176.276C135.657 152.92 109.541 129.64 83.0172 106.009C83.809 104.458 84.9416 102.259 86.0742 100.07C85.6014 99.4656 85.1286 98.8718 84.6557 98.267C82.9513 99.1247 81.2908 100.147 79.5093 100.796C78.2777 101.247 76.7382 101.566 75.5616 101.203C74.8908 101.005 74.0111 98.9158 74.341 98.388C76.1004 95.5839 79.3114 92.4389 74.1101 90.6464C71.8668 89.8767 68.6228 92.043 65.06 93.1096C62.9046 91.3502 60.1115 89.0739 57.1865 86.6987C58.649 84.3674 59.8806 82.4211 61.0352 80.5627C49.6429 69.4562 48.6422 69.3902 40.6038 79.353ZM66.0276 324.278C67.3692 325.246 68.018 326.004 68.8098 326.213C69.9534 326.521 71.207 326.587 72.3946 326.477C97.7305 324.344 120.856 315.415 142.871 303.22C144.4 302.373 145.895 301.009 146.775 299.503C155.231 285.097 163.687 270.681 171.77 256.067C172.848 254.12 171.913 251.063 171.913 248.512C171.088 248.49 170.263 248.479 169.439 248.457C166.074 254.89 162.225 261.125 159.421 267.811C148.094 294.796 126.761 309.092 99.413 315.987C88.6254 318.725 77.7939 321.364 66.0276 324.278ZM344.14 84.1475C345.097 84.6313 348.044 85.1262 349.143 86.8197C360.294 103.886 371.202 121.118 381.957 138.437C382.968 140.065 382.397 142.671 382.573 144.815C381.858 144.991 381.143 145.167 380.428 145.343C373.314 135.93 366.199 126.506 359.084 117.093C358.644 117.401 358.204 117.709 357.764 118.017C363.846 128.716 369.938 139.427 376.03 150.148C373.445 152.898 371.301 155.185 369.157 157.472C369.498 157.857 369.839 158.242 370.191 158.627C376.909 153.766 383.639 148.906 390.655 143.825C377.844 123.933 365.825 104.557 352.959 85.764C349.44 80.6176 343.337 77.2417 338.422 73.052C337.938 73.6788 337.454 74.3056 336.959 74.9435C339.037 77.6046 341.105 80.2547 344.14 84.1475ZM413.275 370.947C413.803 371.75 414.341 372.552 414.869 373.366C423.941 371.695 425.91 360.588 433.959 357.069C439.106 370.87 438.314 386.441 446.605 399.175C444.417 382.251 441.085 365.636 437.511 349.075C437.192 347.579 435.543 345.952 434.091 345.182C421.566 338.628 408.931 332.261 396.34 325.839C396.098 326.268 395.845 326.686 395.603 327.115C407.304 334.758 419.004 342.389 431.089 350.285C424.7 357.685 418.982 364.316 413.275 370.947ZM353.058 315.481C358.27 317.449 361.657 318.351 364.637 319.978C366.76 321.133 369.432 322.969 370.004 325.015C374.171 339.992 375.15 341.07 392.678 344.105C388.544 340.916 385.575 338.925 382.968 336.528C380.868 334.604 378.196 332.459 377.525 329.952C373.336 314.26 372.06 313.248 353.058 315.481ZM181.92 394.567C181.623 394.073 181.337 393.567 181.04 393.072C170.428 396.349 159.817 399.626 147.457 403.431C152.559 404.002 155.814 404.365 159.509 404.783C159.124 407.048 158.794 408.962 158.365 411.458C166.591 405.553 174.255 400.066 181.92 394.567ZM431.705 334.736C433.464 324.234 425.602 316.866 409.118 312.589C415.782 319.11 423.611 326.796 431.705 334.736ZM360.745 334.329C354.059 327.445 347.131 327.313 334.419 334.329C343.975 334.329 352.134 334.329 360.745 334.329ZM343.216 341.091C350.727 351.582 358.831 354.232 368.024 349.812C359.942 346.964 352.09 344.203 343.216 341.091ZM335.64 144.397C332.747 141.274 330.669 139.042 328.602 136.81C327.183 139.042 324.39 141.483 324.665 143.474C325.05 146.212 327.777 148.62 329.493 151.171C331.274 149.214 333.055 147.256 335.64 144.397ZM98.6103 230.423C97.7745 231.006 96.9388 231.588 96.103 232.171C100.963 238.78 105.835 245.389 110.695 251.998C111.542 251.393 112.389 250.799 113.236 250.195C108.364 243.608 103.482 237.021 98.6103 230.423Z" stroke="url(#paint0_linear_126_219)" stroke-width="3.6" mask="url(#path-1-outside-1_126_219)"/>
<path d="M268.82 79.453L269.699 80.7674C271.039 82.7712 272.326 84.502 273.526 86.1155C274.106 86.8945 274.665 87.6461 275.2 88.3879C276.822 90.6382 278.199 92.7704 279.046 95.1265L279.046 95.1274C284.573 110.547 283.577 125.614 272.898 138.924M268.82 79.453L272.195 138.361M268.82 79.453L268.139 80.8796C267.301 82.6326 266.605 83.928 266.044 84.9712C265.86 85.313 265.691 85.6277 265.536 85.9226C264.928 87.0796 264.488 88.0199 264.424 89.037M268.82 79.453L265.322 89.0971M272.898 138.924C272.897 138.924 272.897 138.924 272.897 138.925L272.195 138.361M272.898 138.924C272.898 138.924 272.898 138.924 272.898 138.924L272.195 138.361M272.898 138.924C272.06 139.97 270.748 140.775 269.4 141.298C268.045 141.823 266.543 142.107 265.25 142.019L265.249 142.019C264.874 141.993 264.561 141.823 264.334 141.655C264.099 141.481 263.884 141.26 263.694 141.026C263.313 140.558 262.953 139.949 262.647 139.306C262.048 138.047 261.555 136.442 261.608 135.21L261.608 135.209C262.301 119.803 263.324 104.411 264.424 89.037M272.195 138.361C270.787 140.121 267.576 141.275 265.311 141.121C264.2 141.044 262.419 137.284 262.507 135.249C263.2 119.854 264.222 104.47 265.322 89.0971M264.424 89.037C264.424 89.0386 264.424 89.0401 264.424 89.0417L265.322 89.0971M264.424 89.037C264.424 89.0356 264.424 89.0342 264.424 89.0329L265.322 89.0971M268.951 81.2676C269.146 81.56 269.341 81.8471 269.535 82.1292C269.61 81.9749 269.686 81.817 269.763 81.6556L268.951 81.2676ZM268.951 81.2676C268.795 81.5946 268.643 81.9063 268.496 82.2037C268.399 82.0596 268.301 81.9143 268.203 81.7678L268.951 81.2676Z" stroke="url(#paint1_linear_126_219)" stroke-width="1.8"/>
<path d="M79.4363 65.7715L80.6604 67.0743C111.766 44.055 146.263 29.3967 184.252 22.7346L184.156 20.95C141.584 18.1488 106.68 33.3912 79.4363 65.7715Z" stroke="url(#paint2_linear_126_219)" stroke-width="1.8"/>
<path d="M93.5644 67.1863L94.5874 68.6382C115.789 58.3784 135.89 48.6464 156.663 38.5735L156.165 36.8698C131.558 39.7641 111.241 49.8091 93.5644 67.1863Z" stroke="url(#paint3_linear_126_219)" stroke-width="1.8"/>
<path d="M186.924 239.694L187.783 238.903C193.319 233.809 198.759 228.804 204.138 223.855C213.378 215.354 222.438 207.019 231.494 198.678C231.908 198.296 232.345 197.933 232.77 197.586C232.848 197.522 232.926 197.458 233.003 197.395C233.35 197.112 233.685 196.839 234.01 196.558C234.805 195.87 235.453 195.205 235.87 194.459L186.924 239.694ZM186.924 239.694L187.908 240.324M186.924 239.694L187.908 240.324M187.908 240.324C209.051 253.844 233.725 249.277 246.682 230.163C259.199 211.737 255.162 187.143 236.969 174.227L236.375 173.806L235.839 174.298C229.469 180.147 223.088 186.007 216.687 191.884C203.617 203.885 190.467 215.961 177.172 228.17L176.51 228.778L177.118 229.441C179.185 231.695 180.724 233.377 182.703 235.543L183.31 236.207M187.908 240.324L183.31 236.207M183.31 236.207L183.974 235.601M183.31 236.207L183.974 235.601M183.974 235.601C196.521 224.153 208.662 213.069 220.791 201.984C222.016 200.865 223.221 199.738 224.421 198.615C227.23 195.989 230.012 193.387 232.968 190.967C233.265 190.729 233.787 190.6 234.633 190.549C234.929 190.532 235.227 190.524 235.544 190.517C235.664 190.514 235.787 190.511 235.914 190.507C236.021 190.504 236.129 190.501 236.239 190.496M183.974 235.601L236.239 190.496M236.239 190.496C236.24 190.646 236.242 190.795 236.245 190.942C236.248 191.055 236.25 191.166 236.253 191.276C236.261 191.643 236.269 191.992 236.265 192.339C236.254 193.251 236.156 193.947 235.87 194.459L236.239 190.496Z" stroke="url(#paint4_linear_126_219)" stroke-width="1.8"/>
<path d="M225.824 169.636L226.978 168.578L225.483 168.113L225.403 168.089C223.412 167.469 221.687 166.932 219.68 167.219C217.65 167.509 215.45 168.616 212.355 170.95C206.177 175.608 195.963 185.533 175.721 205.231C174.514 206.401 173.697 207.904 173.011 209.393C172.74 209.981 172.495 210.552 172.256 211.11C171.862 212.028 171.484 212.911 171.031 213.772L170.638 214.52L171.361 214.959C172.173 215.453 172.996 215.958 173.821 216.464L174.399 216.819L174.9 216.36C183.243 208.707 191.58 201.056 199.949 193.377C208.528 185.505 217.139 177.603 225.824 169.636Z" stroke="url(#paint5_linear_126_219)" stroke-width="1.8"/>
<path d="M212.383 168.447L212.871 168L212.589 167.401C212.37 166.933 212.156 166.468 211.939 165.997C211.821 165.74 211.702 165.48 211.58 165.218L211.27 164.547L210.552 164.721C206.916 165.599 203.275 166.472 199.529 167.369C197.929 167.753 196.31 168.141 194.663 168.536L193.899 168.72L193.978 169.502C194.424 173.938 193.905 177.532 192.324 180.199C190.764 182.833 188.09 184.694 183.931 185.53C179.113 186.494 175.859 187.632 174.029 190.363C173.121 191.72 172.613 193.395 172.368 195.472C172.122 197.544 172.132 200.073 172.3 203.176L172.404 205.075L173.807 203.791C187.025 191.694 199.704 180.071 212.383 168.447Z" stroke="url(#paint6_linear_126_219)" stroke-width="1.8"/>
<defs>
<linearGradient id="paint0_linear_126_219" x1="229.5" y1="2.04492" x2="229.5" y2="514" gradientUnits="userSpaceOnUse">
<stop offset="0.776042" stop-color="white"/>
<stop offset="1" stop-color="#ED9A3F"/>
</linearGradient>
<linearGradient id="paint1_linear_126_219" x1="271.977" y1="81.2676" x2="271.977" y2="141.135" gradientUnits="userSpaceOnUse">
<stop offset="0.776042" stop-color="white"/>
<stop offset="1" stop-color="#ED9A3F"/>
</linearGradient>
<linearGradient id="paint2_linear_126_219" x1="132.111" y1="21.5234" x2="132.111" y2="66.3509" gradientUnits="userSpaceOnUse">
<stop offset="0.776042" stop-color="white"/>
<stop offset="1" stop-color="#ED9A3F"/>
</linearGradient>
<linearGradient id="paint3_linear_126_219" x1="125.233" y1="37.7637" x2="125.233" y2="67.8281" gradientUnits="userSpaceOnUse">
<stop offset="0.776042" stop-color="white"/>
<stop offset="1" stop-color="#ED9A3F"/>
</linearGradient>
<linearGradient id="paint4_linear_126_219" x1="215.398" y1="174.961" x2="215.398" y2="247.2" gradientUnits="userSpaceOnUse">
<stop offset="0.776042" stop-color="white"/>
<stop offset="1" stop-color="#ED9A3F"/>
</linearGradient>
<linearGradient id="paint5_linear_126_219" x1="198.522" y1="168.039" x2="198.522" y2="215.697" gradientUnits="userSpaceOnUse">
<stop offset="0.776042" stop-color="white"/>
<stop offset="1" stop-color="#ED9A3F"/>
</linearGradient>
<linearGradient id="paint6_linear_126_219" x1="192.426" y1="165.596" x2="192.426" y2="203.127" gradientUnits="userSpaceOnUse">
<stop offset="0.776042" stop-color="white"/>
<stop offset="1" stop-color="#ED9A3F"/>
</linearGradient>
</defs>
</svg>
