<svg width="99" height="157" viewBox="0 0 99 157" fill="none" xmlns="http://www.w3.org/2000/svg">
<path d="M44.1131 88.1819C42.3082 84.7975 37.4661 84.7975 35.6611 88.1819L5.98362 143.833C4.26545 147.043 6.59105 150.934 10.2009 150.934H21.6728C23.1133 138.582 30.7149 129.144 39.8785 129.144C49.042 129.144 56.6436 138.565 58.0841 150.934H69.556C73.1832 150.934 75.4915 147.043 73.7733 143.833L44.1131 88.1819ZM39.8958 120.02C36.095 120.02 33.0231 116.932 33.0231 113.112C33.0231 109.291 36.095 106.203 39.8958 106.203C43.6966 106.203 46.7685 109.291 46.7685 113.112C46.7685 116.932 43.6966 120.02 39.8958 120.02ZM91.4062 79.4766C78.008 92.9445 56.0709 93.433 38.733 81.8841C38.5074 82.1632 38.2818 82.4249 38.0214 82.6691C33.8735 86.8386 27.157 86.8386 23.0265 82.6691C18.8786 78.4996 18.8786 71.7482 23.0265 67.5961C23.2695 67.3519 23.5471 67.1077 23.8075 66.8809C12.3356 49.4528 12.8216 27.4016 26.2199 13.9336L56.123 43.9923L66.2238 35.0951C65.1477 32.391 65.6857 29.181 67.8725 26.9829C70.7882 24.052 75.5262 24.052 78.4419 26.9829C81.3575 29.9137 81.3575 34.6764 78.4419 37.6072C76.2551 39.8054 73.0617 40.3462 70.3717 39.2646L61.5205 49.4179L91.4062 79.4766Z" stroke="white"/>
<path d="M66.0033 34.9407L55.8467 43.5545L24.4758 1C9.36382 16.2375 8.81572 41.1859 21.7549 60.9039C21.4612 61.1604 21.148 61.4368 20.874 61.7131C16.1955 66.4107 16.1955 74.0492 20.874 78.7665C25.5329 83.4838 33.1084 83.4838 37.7869 78.7665C38.0805 78.4901 38.335 78.1941 38.5895 77.8783C58.145 90.9446 82.888 90.392 98 75.1545L61.6321 49.3399L70.5031 39.4404M44.6578 85.0036C42.622 81.1745 37.1605 81.1745 35.1247 85.0036L1.65122 147.967C-0.286719 151.598 2.33635 156 6.40797 156H19.3471C20.9719 142.026 29.5458 131.348 39.8814 131.348C50.2171 131.348 58.791 142.006 60.4158 156H73.3549C77.4461 156 80.0496 151.598 78.1117 147.967L44.6578 85.0036ZM39.901 121.025C35.6141 121.025 32.1493 117.531 32.1493 113.209C32.1493 108.886 35.6141 105.393 39.901 105.393C44.188 105.393 47.6528 108.886 47.6528 113.209C47.6528 117.531 44.188 121.025 39.901 121.025Z" stroke="white"/>
</svg>
