<svg id="Layer_1" data-name="Layer 1" xmlns="http://www.w3.org/2000/svg" viewBox="0 0 160.85 193.13"><defs><style>.cls-1{fill:none;stroke:#fff;stroke-width:1.8px;}</style></defs><title>scope</title><path class="cls-1" d="M603.94,414.66l.64-.64,1.76-1.76.64-.64Zm0,0a12.46,12.46,0,0,1,3.66,8.87ZM550.3,448.2h.89L575.35,460a4.52,4.52,0,0,0,6.51-4.07V430.55a2.37,2.37,0,0,0,2.25-2.38v-.59l19.81-1.24h0a1.45,1.45,0,0,0,1.15-.71,2.12,2.12,0,0,0,.3-1.11v-1.92a2.12,2.12,0,0,0-.3-1.11,1.45,1.45,0,0,0-1.15-.71h0l-19.81-1.27v-.59a2.37,2.37,0,0,0-2.25-2.38V391.12a4.52,4.52,0,0,0-6.5-4.07h0l-24.15,11.8v0H529.39v-5.27h4A4.56,4.56,0,0,0,538,389h0V332.42a4.56,4.56,0,0,0-4.58-4.58H503.29a4.56,4.56,0,0,0-4.58,4.58h0V389h0a4.56,4.56,0,0,0,4.58,4.58h4v5.27H489.05a3.57,3.57,0,0,0-3.57,3.57h0v2.1h-.22a9.48,9.48,0,0,0-9.5,9.5V433a9.48,9.48,0,0,0,9.5,9.5h.23v2.09h0a3.57,3.57,0,0,0,3.57,3.57h18.25v5.28h-4a4.56,4.56,0,0,0-4.58,4.58h0l0,56.53a4.56,4.56,0,0,0,4.58,4.58h30.11a4.56,4.56,0,0,0,4.58-4.58h0V458.07a4.56,4.56,0,0,0-4.58-4.58h-4v-5.27Zm61.11-17.76h0a17.78,17.78,0,0,0,1.4-6.92,17.48,17.48,0,0,0-1.4-6.89,17.28,17.28,0,0,0-3.79-5.64l-.64-.64-.64.64-3,3-.64.64.64.64a11.56,11.56,0,0,1,3.4,8.24h0a11.51,11.51,0,0,1-3.4,8.23l-.64.64.64.64,3,3,.64.64.64-.64A17.78,17.78,0,0,0,611.41,430.43Zm-.33,9.1-.64.64.64.64,3,3,.64.64.64-.64a28.55,28.55,0,0,0,6.15-9.13h0a28.7,28.7,0,0,0,2.24-11.18,28.53,28.53,0,0,0-8.4-20.32l-.64-.64-.64.64-3,3-.64.64.64.64a22.46,22.46,0,0,1,6.63,16h0A22.42,22.42,0,0,1,611.08,439.53Zm12.09-44.14-.64-.64-.64.64-3,3-.64.64.64.64a33.39,33.39,0,0,1,9.84,23.79h0a33.35,33.35,0,0,1-9.84,23.79l-.64.64.64.64,3,3,.64.64.64-.64A39.81,39.81,0,0,0,631.69,439h0a39.71,39.71,0,0,0-8.52-43.56Zm-99.88-1.86v5.27h-1.88v-5.27Zm-9.87,5.27v-5.27h1.88v5.27Zm0,54.67v-5.28h1.88v5.28Zm9.87,0h-1.88v-5.27h1.88Z" transform="translate(-474.87 -326.94)"/><path class="cls-1" d="M548.54,446.25h.79l21.89,10.69a4.18,4.18,0,0,0,6-3.76V430.24a2.23,2.23,0,0,0,2-2.24v-.46l17.88-1.12h0a1.4,1.4,0,0,0,1.12-.68,2,2,0,0,0,.29-1.05v-1.74a2,2,0,0,0-.29-1.06,1.4,1.4,0,0,0-1.11-.68h0l-17.88-1.15v-.46a2.24,2.24,0,0,0-2-2.24V394.42a4.19,4.19,0,0,0-6-3.77h0l-21.83,10.66H529.66v-4.61h3.56a4.21,4.21,0,0,0,4.23-4.24h0V341.2a4.22,4.22,0,0,0-4.24-4.23h-27.3a4.22,4.22,0,0,0-4.23,4.24h0v51.25h0a4.22,4.22,0,0,0,4.24,4.23h3.56v4.61H493a3.32,3.32,0,0,0-3.32,3.32h0v1.82h-.12a8.68,8.68,0,0,0-8.7,8.7v17.28a8.68,8.68,0,0,0,8.7,8.7h.13v1.81a3.32,3.32,0,0,0,3.32,3.32h16.46v4.62h-3.57a4.22,4.22,0,0,0-4.23,4.24h0l0,51.25h0a4.22,4.22,0,0,0,4.24,4.23h27.3a4.22,4.22,0,0,0,4.23-4.24h0V455.12a4.22,4.22,0,0,0-4.24-4.23h-3.56v-4.61ZM604,430.09h0a16.2,16.2,0,0,0,1.27-6.31,16,16,0,0,0-1.27-6.28,15.75,15.75,0,0,0-3.46-5.14l-.64-.64-.64.64-2.75,2.75-.64.64.64.64a10.39,10.39,0,0,1,3.06,7.41h0a10.35,10.35,0,0,1-3.06,7.4l-.64.64.64.64,2.75,2.75.64.64.64-.64A16.22,16.22,0,0,0,604,430.09Zm-.44,8.16-.64.64.64.64,2.75,2.75.64.64.64-.64a26,26,0,0,0,5.6-8.3h0a26.12,26.12,0,0,0,2-10.17,26,26,0,0,0-7.64-18.48l-.64-.64-.64.64-2.75,2.75-.64.64.64.64a20.28,20.28,0,0,1,6,14.45h0A20.24,20.24,0,0,1,603.58,438.25Zm11.08-40-.64-.64-.64.64L610.64,401l-.64.64.64.64a30.19,30.19,0,0,1,8.9,21.51h0a30.15,30.15,0,0,1-8.89,21.51l-.64.64.64.64,2.75,2.75.64.64.64-.64a36.17,36.17,0,0,0,7.74-11.49h0a36.08,36.08,0,0,0-7.75-39.58ZM524,401.3h-1.53v-4.61H524Zm-8.78,0v-4.61h1.53v4.61Zm0,49.57v-4.62h1.53v4.62Zm8.78-4.6v4.61h-1.53v-4.61Z" transform="translate(-474.87 -326.94)"/></svg>