<svg width="184" height="185" viewBox="0 0 184 185" fill="none" xmlns="http://www.w3.org/2000/svg">
<path d="M140.286 92.6224C140.153 119.199 119.06 140.584 92.8621 140.694C65.4753 140.808 43.7143 119.16 43.8629 91.9509C44.0115 65.4215 66.4488 43.1408 92.5142 43.6474C119.526 44.1696 140.419 65.5903 140.286 92.6224ZM115.827 66.839C115.628 67.8207 115.428 68.8024 115.233 69.7881C111.143 68.9085 106.988 67.0982 102.976 67.3731C97.667 67.7383 91.6189 68.5393 87.5138 71.453C84.7184 73.44 82.8652 79.8839 83.8465 83.4219C85.5199 89.4574 91.2787 89.5909 97.1627 88.6563C99.0941 88.35 103.008 91.358 103.602 93.5177C105.756 101.348 106.89 109.464 108.978 120.491C114.048 115.331 118.587 112.716 119.928 108.95C123.212 99.7338 123.693 89.3671 127.779 80.6299C132.025 71.559 127.591 66.5563 122.481 61.3847C115.253 54.0691 106.644 49.4316 95.4698 51.5088C96.8382 52.5337 98.2027 53.5586 99.27 54.3558C95.5989 57.2969 91.9043 60.2538 88.2097 63.2146C88.5029 64.1884 88.7961 65.1584 89.0893 66.1322C98.8438 59.6648 107.558 61.4672 115.827 66.839ZM60.9088 121.088C62.9966 116.878 65.6316 112.838 67.0704 108.404C69.811 99.9537 65.0257 93.5491 50.8416 85.5267C46.6739 97.2521 50.3607 110.242 60.9088 121.088ZM64.4861 14.1728C73.6737 12.3155 82.7049 7.54834 91.7362 7.54442C101.021 7.53656 110.311 12.1741 121.969 15.4451C105.752 -3.61946 78.9283 -3.57627 64.4861 14.1728ZM15.7958 68.3626C16.218 67.7932 14.3296 65.5039 13.3953 63.7879C2.05345 75.5369 -1.66459 89.693 2.90184 103.967C4.98958 110.485 7.06558 117.44 15.7958 119.16C4.73545 101.681 3.44919 85.0947 15.7958 68.3626ZM117.18 168.052C101.455 179.876 85.6098 181.725 69.3419 169.376C68.3527 168.626 65.8271 169.91 63.1881 170.4C76.6685 184.882 95.4073 187.949 111.554 178.874C114.885 177.001 117.372 173.616 120.245 170.931C119.221 169.968 118.2 169.01 117.18 168.052ZM168.736 63.3246C171.895 73.9348 176.727 83.1038 176.766 92.2965C176.802 101.387 172.001 110.501 168.748 121.539C187.881 107.285 187.623 76.1455 168.736 63.3246ZM110.541 167.192C111.484 166.733 111.335 164.023 111.695 162.358C110.236 162.276 108.317 161.545 107.386 162.209C97.1471 169.517 87.1072 169.006 76.8874 162.186C75.9257 161.545 74.0842 162.229 72.6533 162.299C73.0013 163.964 72.8253 166.627 73.7793 167.125C79.2567 170 84.996 172.36 91.701 175.364C98.0776 172.662 104.431 170.173 110.541 167.192ZM71.4726 22.9178C79.0534 20.8091 85.6528 17.5342 92.2483 17.542C98.9807 17.5499 105.709 20.7856 112.441 22.6037C99.1918 7.27347 79.2645 8.09417 71.4726 22.9178ZM168.294 75.8432C167.094 74.1036 164.435 73.3811 162.453 72.1873C162.672 74.4531 162.23 77.084 163.224 78.9296C168.263 88.2793 168.333 97.256 162.676 106.378C161.656 108.023 161.871 110.442 161.511 112.504C174.296 102.538 176.145 87.2309 168.294 75.8432ZM17.8796 92.3593C17.8053 85.6405 20.8274 78.8864 22.4929 72.1481C8.0078 84.3722 8.03126 100.295 22.9074 112.574C21.105 105.836 17.9539 99.1173 17.8796 92.3593ZM82.5681 24.249C81.1411 25.215 80.7189 27.685 79.8353 29.4599C81.5477 29.5934 83.2562 29.8172 84.9686 29.8486C89.9495 29.9389 94.9303 30.0135 99.9112 29.9703C101.788 29.9546 103.66 29.5934 106.612 29.2753C98.2691 20.8759 89.8674 19.3209 82.5681 24.249ZM155.287 107.768C164.639 95.3201 164.51 87.9141 155.287 77.7202C155.287 88.0869 155.287 96.7534 155.287 107.768ZM30.2379 80.8459C30.2613 80.2412 28.3339 79.5619 27.0789 78.7686C19.936 87.9809 20.3231 96.6277 28.6506 108.243C29.3387 97.3424 29.9212 89.1 30.2379 80.8459ZM77.6381 155.4C87.8344 165.005 96.846 164.97 106.667 155.4C96.5958 155.4 87.8422 155.4 77.6381 155.4Z" stroke="white" stroke-width="1.8"/>
</svg>
