<svg width="433" height="118" viewBox="0 0 433 118" fill="none" xmlns="http://www.w3.org/2000/svg">
<path d="M2.91789 56.3082C2.36995 56.2805 1.82607 56.4158 1.35486 56.6968C0.88366 56.9778 0.506242 57.3921 0.270207 57.8873C0.0341716 58.3826 -0.0499218 58.9367 0.0285742 59.4797C0.10707 60.0227 0.34464 60.5303 0.711275 60.9385C1.07791 61.3466 1.5572 61.6371 2.0887 61.7731C2.6202 61.9092 3.18009 61.8849 3.69776 61.7031C4.21542 61.5214 4.66767 61.1904 4.99744 60.7519C5.32722 60.3134 5.51978 59.7871 5.55079 59.2393C5.58929 58.5018 5.33375 57.779 4.8402 57.2295C4.34665 56.6801 3.65535 56.3488 2.91789 56.3082Z" fill="white"/>
<path d="M35.1642 58.4983C35.0444 60.78 35.8347 63.016 37.3616 64.7158C38.8885 66.4156 41.0273 67.4403 43.3087 67.5651C43.4831 67.5738 43.6435 67.5791 43.8074 67.5791C45.4837 67.5669 47.1199 67.0646 48.5144 66.1342C49.909 65.2039 51.001 63.886 51.656 62.3428C52.311 60.7997 52.5003 59.0986 52.2008 57.4492C51.9012 55.7998 51.1258 54.274 49.97 53.0597C48.8143 51.8454 47.3286 50.9957 45.6959 50.6151C44.0633 50.2345 42.3551 50.3396 40.7815 50.9176C39.2079 51.4957 37.8376 52.5213 36.8396 53.8682C35.8415 55.2151 35.2592 56.8246 35.1642 58.4983Z" fill="white"/>
<path d="M2.91789 56.3082C2.36995 56.2805 1.82607 56.4158 1.35486 56.6968C0.88366 56.9778 0.506242 57.3921 0.270207 57.8873C0.0341716 58.3826 -0.0499218 58.9367 0.0285742 59.4797C0.10707 60.0227 0.34464 60.5303 0.711275 60.9385C1.07791 61.3466 1.5572 61.6371 2.0887 61.7731C2.6202 61.9092 3.18009 61.8849 3.69776 61.7031C4.21542 61.5214 4.66767 61.1904 4.99744 60.7519C5.32722 60.3134 5.51978 59.7871 5.55079 59.2393C5.58929 58.5018 5.33375 57.779 4.8402 57.2295C4.34665 56.6801 3.65535 56.3488 2.91789 56.3082Z" fill="white"/>
<path d="M34.6189 8.65247C34.946 8.48987 35.2377 8.26411 35.4772 7.98829C35.7166 7.71247 35.8992 7.39201 36.0142 7.04533C36.1293 6.69866 36.1746 6.33261 36.1476 5.96834C36.1206 5.60406 36.0218 5.24876 35.8569 4.92284C35.5178 4.26532 34.9328 3.76823 34.2292 3.53967C33.5256 3.31111 32.7602 3.36955 32.0994 3.70228C31.7721 3.86471 31.4803 4.09035 31.2407 4.36615C31.0011 4.64194 30.8185 4.96247 30.7034 5.30921C30.5883 5.65595 30.543 6.02203 30.5701 6.38637C30.5973 6.7507 30.6963 7.10604 30.8614 7.43191C31.2002 8.08977 31.7851 8.58713 32.4889 8.81573C33.1926 9.04433 33.9582 8.98568 34.6189 8.65247Z" fill="white"/>
<path d="M43.3901 23.8484C43.896 23.5977 44.3473 23.2494 44.718 22.8234C45.0886 22.3975 45.3712 21.9023 45.5495 21.3666C45.7278 20.8309 45.7983 20.2651 45.7569 19.702C45.7154 19.1389 45.5629 18.5896 45.3081 18.0857C44.7869 17.0664 43.8839 16.2945 42.7959 15.9382C41.708 15.5818 40.5233 15.67 39.5001 16.1834C38.9939 16.4341 38.5424 16.7825 38.1716 17.2086C37.8009 17.6347 37.5182 18.13 37.3398 18.6659C37.1615 19.2019 37.0911 19.7678 37.1327 20.3311C37.1743 20.8944 37.327 21.4439 37.5821 21.9478C38.1026 22.9678 39.0056 23.7403 40.094 24.0965C41.1823 24.4526 42.3673 24.3634 43.3901 23.8484Z" fill="white"/>
<path d="M13.8678 34.2989C14.6577 34.8134 15.6188 34.9951 16.542 34.8044C17.4652 34.6136 18.2757 34.0659 18.797 33.2805C19.0528 32.8925 19.2293 32.4577 19.3163 32.0012C19.4032 31.5447 19.3989 31.0755 19.3036 30.6207C19.2083 30.1658 19.0239 29.7344 18.761 29.3512C18.498 28.968 18.1619 28.6406 17.7718 28.3879C16.9822 27.8735 16.0213 27.6918 15.0984 27.8825C14.1755 28.0733 13.3653 28.6209 12.8443 29.4062C12.5882 29.794 12.4114 30.2287 12.3242 30.6852C12.237 31.1417 12.2411 31.6109 12.3363 32.0658C12.4314 32.5207 12.6158 32.9523 12.8787 33.3355C13.1415 33.7188 13.4777 34.0462 13.8678 34.2989Z" fill="white"/>
<path d="M19.1183 54.7594C18.2716 54.7167 17.4313 54.9256 16.7032 55.3599C15.9751 55.7942 15.3919 56.4342 15.0271 57.1995C14.6623 57.9648 14.5323 58.8209 14.6534 59.66C14.7745 60.4991 15.1414 61.2835 15.7077 61.9144C16.274 62.5452 17.0144 62.9943 17.8356 63.2049C18.6568 63.4156 19.522 63.3783 20.322 63.0979C21.1221 62.8175 21.8211 62.3065 22.3312 61.6294C22.8412 60.9522 23.1393 60.1391 23.1879 59.2927C23.2483 58.1522 22.8537 57.0343 22.0907 56.1843C21.3277 55.3344 20.2587 54.822 19.1183 54.7594Z" fill="white"/>
<path d="M14.3335 83.5976C13.9176 83.8049 13.5469 84.0924 13.2427 84.4436C12.9385 84.7948 12.7068 85.2028 12.5609 85.644C12.415 86.0851 12.3579 86.5508 12.3928 87.0141C12.4276 87.4775 12.5539 87.9293 12.7642 88.3437C13.1923 89.1828 13.9347 89.8186 14.8297 90.1125C15.7246 90.4065 16.6995 90.3348 17.5417 89.913C17.9576 89.7055 18.3284 89.4178 18.6326 89.0664C18.9369 88.715 19.1686 88.3069 19.3144 87.8656C19.4603 87.4243 19.5174 86.9585 19.4825 86.495C19.4476 86.0315 19.3213 85.5795 19.111 85.1651C18.6829 84.326 17.9404 83.6902 17.0453 83.3965C16.1503 83.1029 15.1754 83.1752 14.3335 83.5976Z" fill="white"/>
<path d="M31.1183 45.8925C32.246 46.6284 33.6188 46.8885 34.9375 46.616C36.2562 46.3436 37.4136 45.5608 38.1573 44.4383C38.5232 43.8844 38.7757 43.2633 38.9003 42.6112C39.0248 41.9591 39.0189 41.2888 38.8829 40.639C38.7468 39.9892 38.4834 39.3729 38.1078 38.8255C37.7322 38.2781 37.2518 37.8104 36.6944 37.4498C35.5672 36.7145 34.1951 36.4545 32.8771 36.7262C31.559 36.9979 30.4017 37.7794 29.6571 38.9005C29.2911 39.4546 29.0384 40.0758 28.9137 40.7281C28.789 41.3804 28.7947 42.0509 28.9305 42.701C29.0664 43.351 29.3297 43.9678 29.7052 44.5156C30.0807 45.0633 30.561 45.5313 31.1183 45.8925Z" fill="white"/>
<path d="M84.3856 23.5099C85.3445 24.1342 86.5113 24.3544 87.6317 24.1226C88.7522 23.8907 89.7357 23.2255 90.3681 22.2719C90.6791 21.8009 90.8938 21.2729 90.9997 20.7185C91.1056 20.164 91.1006 19.5942 90.985 19.0417C90.8694 18.4892 90.6455 17.965 90.3262 17.4996C90.007 17.0341 89.5986 16.6364 89.1248 16.3296C88.1661 15.7041 86.9991 15.4831 85.8781 15.7147C84.7571 15.9463 83.773 16.6117 83.1407 17.5659C82.8297 18.0371 82.6151 18.5653 82.5093 19.1199C82.4035 19.6746 82.4086 20.2447 82.5244 20.7973C82.6401 21.35 82.8642 21.8742 83.1837 22.3398C83.5031 22.8053 83.9116 23.203 84.3856 23.5099Z" fill="white"/>
<path d="M93.2524 8.35822C93.8729 8.76171 94.6276 8.90398 95.3524 8.75411C96.0773 8.60425 96.7137 8.1744 97.1233 7.55793C97.3242 7.25302 97.4628 6.91132 97.5311 6.55261C97.5994 6.19389 97.596 5.82524 97.5211 5.46784C97.4462 5.11044 97.3013 4.77138 97.0948 4.47024C96.8883 4.16909 96.6242 3.9118 96.3178 3.7132C95.6974 3.309 94.9423 3.16616 94.2171 3.31571C93.4919 3.46526 92.8551 3.89512 92.4452 4.51179C92.2441 4.81687 92.1053 5.15873 92.037 5.5177C91.9688 5.87667 91.9722 6.2456 92.0473 6.60321C92.1223 6.96082 92.2675 7.30007 92.4743 7.60129C92.6812 7.90251 92.9456 8.15975 93.2524 8.35822Z" fill="white"/>
<path d="M85.067 50.3188C83.9407 50.2542 82.8126 50.4121 81.7473 50.7835C80.682 51.1549 79.7003 51.7324 78.8582 52.4832C78.0162 53.234 77.3301 54.1433 76.8394 55.1592C76.3487 56.1751 76.063 57.2777 75.9985 58.404C75.9339 59.5303 76.0917 60.6583 76.4631 61.7236C76.8345 62.789 77.4121 63.7707 78.1629 64.6128C78.9137 65.4549 79.8229 66.1408 80.8388 66.6315C81.8547 67.1222 82.9573 67.408 84.0836 67.4726C84.258 67.4813 84.4167 67.4865 84.5806 67.4865C86.7811 67.4915 88.9001 66.6552 90.5043 65.149C92.1084 63.6427 93.0763 61.5804 93.2098 59.3839C93.2772 58.2558 93.1188 57.1255 92.7439 56.0593C92.3691 54.9931 91.7853 54.0125 91.0267 53.1748C90.2707 52.3293 89.3549 51.6418 88.3321 51.1516C87.3093 50.6615 86.1997 50.3784 85.067 50.3188Z" fill="white"/>
<path d="M46.2365 45.2961C46.9591 46.7243 48.0651 47.923 49.4306 48.7579C50.7962 49.5928 52.3672 50.0309 53.9678 50.0231C55.3164 50.0199 56.646 49.7048 57.8526 49.1024C59.5879 48.2357 60.9787 46.8069 61.7982 45.0488C62.6177 43.2906 62.8176 41.3068 62.3655 39.4204C61.9134 37.5341 60.8358 35.8564 59.3084 34.6608C57.7809 33.4652 55.8935 32.822 53.9538 32.8362C52.6048 32.8392 51.2748 33.1537 50.0673 33.755C49.0559 34.2591 48.1542 34.9581 47.4138 35.8117C46.6735 36.6654 46.1091 37.657 45.7531 38.7294C45.3971 39.8019 45.2566 40.934 45.3396 42.061C45.4225 43.1879 45.7274 44.2874 46.2365 45.2961Z" fill="white"/>
<path d="M114.043 34.2894C114.459 34.0817 114.83 33.7939 115.134 33.4425C115.438 33.0911 115.67 32.6831 115.815 32.2418C115.961 31.8006 116.018 31.3349 115.984 30.8714C115.949 30.408 115.823 29.956 115.613 29.5415C115.185 28.7019 114.442 28.0659 113.547 27.7719C112.651 27.4779 111.676 27.5499 110.833 27.9723C110.418 28.1796 110.047 28.4671 109.743 28.8183C109.438 29.1696 109.207 29.5775 109.061 30.0187C108.915 30.4598 108.858 30.9255 108.893 31.3889C108.928 31.8522 109.054 32.3041 109.264 32.7184C109.693 33.5576 110.435 34.1935 111.33 34.4878C112.226 34.782 113.201 34.7107 114.043 34.2894Z" fill="white"/>
<path d="M92.1002 37.0262C91.5052 37.3215 90.9744 37.7316 90.5387 38.233C90.1029 38.7343 89.7707 39.317 89.5613 39.9474C89.3519 40.5778 89.2694 41.2435 89.3185 41.9059C89.3676 42.5684 89.5473 43.2145 89.8474 43.8072C90.4604 45.0052 91.5219 45.9126 92.8008 46.3316C94.0797 46.7506 95.4723 46.6473 96.6754 46.0443C97.2702 45.7485 97.8006 45.338 98.2361 44.8364C98.6716 44.3348 99.0037 43.752 99.2131 43.1216C99.4225 42.4912 99.505 41.8257 99.4562 41.1632C99.4073 40.5007 99.2278 39.8544 98.9282 39.2615C98.3152 38.0634 97.2536 37.1562 95.9747 36.7375C94.6957 36.3188 93.303 36.4226 92.1002 37.0262Z" fill="white"/>
<path d="M63.8617 7.06429C64.5589 7.09899 65.2506 6.92652 65.8499 6.56857C66.4491 6.21062 66.9289 5.68324 67.2288 5.05296C67.5287 4.42267 67.6353 3.71765 67.5351 3.02688C67.4349 2.33611 67.1324 1.69048 66.6657 1.17141C66.1991 0.652332 65.5892 0.283069 64.9129 0.110161C64.2367 -0.0627463 63.5244 -0.0315543 62.8658 0.199822C62.2073 0.431199 61.632 0.852434 61.2125 1.41033C60.793 1.96822 60.5482 2.63782 60.5087 3.33471C60.4598 4.27367 60.7853 5.19368 61.4139 5.8929C62.0425 6.59211 62.9229 7.01338 63.8617 7.06429Z" fill="white"/>
<path d="M63.826 29.3016C64.824 29.3532 65.8149 29.1079 66.6736 28.5967C67.5323 28.0855 68.2202 27.3313 68.6505 26.4294C69.0809 25.5275 69.2343 24.5182 69.0915 23.5292C68.9487 22.5401 68.516 21.6155 67.8481 20.8722C67.1801 20.1289 66.3069 19.6001 65.3387 19.3527C64.3705 19.1053 63.3507 19.1504 62.4081 19.4821C61.4654 19.8139 60.6423 20.4176 60.0425 21.2169C59.4427 22.0162 59.0931 22.9754 59.038 23.9732C58.9686 25.3141 59.4336 26.6279 60.3311 27.6267C61.2285 28.6254 62.4853 29.2278 63.826 29.3016Z" fill="white"/>
<path d="M36.2753 80.8621C36.8704 80.5666 37.4011 80.1563 37.8369 79.6548C38.2728 79.1533 38.605 78.5705 38.8146 77.94C39.0242 77.3095 39.1069 76.6438 39.058 75.9812C39.0092 75.3186 38.8296 74.6722 38.5298 74.0793C37.9172 72.8809 36.8556 71.9733 35.5766 71.5542C34.2976 71.1352 32.9048 71.2388 31.7017 71.8423C31.1067 72.1376 30.576 72.5477 30.1403 73.0491C29.7045 73.5504 29.3723 74.1331 29.1629 74.7635C28.9534 75.3939 28.8709 76.0596 28.92 76.722C28.9691 77.3845 29.1489 78.0306 29.449 78.6233C30.0617 79.8212 31.1228 80.7285 32.4013 81.1478C33.6798 81.5671 35.0722 81.4644 36.2753 80.8621Z" fill="white"/>
<path d="M67.1118 36.6747C66.4904 37.618 66.0617 38.675 65.8504 39.7847C65.6391 40.8945 65.6494 42.0349 65.8806 43.1407C66.1119 44.2464 66.5595 45.2955 67.1978 46.2276C67.8361 47.1596 68.6526 47.9562 69.6 48.5714C71.5193 49.822 73.8548 50.2639 76.0983 49.8008C78.3417 49.3378 80.3114 48.0072 81.5787 46.0989C82.2 45.1554 82.6286 44.0984 82.8398 42.9886C83.051 41.8788 83.0405 40.7382 82.8091 39.6325C82.5776 38.5267 82.1298 37.4777 81.4913 36.5458C80.8528 35.6138 80.0363 34.8173 79.0887 34.2021C77.1699 32.9512 74.8345 32.5092 72.5912 32.9723C70.3479 33.4354 68.3785 34.7661 67.1118 36.6747Z" fill="white"/>
<path d="M82.1484 72.5921C81.4261 71.1635 80.3202 69.9645 78.9547 69.1293C77.5891 68.2941 76.0178 67.8557 74.4171 67.8634C73.0678 67.8654 71.7374 68.1805 70.5306 68.784C68.7954 69.6507 67.4048 71.0794 66.5853 72.8374C65.7658 74.5953 65.5656 76.579 66.0175 78.4652C66.4694 80.3514 67.5467 82.0291 69.0739 83.2248C70.601 84.4206 72.4881 85.064 74.4277 85.0503C75.7781 85.0483 77.1096 84.7332 78.3176 84.1296C79.3288 83.6259 80.2305 82.9273 80.9708 82.074C81.7112 81.2206 82.2756 80.2294 82.6316 79.1573C82.9875 78.0851 83.1281 76.9531 83.0452 75.8264C82.9623 74.6998 82.6575 73.6006 82.1484 72.5921Z" fill="white"/>
<path d="M97.2492 71.9945C96.121 71.2604 94.7486 71.0013 93.4305 71.2736C92.1124 71.5459 90.955 72.3276 90.21 73.4487C89.8444 74.0031 89.5922 74.6244 89.4679 75.2768C89.3435 75.9292 89.3496 76.5997 89.4857 77.2497C89.6219 77.8998 89.8854 78.5164 90.2611 79.064C90.6368 79.6117 91.1173 80.0796 91.6747 80.4406C92.8028 81.1752 94.1752 81.4345 95.4935 81.1622C96.8118 80.8898 97.9691 80.1079 98.7137 78.9865C99.0799 78.4322 99.3325 77.8108 99.4571 77.1583C99.5817 76.5058 99.5757 75.8352 99.4395 75.185C99.3033 74.5349 99.0396 73.9182 98.6636 73.3705C98.2876 72.8229 97.807 72.3552 97.2492 71.9945Z" fill="white"/>
<path d="M113.812 59.0922C113.866 58.2379 113.666 57.3867 113.235 56.6465C112.805 55.9064 112.165 55.3106 111.396 54.9348C110.626 54.5591 109.763 54.4201 108.915 54.5357C108.066 54.6512 107.272 55.016 106.631 55.5839C105.99 56.1518 105.533 56.8972 105.316 57.7255C105.1 58.5537 105.134 59.4276 105.415 60.2363C105.696 61.045 106.21 61.7521 106.894 62.268C107.577 62.7839 108.398 63.0853 109.252 63.134C109.817 63.1684 110.383 63.0912 110.918 62.9066C111.453 62.7221 111.947 62.434 112.37 62.0586C112.794 61.6832 113.139 61.2279 113.387 60.7189C113.634 60.2099 113.778 59.6572 113.812 59.0922Z" fill="white"/>
<path d="M125.779 56.0427C125.231 56.0146 124.687 56.1496 124.216 56.4304C123.744 56.7112 123.366 57.1253 123.13 57.6205C122.894 58.1157 122.81 58.6698 122.888 59.2129C122.966 59.756 123.204 60.2639 123.57 60.6722C123.937 61.0805 124.416 61.371 124.947 61.5073C125.479 61.6435 126.039 61.6193 126.557 61.4376C127.074 61.2559 127.527 60.925 127.857 60.4865C128.187 60.048 128.379 59.5216 128.41 58.9738C128.449 58.2365 128.193 57.514 127.7 56.9646C127.207 56.4152 126.516 56.0837 125.779 56.0427Z" fill="white"/>
<path d="M114.514 83.5832C113.724 83.0688 112.764 82.8871 111.841 83.0778C110.918 83.2686 110.108 83.8163 109.587 84.6016C109.33 84.9895 109.154 85.4244 109.066 85.881C108.979 86.3376 108.983 86.807 109.078 87.2621C109.174 87.7171 109.358 88.1488 109.621 88.5322C109.884 88.9156 110.22 89.2432 110.61 89.496C111.4 90.0105 112.361 90.1922 113.284 90.0015C114.208 89.8108 115.018 89.2631 115.539 88.4776C115.795 88.0896 115.972 87.6547 116.059 87.198C116.146 86.7413 116.142 86.2719 116.047 85.8168C115.951 85.3618 115.767 84.93 115.504 84.5467C115.241 84.1633 114.904 83.8359 114.514 83.5832Z" fill="white"/>
<path d="M35.1224 109.526C34.5022 109.121 33.7476 108.979 33.0226 109.128C32.2977 109.278 31.6611 109.708 31.2515 110.324C31.05 110.629 30.9109 110.971 30.8422 111.33C30.7736 111.688 30.7767 112.057 30.8515 112.415C30.9262 112.773 31.0711 113.112 31.2777 113.413C31.4844 113.715 31.7487 113.972 32.0554 114.171C32.6757 114.575 33.4306 114.717 34.1556 114.567C34.8805 114.417 35.5169 113.987 35.9262 113.37C36.1277 113.066 36.2668 112.724 36.3355 112.365C36.4041 112.007 36.4009 111.638 36.3262 111.28C36.2515 110.923 36.1066 110.584 35.9 110.282C35.6934 109.981 35.429 109.724 35.1224 109.526Z" fill="white"/>
<path d="M93.766 109.234C93.4389 109.396 93.1472 109.622 92.9078 109.898C92.6684 110.174 92.4859 110.494 92.371 110.841C92.2561 111.188 92.2109 111.554 92.2382 111.918C92.2654 112.282 92.3644 112.638 92.5297 112.963C92.8684 113.621 93.4531 114.118 94.1564 114.346C94.8598 114.575 95.6249 114.517 96.2854 114.184C96.6125 114.022 96.9042 113.796 97.1436 113.52C97.3831 113.245 97.5655 112.924 97.6806 112.578C97.7957 112.231 97.8411 111.865 97.8141 111.501C97.7871 111.137 97.6883 110.782 97.5234 110.456C97.185 109.798 96.6001 109.3 95.8963 109.071C95.1926 108.842 94.4269 108.901 93.766 109.234Z" fill="white"/>
<path d="M61.2716 81.2166C61.8943 80.2738 62.324 79.217 62.5358 78.1072C62.7477 76.9975 62.7376 75.8567 62.5061 74.7509C62.2746 73.645 61.8262 72.596 61.187 71.6644C60.5477 70.7328 59.7303 69.9371 58.7818 69.3232C56.8629 68.0723 54.5275 67.6303 52.2842 68.0934C50.0409 68.5565 48.0714 69.8872 46.8048 71.7958C46.1826 72.7389 45.7534 73.796 45.5419 74.9058C45.3304 76.0157 45.3408 77.1565 45.5724 78.2624C45.8041 79.3683 46.2524 80.4173 46.8916 81.349C47.5307 82.2807 48.3481 83.0766 49.2965 83.6908C51.2157 84.9411 53.5511 85.3826 55.7942 84.9192C58.0374 84.4558 60.0067 83.125 61.2734 81.2166H61.2716Z" fill="white"/>
<path d="M43.9869 94.3711C43.0283 93.7469 41.862 93.5263 40.7417 93.7575C39.6214 93.9887 38.6377 94.6528 38.0045 95.6054C37.6934 96.0766 37.4787 96.6048 37.3728 97.1593C37.2669 97.7139 37.2718 98.2839 37.3874 98.8365C37.503 99.3892 37.7269 99.9135 38.0462 100.379C38.3655 100.845 38.7738 101.243 39.2477 101.55C40.2065 102.174 41.3731 102.394 42.4937 102.163C43.6143 101.932 44.5983 101.268 45.2318 100.315C45.5428 99.8438 45.7574 99.3156 45.8632 98.761C45.969 98.2063 45.9639 97.6362 45.8481 97.0835C45.7324 96.5309 45.5083 96.0066 45.1888 95.5411C44.8694 95.0755 44.4609 94.6779 43.9869 94.3711Z" fill="white"/>
<path d="M64.1489 110.825C63.4513 110.789 62.7588 110.962 62.1588 111.319C61.5588 111.677 61.0782 112.204 60.7776 112.835C60.4771 113.466 60.37 114.171 60.47 114.863C60.57 115.554 60.8725 116.2 61.3394 116.72C61.8063 117.239 62.4167 117.609 63.0935 117.782C63.7703 117.955 64.4831 117.924 65.1422 117.692C65.8012 117.461 66.3769 117.039 66.7966 116.481C67.2162 115.922 67.4611 115.252 67.5002 114.555C67.5492 113.616 67.2239 112.696 66.5956 111.997C65.9674 111.298 65.0875 110.876 64.1489 110.825Z" fill="white"/>
<path d="M64.1845 88.5809C63.1866 88.5294 62.1958 88.7747 61.3371 89.2859C60.4785 89.797 59.7906 90.5512 59.3602 91.453C58.9299 92.3548 58.7763 93.3639 58.919 94.3529C59.0617 95.3419 59.4943 96.2665 60.162 97.0098C60.8298 97.7532 61.7028 98.2821 62.6709 98.5296C63.639 98.7772 64.6587 98.7324 65.6013 98.4009C66.544 98.0694 67.3673 97.466 67.9673 96.6669C68.5673 95.8679 68.9171 94.9089 68.9725 93.9112C69.0428 92.5698 68.5782 91.2553 67.6806 90.256C66.783 89.2568 65.5257 88.6544 64.1845 88.5809Z" fill="white"/>
<path d="M84.9846 94.0374C84.4783 94.2882 84.0269 94.6368 83.6561 95.0631C83.2853 95.4893 83.0025 95.9848 82.8242 96.5209C82.6459 97.0569 82.5755 97.6231 82.6171 98.1865C82.6587 98.7499 82.8115 99.2995 83.0666 99.8036C83.5871 100.822 84.4893 101.594 85.5764 101.95C86.6634 102.306 87.8472 102.217 88.8694 101.704C89.3754 101.453 89.8267 101.105 90.1973 100.679C90.568 100.252 90.8506 99.7572 91.0289 99.2213C91.2072 98.6855 91.2777 98.1196 91.2362 97.5564C91.1948 96.9931 91.0422 96.4437 90.7874 95.9397C90.2665 94.9214 89.3644 94.1502 88.2776 93.7939C87.1908 93.4376 86.0072 93.5251 84.9846 94.0374Z" fill="white"/>
<path d="M154.789 60.6953H181.582V66.5747H161.746V76.6145H179.625V82.4976H161.746V97.7194H154.789V60.6953Z" fill="white"/>
<path d="M183.426 83.5271C183.426 73.3251 188.153 68.6836 197.5 68.6836C206.848 68.6836 211.575 73.3251 211.575 83.5271C211.575 93.729 206.848 98.3706 197.5 98.3706C188.153 98.3706 183.426 93.729 183.426 83.5271ZM204.838 83.9054V83.1505C204.838 76.9972 202.717 73.9755 197.5 73.9755C192.229 73.9755 190.163 76.9972 190.163 83.1505V83.9054C190.163 90.0587 192.228 93.0821 197.5 93.0821C202.717 93.0804 204.838 90.0587 204.838 83.9054Z" fill="white"/>
<path d="M217.227 88.4945V69.332H223.748V87.3611C223.748 91.4098 225.758 92.7663 229.019 92.7663C229.9 92.7554 230.77 92.5657 231.576 92.2083C232.382 91.8509 233.107 91.3334 233.707 90.6873C234.306 90.0412 234.769 89.28 235.065 88.4499C235.362 87.6197 235.486 86.7379 235.432 85.8581V69.3407H241.953V97.7322H236.572L236.028 93.9537H235.648C234.583 95.3729 233.194 96.5158 231.596 97.2861C229.997 98.0565 228.238 98.432 226.464 98.3808C220.975 98.3721 217.227 95.727 217.227 88.4945Z" fill="white"/>
<path d="M249.555 69.3312H254.936L255.48 73.1096H255.86C256.924 71.6907 258.314 70.5482 259.912 69.7781C261.51 69.0081 263.27 68.633 265.043 68.6843C270.478 68.6843 274.285 71.3294 274.285 78.5619V97.7175H267.763V79.6953C267.763 75.6466 265.753 74.29 262.492 74.29C261.611 74.3008 260.74 74.4908 259.935 74.8483C259.129 75.2058 258.404 75.7234 257.804 76.3696C257.204 77.0159 256.742 77.7773 256.445 78.6077C256.149 79.4381 256.024 80.3201 256.079 81.2V97.7175H249.555V69.3312Z" fill="white"/>
<path d="M279.879 83.4744C279.879 73.2724 284.498 68.685 290.864 68.685C292.514 68.5427 294.172 68.8309 295.678 69.5216C297.183 70.2124 298.483 71.2819 299.451 72.6256H299.777V58.6992H306.298V97.7233H300.917L300.373 93.9449H300.047C299.094 95.3739 297.787 96.5323 296.254 97.3079C294.721 98.0835 293.014 98.4501 291.298 98.3719C284.28 98.3719 279.879 93.8385 279.879 83.4744ZM299.768 83.9068V83.2599C299.768 77.485 297.812 74.2453 293.247 74.2453C288.41 74.2453 286.622 77.0526 286.622 83.2059V83.9033C286.622 90.006 288.365 92.8098 293.247 92.8098C297.866 92.8115 299.768 89.6276 299.768 83.9068Z" fill="white"/>
<path d="M311.773 90.3791C311.773 82.6601 319.219 80.5015 329.706 80.5015V78.1267C329.706 75.6978 328.835 73.8078 324.824 73.8078C320.64 73.8078 319.552 75.4816 319.552 76.9916V77.7466H313.248C313.199 77.3528 313.181 76.9558 313.194 76.5592C313.194 71.6474 317.869 68.6797 324.824 68.6797C332.542 68.6797 336.236 71.9717 336.236 77.6403V91.1882C336.217 91.4423 336.253 91.6978 336.342 91.9367C336.43 92.1757 336.57 92.3925 336.751 92.5721C336.932 92.7517 337.15 92.8898 337.389 92.9769C337.629 93.064 337.885 93.098 338.139 93.0765H339.882V97.5036C338.596 98.0582 337.207 98.3339 335.806 98.3126C334.595 98.4074 333.388 98.0759 332.396 97.3755C331.404 96.675 330.687 95.6496 330.371 94.4767H329.991C328.883 95.798 327.478 96.8387 325.892 97.5141C324.305 98.1895 322.581 98.4805 320.861 98.3632C317.588 98.3684 311.773 97.2891 311.773 90.3791ZM329.706 86.3863V85.0907C323.511 85.0907 318.458 85.9626 318.458 89.7323C318.458 91.999 319.925 93.1863 322.805 93.1863C323.724 93.2678 324.649 93.1486 325.517 92.8367C326.385 92.5249 327.174 92.028 327.831 91.3806C328.487 90.7331 328.995 89.9506 329.319 89.0873C329.643 88.224 329.775 87.3006 329.706 86.3811V86.3863Z" fill="white"/>
<path d="M344.494 91.3034V74.6239H341.016V69.3337H344.602L345.797 61.3984H351.014V69.3337H355.896V74.6239H351.014V90.653C350.964 90.9752 350.99 91.3044 351.089 91.6151C351.187 91.9258 351.356 92.2095 351.582 92.4444C351.808 92.6793 352.085 92.8591 352.392 92.9696C352.698 93.0802 353.026 93.1186 353.35 93.0819H355.904V97.509C354.44 98.0466 352.898 98.3411 351.339 98.3808C346.068 98.3738 344.494 94.8116 344.494 91.3034Z" fill="white"/>
<path d="M361.176 58.6992H367.589V65.0686H361.176V58.6992ZM361.176 69.3353H367.697V97.7268H361.176V69.3353Z" fill="white"/>
<path d="M373.461 83.5271C373.461 73.3251 378.19 68.6836 387.536 68.6836C396.881 68.6836 401.61 73.3251 401.61 83.5271C401.61 93.729 396.883 98.3706 387.536 98.3706C378.188 98.3706 373.461 93.729 373.461 83.5271ZM394.873 83.9054V83.1505C394.873 76.9972 392.752 73.9755 387.536 73.9755C382.265 73.9755 380.198 76.9972 380.198 83.1505V83.9054C380.198 90.0587 382.263 93.0821 387.536 93.0821C392.745 93.0804 394.866 90.0587 394.866 83.9054H394.873Z" fill="white"/>
<path d="M407.414 69.3312H412.795L413.339 73.1096H413.719C414.784 71.6906 416.174 70.548 417.773 69.778C419.371 69.0079 421.131 68.6329 422.904 68.6844C428.339 68.6844 432.146 71.3294 432.146 78.562V97.7175H425.624V79.6954C425.624 75.6467 423.614 74.2901 420.354 74.2901C419.472 74.3009 418.602 74.4909 417.796 74.8484C416.99 75.2058 416.265 75.7234 415.665 76.3697C415.065 77.0159 414.603 77.7774 414.307 78.6077C414.01 79.4381 413.886 80.3201 413.941 81.2001V97.7175H407.419L407.414 69.3312Z" fill="white"/>
<path d="M153.316 29.9302C153.316 16.9228 159.942 10.7695 171.359 10.7695C180.653 10.7695 187.826 15.411 187.826 25.0672H180.707C180.707 19.5609 176.902 16.5932 171.466 16.5932C163.968 16.5932 160.434 20.9122 160.434 29.3862V30.4655C160.434 39.1017 163.912 43.2585 171.466 43.2585C177.22 43.2585 180.976 40.2944 180.976 34.8891H187.823C187.823 44.5506 180.758 49.084 171.356 49.084C159.946 49.0927 153.316 43.2637 153.316 29.9302Z" fill="white"/>
<path d="M191.848 41.1057C191.848 33.3867 199.293 31.228 209.781 31.228V28.8532C209.781 26.4243 208.909 24.536 204.89 24.536C200.705 24.536 199.619 26.2099 199.619 27.7199V28.4748H193.314C193.265 28.0811 193.247 27.6841 193.26 27.2875C193.26 22.3757 197.933 19.4062 204.89 19.4062C212.607 19.4062 216.302 22.6999 216.302 28.3667V41.9147C216.282 42.169 216.318 42.4247 216.407 42.6638C216.495 42.903 216.635 43.12 216.816 43.2998C216.997 43.4796 217.215 43.6179 217.455 43.7051C217.694 43.7923 217.95 43.8263 218.204 43.8048H219.948V48.2302C218.661 48.7847 217.272 49.0604 215.871 49.0392C214.66 49.1343 213.454 48.8029 212.461 48.1023C211.469 47.4018 210.753 46.3762 210.436 45.2032H210.056C208.948 46.5246 207.544 47.5655 205.957 48.2409C204.371 48.9163 202.647 49.2072 200.927 49.0897C197.657 49.0915 191.848 48.0122 191.848 41.1057ZM209.781 37.111V35.8155C203.586 35.8155 198.531 36.6873 198.531 40.4571C198.531 42.7238 199.997 43.9112 202.878 43.9112C203.796 43.9926 204.721 43.8733 205.589 43.5617C206.456 43.2501 207.246 42.7535 207.902 42.1065C208.559 41.4595 209.067 40.6775 209.391 39.8146C209.716 38.9517 209.849 38.0287 209.781 37.1093V37.111Z" fill="white"/>
<path d="M224.176 20.0532H229.557L230.155 24.5343H230.535C231.567 21.8352 233.361 19.4064 236.948 19.4064C237.875 19.4015 238.796 19.5664 239.664 19.8928V25.9955H237.598C233.142 25.9955 230.697 28.4243 230.697 33.6674V48.4568H224.176V20.0532Z" fill="white"/>
<path d="M242.438 34.1953C242.438 23.9933 247.056 19.4059 253.422 19.4059C255.072 19.2639 256.73 19.5524 258.235 20.2431C259.74 20.9338 261.04 22.0031 262.008 23.3465H262.334V9.42188H268.855V48.4442H263.476L262.932 44.6658H262.608C261.654 46.0944 260.347 47.2526 258.814 48.0279C257.281 48.8032 255.574 49.1695 253.858 49.0911C246.84 49.0929 242.438 44.5594 242.438 34.1953ZM262.327 34.6277V33.9808C262.327 28.2059 260.371 24.9663 255.806 24.9663C250.969 24.9663 249.18 27.7735 249.18 33.9268V34.6242C249.18 40.7269 250.924 43.5307 255.806 43.5307C260.426 43.5324 262.329 40.3486 262.329 34.6277H262.327Z" fill="white"/>
<path d="M274.332 41.1057C274.332 33.3867 281.777 31.228 292.265 31.228V28.8532C292.265 26.4243 291.393 24.536 287.374 24.536C283.19 24.536 282.103 26.2099 282.103 27.7199V28.4748H275.798C275.749 28.0811 275.731 27.6841 275.744 27.2875C275.744 22.3757 280.419 19.4062 287.374 19.4062C295.092 19.4062 298.786 22.6999 298.786 28.3667V41.9147C298.766 42.169 298.802 42.4247 298.891 42.6638C298.98 42.903 299.119 43.12 299.3 43.2998C299.481 43.4796 299.699 43.6179 299.939 43.7051C300.179 43.7923 300.434 43.8263 300.689 43.8048H302.432V48.2302C301.146 48.7846 299.756 49.0603 298.356 49.0392C297.144 49.1343 295.938 48.8029 294.946 48.1023C293.953 47.4018 293.237 46.3762 292.921 45.2032H292.541C291.433 46.5245 290.028 47.5653 288.442 48.2407C286.855 48.9161 285.131 49.207 283.411 49.0897C280.147 49.0915 274.332 48.0122 274.332 41.1057ZM292.265 37.111V35.8155C286.07 35.8155 281.015 36.6873 281.015 40.4571C281.015 42.7238 282.482 43.9112 285.362 43.9112C286.28 43.9926 287.205 43.8733 288.073 43.5617C288.941 43.2501 289.73 42.7535 290.387 42.1065C291.043 41.4595 291.551 40.6775 291.876 39.8146C292.2 38.9517 292.333 38.0287 292.265 37.1093V37.111Z" fill="white"/>
<path d="M306.668 20.0517H312.047L312.591 23.8302H312.971C314.036 22.4107 315.426 21.2677 317.024 20.4973C318.623 19.7269 320.383 19.3517 322.157 19.4031C327.592 19.4031 331.398 22.0482 331.398 29.2808V48.4432H324.877V30.4141C324.877 26.3654 322.866 25.0089 319.606 25.0089C318.724 25.0197 317.854 25.2096 317.048 25.5671C316.242 25.9246 315.517 26.4421 314.917 27.0884C314.317 27.7347 313.855 28.4962 313.559 29.3266C313.262 30.1569 313.138 31.0389 313.193 31.9189V48.4362H306.671L306.668 20.0517Z" fill="white"/>
<path d="M337.043 34.2497C337.043 24.0478 341.77 19.4062 351.117 19.4062C360.465 19.4062 365.194 24.0478 365.194 34.2497C365.194 44.4517 360.465 49.0932 351.117 49.0932C341.77 49.0932 337.043 44.4517 337.043 34.2497ZM358.455 34.6281V33.8731C358.455 27.7199 356.336 24.6964 351.119 24.6964C345.848 24.6964 343.782 27.7181 343.782 33.8731V34.6281C343.782 40.7813 345.847 43.8048 351.119 43.8048C356.334 43.8048 358.455 40.7813 358.455 34.6281Z" fill="white"/>
</svg>
