<svg width="363" height="83" viewBox="0 0 363 83" fill="none" xmlns="http://www.w3.org/2000/svg">
<path d="M26.3984 56.6504L41.574 82.9914L70.8927 70.7823L41.5362 62.8872L26.3984 56.6504Z" fill="url(#paint0_linear_112_2438)"/>
<path d="M26.3398 26.3978L32.8099 23.7035L41.4161 0L26.3398 26.3978Z" fill="#40B3B7"/>
<path d="M70.7833 12.0982L41.4187 0L32.8125 23.7035L41.4566 20.1042L70.7833 12.0982Z" fill="url(#paint1_linear_112_2438)"/>
<path d="M41.4531 20.1043L46.0235 21.987L67.3988 13.0215L41.4531 20.1043Z" fill="#0C3E4F"/>
<path d="M56.6484 56.5936L82.9893 41.418L58.8355 51.2843L56.6484 56.5936Z" fill="#40B3B7"/>
<path d="M62.8856 41.4547L58.8359 51.2831L82.9897 41.4169L70.7807 12.0977L62.8856 41.4547Z" fill="url(#paint2_linear_112_2438)"/>
<path d="M41.5352 62.8858L70.8917 70.7809L46.7391 60.7188L41.5352 62.8858Z" fill="#31919B"/>
<path d="M56.6485 56.5936L46.7383 60.7202L70.8909 70.7824L82.9894 41.418L56.6485 56.5936Z" fill="url(#paint3_linear_112_2438)"/>
<path d="M20.1041 41.5355L12.0985 12.209L0 41.5734L26.1006 55.9359L20.1041 41.5355Z" fill="url(#paint4_linear_112_2438)"/>
<path d="M26.398 56.6506L26.1006 55.9368L0 41.5742L12.209 70.8934L41.5736 82.9916L26.398 56.6506Z" fill="#1C637B"/>
<path d="M20.1032 41.5355L22.3409 36.1041L12.0977 12.209L20.1032 41.5355Z" fill="#31919B"/>
<path d="M41.4163 0L12.0977 12.2091L22.3409 36.1041L26.34 26.3978L41.4163 0Z" fill="url(#paint5_linear_112_2438)"/>
<path d="M62.8887 41.4543L70.7837 12.0977C70.7837 12.0977 63.7686 30.5756 61.2227 37.454L62.8887 41.4543Z" fill="#0C3E4F"/>
<path d="M46.0234 21.9867L56.5908 26.3405L61.2187 37.454C63.7647 30.5756 70.7798 12.0977 70.7798 12.0977L67.3987 13.0205L46.0234 21.9867Z" fill="#1C637B"/>
<path d="M116.927 23.3555C119.573 23.3555 121.901 23.8402 123.911 24.8087C125.919 25.7782 127.597 27.0894 128.945 28.7437C130.292 30.3983 131.308 32.324 131.993 34.5214C132.678 36.7198 133.021 39.0715 133.021 41.5765V44.342H106.929C107.024 47.6027 107.993 50.0972 109.836 51.8214C111.68 53.5474 114.303 54.4097 117.707 54.4097C120.07 54.4097 122.043 53.9604 123.627 53.0626C125.21 52.1648 126.45 51.1018 127.349 49.8718L132.17 53.9133C130.469 56.0401 128.448 57.6473 126.108 58.7345C123.769 59.8211 120.968 60.3649 117.707 60.3649C114.965 60.3649 112.496 59.9041 110.297 58.9827C108.099 58.061 106.232 56.7843 104.696 55.1539C103.159 53.5235 101.977 51.5855 101.151 49.3403C100.324 47.0958 99.9102 44.6253 99.9102 41.9308C99.9102 39.2364 100.324 36.7553 101.151 34.4859C101.977 32.2175 103.147 30.2563 104.66 28.6017C106.173 26.9474 107.968 25.659 110.049 24.7373C112.129 23.8163 114.421 23.3555 116.927 23.3555ZM116.927 29.3107C114.043 29.3107 111.704 30.161 109.907 31.8631C108.111 33.5645 107.118 35.8336 106.929 38.6694H126.144C126.049 35.834 125.21 33.5645 123.627 31.8631C122.043 30.161 119.809 29.3107 116.927 29.3107Z" fill="#F4F4F5"/>
<path d="M157.909 30.303H157.271C155.049 30.303 153.194 30.8595 151.705 31.9696C150.216 33.0808 148.857 34.5108 147.628 36.2593V59.6566H140.68V24.0645H146.99L147.344 28.8857C148.242 27.468 149.566 26.1912 151.315 25.0569C153.063 23.9225 155.261 23.3555 157.909 23.3555V30.303H157.909Z" fill="#F4F4F5"/>
<path d="M177.337 23.3555C180.174 23.3555 182.525 23.8518 184.393 24.8442C186.259 25.8365 187.713 27.0187 188.753 28.3893L189.037 24.0641H195.347V58.7349C195.347 61.5235 194.909 64.0275 194.035 66.2498C193.16 68.4711 191.931 70.3507 190.348 71.8873C188.763 73.4227 186.849 74.6049 184.605 75.4324C182.359 76.2585 179.865 76.6729 177.124 76.6729C173.438 76.6729 170.258 75.9994 167.588 74.6517C164.917 73.3046 162.636 71.4971 160.746 69.228L165.355 64.6901C166.773 66.3922 168.427 67.7853 170.317 68.8733C172.208 69.9605 174.453 70.5036 177.053 70.5036C180.55 70.5036 183.316 69.4519 185.349 67.349C187.381 65.2448 188.397 62.4213 188.397 58.8762V55.827C187.31 57.057 185.868 58.1201 184.072 59.0179C182.275 59.9146 180.031 60.3646 177.336 60.3646C174.879 60.3646 172.645 59.9037 170.636 58.9824C168.627 58.0606 166.902 56.7734 165.461 55.118C164.018 53.4637 162.896 51.5142 162.093 49.269C161.288 47.0245 160.888 44.5539 160.888 41.8595C160.888 39.165 161.289 36.6963 162.093 34.45C162.896 32.2055 164.018 30.2559 165.461 28.6013C166.902 26.947 168.627 25.6587 170.636 24.737C172.646 23.8163 174.879 23.3555 177.337 23.3555ZM178.614 29.5234C177.054 29.5234 175.624 29.8193 174.324 30.4092C173.024 31.0012 171.889 31.8403 170.921 32.9265C169.951 34.0145 169.207 35.3137 168.687 36.8263C168.167 38.3396 167.908 40.0171 167.908 41.8602C167.908 43.7032 168.167 45.3825 168.687 46.8941C169.207 48.4074 169.952 49.7073 170.921 50.7939C171.889 51.8819 173.024 52.7203 174.324 53.3112C175.624 53.9021 177.054 54.1974 178.614 54.1974C181.025 54.1974 182.985 53.6304 184.499 52.4953C186.011 51.3609 187.31 49.9203 188.398 48.1701V35.5503C187.31 33.8021 186.011 32.3595 184.499 31.2251C182.985 30.0904 181.024 29.5234 178.614 29.5234Z" fill="#F4F4F5"/>
<path d="M221.081 23.3555C223.728 23.3555 226.162 23.8163 228.384 24.7377C230.605 25.6594 232.531 26.9477 234.162 28.602C235.793 30.2566 237.069 32.2178 237.991 34.4862C238.913 36.7553 239.374 39.2364 239.374 41.9312C239.374 44.6257 238.913 47.0962 237.991 49.3407C237.069 51.5859 235.793 53.5238 234.162 55.1542C232.532 56.7846 230.605 58.0614 228.384 58.9831C226.161 59.9048 223.728 60.3653 221.081 60.3653C218.433 60.3653 215.999 59.9044 213.778 58.9831C211.556 58.0614 209.631 56.7846 208 55.1542C206.369 53.5238 205.104 51.5859 204.207 49.3407C203.308 47.0962 202.859 44.6257 202.859 41.9312C202.859 39.2367 203.308 36.7557 204.207 34.4862C205.104 32.2178 206.369 30.2566 208 28.602C209.63 26.9477 211.556 25.6594 213.778 24.7377C215.999 23.8163 218.433 23.3555 221.081 23.3555ZM221.081 29.5234C219.426 29.5234 217.914 29.8316 216.543 30.4444C215.172 31.0592 213.991 31.9222 212.998 33.0326C212.006 34.1438 211.237 35.4554 210.694 36.9676C210.15 38.481 209.879 40.1345 209.879 41.9305C209.879 43.7275 210.15 45.3695 210.694 46.8582C211.237 48.3469 212.006 49.636 212.998 50.7225C213.991 51.8105 215.172 52.6612 216.543 53.2753C217.914 53.8894 219.426 54.197 221.081 54.197C222.688 54.197 224.189 53.8894 225.583 53.2753C226.977 52.6612 228.171 51.8105 229.164 50.7225C230.156 49.636 230.937 48.3469 231.504 46.8582C232.071 45.3695 232.355 43.7275 232.355 41.9305C232.355 40.1345 232.071 38.481 231.504 36.9676C230.937 35.455 230.156 34.1435 229.164 33.0326C228.171 31.9222 226.977 31.0592 225.583 30.4444C224.189 29.8316 222.688 29.5234 221.081 29.5234Z" fill="#F4F4F5"/>
<path d="M264.826 23.3555C267.283 23.3555 269.516 23.8163 271.526 24.7377C273.534 25.6594 275.259 26.9477 276.701 28.602C278.143 30.2566 279.265 32.2062 280.069 34.4507C280.872 36.697 281.274 39.1657 281.274 41.8602C281.274 44.5546 280.872 47.0252 280.069 49.2697C279.265 51.5149 278.143 53.4644 276.701 55.1187C275.259 56.7737 273.534 58.0614 271.526 58.9831C269.516 59.9048 267.283 60.3653 264.826 60.3653C262.131 60.3653 259.886 59.9153 258.09 59.0186C256.293 58.1208 254.852 57.0578 253.765 55.8278V75.9643H246.816V24.0641H253.127L253.41 28.3893C254.45 27.0184 255.903 25.8365 257.771 24.8442C259.638 23.8515 261.989 23.3555 264.826 23.3555ZM263.549 29.5234C261.139 29.5234 259.176 30.09 257.665 31.2251C256.152 32.3595 254.852 33.8018 253.765 35.5503V48.1701C254.852 49.92 256.152 51.3609 257.665 52.4953C259.177 53.6304 261.139 54.1974 263.549 54.1974C265.11 54.1974 266.538 53.9024 267.839 53.3112C269.139 52.7203 270.273 51.8819 271.242 50.7939C272.211 49.7073 272.955 48.4077 273.475 46.8941C273.995 45.3825 274.256 43.7032 274.256 41.8602C274.256 40.0171 273.995 38.3396 273.475 36.8263C272.955 35.3137 272.211 34.0148 271.242 32.9265C270.273 31.8399 269.139 31.0008 267.839 30.4092C266.538 29.8193 265.109 29.5234 263.549 29.5234Z" fill="#F4F4F5"/>
<path d="M302.328 23.3555C305.164 23.3555 307.515 23.8518 309.383 24.8442C311.249 25.8365 312.703 27.0187 313.743 28.3893L314.027 24.0641H320.337V59.6562H314.027L313.743 55.331C312.703 56.7027 311.249 57.8838 309.383 58.8762C307.515 59.8686 305.164 60.3649 302.328 60.3649C299.87 60.3649 297.636 59.9041 295.627 58.9827C293.618 58.061 291.893 56.7737 290.452 55.1184C289.009 53.4641 287.887 51.5145 287.084 49.2693C286.28 47.0248 285.879 44.5543 285.879 41.8598C285.879 39.1654 286.28 36.6966 287.084 34.4504C287.887 32.2059 289.009 30.2563 290.452 28.6017C291.893 26.9474 293.618 25.659 295.627 24.7373C297.636 23.8163 299.87 23.3555 302.328 23.3555ZM303.604 29.5234C302.044 29.5234 300.614 29.8193 299.314 30.4092C298.014 31.0012 296.879 31.8403 295.911 32.9265C294.941 34.0145 294.197 35.3137 293.678 36.8263C293.157 38.3396 292.898 40.0171 292.898 41.8602C292.898 43.7032 293.157 45.3825 293.678 46.8941C294.197 48.4074 294.942 49.7073 295.911 50.7939C296.879 51.8819 298.014 52.7203 299.314 53.3112C300.614 53.9021 302.044 54.1974 303.604 54.1974C306.015 54.1974 307.976 53.6304 309.489 52.4953C311.001 51.3609 312.3 49.9203 313.388 48.1701V35.5503C312.3 33.8021 311.001 32.3595 309.489 31.2251C307.976 30.0904 306.015 29.5234 303.604 29.5234Z" fill="#F4F4F5"/>
<path d="M362.243 59.6579H355.933L355.649 55.3327C354.609 56.7044 353.156 57.8855 351.289 58.8779C349.421 59.8703 347.07 60.3666 344.234 60.3666C341.776 60.3666 339.542 59.9058 337.534 58.9844C335.524 58.0627 333.799 56.7754 332.358 55.1201C330.916 53.4658 329.793 51.5162 328.991 49.271C328.186 47.0265 327.785 44.556 327.785 41.8615C327.785 39.1671 328.186 36.6983 328.991 34.4521C329.793 32.2076 330.916 30.258 332.358 28.6033C333.799 26.9491 335.524 25.6607 337.534 24.739C339.542 23.8173 341.776 23.3568 344.234 23.3568C346.928 23.3568 349.172 23.8061 350.969 24.7039C352.765 25.6024 354.207 26.6657 355.294 27.8947V5.77344H362.243V59.6579H362.243ZM345.51 29.5247C343.95 29.5247 342.52 29.8207 341.22 30.4105C339.92 31.0025 338.785 31.8416 337.817 32.9278C336.848 34.0158 336.103 35.315 335.583 36.8277C335.063 38.341 334.804 40.0185 334.804 41.8615C334.804 43.7046 335.063 45.3838 335.583 46.8954C336.103 48.4087 336.848 49.7087 337.817 50.7952C338.785 51.8832 339.92 52.7216 341.22 53.3125C342.52 53.9034 343.95 54.1987 345.51 54.1987C347.921 54.1987 349.882 53.6317 351.395 52.4966C352.907 51.3622 354.207 49.9217 355.294 48.1714V35.5516C354.207 33.8035 352.907 32.3608 351.395 31.2264C349.882 30.0917 347.921 29.5247 345.51 29.5247Z" fill="#F4F4F5"/>
<defs>
<linearGradient id="paint0_linear_112_2438" x1="48.3852" y1="64.4904" x2="42.104" y2="83.1658" gradientUnits="userSpaceOnUse">
<stop stop-color="#297F92"/>
<stop offset="1" stop-color="#3197AD"/>
</linearGradient>
<linearGradient id="paint1_linear_112_2438" x1="37.0039" y1="11.866" x2="59.3806" y2="9.00585" gradientUnits="userSpaceOnUse">
<stop stop-color="#44BBBD"/>
<stop offset="1" stop-color="#4DD4D6"/>
</linearGradient>
<linearGradient id="paint2_linear_112_2438" x1="58.836" y1="31.6905" x2="82.9896" y2="31.6905" gradientUnits="userSpaceOnUse">
<stop stop-color="#44BBBD"/>
<stop offset="1" stop-color="#4DD4D6"/>
</linearGradient>
<linearGradient id="paint3_linear_112_2438" x1="68.1404" y1="65.9125" x2="64.3492" y2="48.7382" gradientUnits="userSpaceOnUse">
<stop stop-color="#39A5B0"/>
<stop offset="1" stop-color="#3599A3"/>
</linearGradient>
<linearGradient id="paint4_linear_112_2438" x1="-0.488637" y1="43.9842" x2="22.8003" y2="32.1999" gradientUnits="userSpaceOnUse">
<stop stop-color="#3197AD"/>
<stop offset="1" stop-color="#297F92"/>
</linearGradient>
<linearGradient id="paint5_linear_112_2438" x1="18.132" y1="23.0558" x2="33.2319" y2="4.84616" gradientUnits="userSpaceOnUse">
<stop stop-color="#39A5B0"/>
<stop offset="1" stop-color="#3599A3"/>
</linearGradient>
</defs>
</svg>
