<svg width="1484" height="484" viewBox="0 0 1484 484" fill="none" xmlns="http://www.w3.org/2000/svg">
<path d="M606.886 175.519C618.376 186.479 624.121 202.562 624.121 223.768C624.121 244.975 618.376 261.058 606.886 272.019C595.403 282.982 579.197 288.463 558.27 288.459H519.884V349.41H480.934V159.078H558.27C579.185 159.078 595.389 164.558 606.886 175.519ZM585.17 223.768C585.17 202.742 575.55 192.229 556.311 192.229H519.884V255.06H556.311C565.648 255.06 572.791 252.655 577.74 247.846C582.689 243.037 585.166 235.01 585.17 223.768Z" fill="white"/>
<path d="M778.995 349.411H738.566L727.421 316.528H660.802L649.93 349.411H609.508L673.075 175.118C675.861 169.065 678.985 164.877 682.439 162.553C685.893 160.229 690.115 159.071 695.106 159.078C700.126 159.078 704.161 160.148 707.228 162.289C710.287 164.43 713.03 168.706 715.45 175.118L778.995 349.411ZM718.495 285.25L695.07 209.86L670.54 285.25H718.495Z" fill="white"/>
<path d="M846.21 349.41H808.223V159.078H846.21V349.41Z" fill="white"/>
<path d="M1041.72 253.433L1042 274.029C1041.26 287.039 1039.61 297.998 1037.01 306.909C1034.41 315.82 1029.34 323.928 1021.77 331.234C1009.22 343.352 990.932 349.41 966.933 349.41C938.668 349.41 919.279 345.802 908.752 338.584C898.225 331.368 892.961 318.311 892.961 299.416V159.078H969.698C991.859 159.078 1009.22 165.137 1021.77 177.255C1031.93 187.06 1037.93 199.001 1039.78 213.076C1041.07 223.057 1041.72 236.51 1041.72 253.433ZM1001.7 287.517C1002.7 280.303 1003.21 269.038 1003.21 253.719C1003.22 238.4 1002.71 227.31 1001.7 220.448C1000.68 213.587 998.415 208.107 994.903 204.008C988.261 196.143 978.653 192.211 966.1 192.211H931.473V297.54C931.473 304.67 933.965 309.571 938.956 312.243C943.939 314.915 952.851 316.251 965.684 316.251C978.516 316.251 988.254 312.331 994.903 304.49C998.408 300.403 1000.67 294.745 1001.7 287.517Z" fill="white"/>
<path d="M1208.56 349.41H1137.91C1115.47 349.41 1099.73 345.714 1090.67 338.32C1081.61 330.926 1077.07 317.872 1077.06 299.159V159.078H1208.56V192.213H1116.06V236.855H1180.82L1178.02 270.001H1116.04V296.465C1116.04 303.951 1117.82 309.118 1121.37 311.966C1124.92 314.815 1131.37 316.24 1140.71 316.244H1208.56V349.41Z" fill="white"/>
<path d="M1284.53 349.41H1246.54V159.078H1284.53V349.41Z" fill="white"/>
<path d="M1483.25 349.411H1442.83L1431.68 316.528H1365.04L1354.17 349.411H1313.76L1377.31 175.118C1380.1 169.065 1383.21 164.877 1386.67 162.553C1390.12 160.229 1394.34 159.071 1399.33 159.078C1404.35 159.078 1408.39 160.148 1411.45 162.289C1414.51 164.43 1417.25 168.706 1419.67 175.118L1483.25 349.411ZM1422.76 285.25L1399.35 209.86L1374.82 285.25H1422.76Z" fill="white"/>
<path d="M60.0276 0.9375H11.9465C5.49102 0.9375 0.257812 6.1815 0.257812 12.6503V313.008C0.257812 319.477 5.49102 324.721 11.9465 324.721H60.0276C66.4831 324.721 71.7164 319.477 71.7164 313.008V12.6503C71.7164 6.1815 66.4831 0.9375 60.0276 0.9375Z" fill="white"/>
<path d="M314.797 159.711H266.716C260.261 159.711 255.027 164.955 255.027 171.424V471.782C255.027 478.25 260.261 483.494 266.716 483.494H314.797C321.253 483.494 326.486 478.25 326.486 471.782V171.424C326.486 164.955 321.253 159.711 314.797 159.711Z" fill="white"/>
<path d="M187.41 0.9375H139.329C132.874 0.9375 127.641 6.1815 127.641 12.6503V185.363C127.641 191.832 132.874 197.076 139.329 197.076H187.41C193.866 197.076 199.099 191.832 199.099 185.363V12.6503C199.099 6.1815 193.866 0.9375 187.41 0.9375Z" fill="white"/>
<path d="M187.41 287.348H139.329C132.874 287.348 127.641 292.592 127.641 299.06V471.773C127.641 478.242 132.874 483.486 139.329 483.486H187.41C193.866 483.486 199.099 478.242 199.099 471.773V299.06C199.099 292.592 193.866 287.348 187.41 287.348Z" fill="white"/>
</svg>
