<svg width="237" height="42" viewBox="0 0 237 42" fill="none" xmlns="http://www.w3.org/2000/svg">
<path d="M28.6485 34.1194C25.2292 34.1194 22.2039 33.7631 20.3516 33.2167L22.2175 35.4296H35.3225L37.202 33.1367C35.3814 33.7284 32.2308 34.1194 28.6485 34.1194Z" fill="#EB1C24"/>
<path d="M58.7945 11.8584C63.7611 11.8584 66.7411 14.5543 66.7411 18.6132C66.7411 22.6721 63.7611 25.368 58.7945 25.368H57.6305V31.0435C57.6305 31.2428 57.4313 31.4405 57.1761 31.4405H52.0963C51.897 31.4405 51.6992 31.2413 51.6992 31.0435V12.2856C51.6992 12.0592 51.8985 11.8599 52.0963 11.8599H58.7945V11.8584ZM59.0496 20.2872C60.0429 20.2872 60.7238 19.6064 60.7238 18.6132C60.7238 17.62 60.0429 16.9392 59.0496 16.9392H57.5732V20.2872H59.0496Z" fill="#FFF9F0"/>
<path d="M83.1005 24.3752C83.1005 28.8462 80.0692 31.8258 75.5464 31.8258C71.0235 31.8258 67.9922 28.8462 67.9922 24.4008C67.9922 19.9555 71.0235 16.9502 75.5464 16.9502C80.0692 16.9502 83.1005 19.9299 83.1005 24.3752ZM73.0026 24.4008C73.0026 26.0703 74.0307 27.2009 75.5464 27.2009C77.062 27.2009 78.0901 26.0703 78.0901 24.3752C78.0901 22.6801 77.062 21.5752 75.5464 21.5752C74.0307 21.5752 73.0026 22.7057 73.0026 24.4008Z" fill="#FFF9F0"/>
<path d="M89.1397 18.6199C90.1165 17.592 91.7605 16.9248 93.4829 16.9248C97.5423 16.9248 100.267 19.906 100.267 24.3755C100.267 28.8449 97.5438 31.8004 93.4829 31.8004C92.2752 31.8004 91.1189 31.4412 90.3474 30.8238V35.8594C90.3474 36.039 90.1678 36.2186 89.9625 36.2186H85.4396C85.2343 36.2186 85.0547 36.039 85.0547 35.8594V17.6946C85.0547 17.4893 85.2343 17.3097 85.4396 17.3097H88.3427C88.5223 17.3097 88.6506 17.4637 88.7533 17.6946L89.1382 18.6199H89.1397ZM90.3474 25.9679C90.6554 26.8162 91.4782 27.3808 92.3779 27.3808C93.7909 27.3808 94.742 26.1989 94.742 24.4011C94.742 22.6034 93.7909 21.3173 92.3779 21.3173C91.4782 21.3173 90.6569 21.8834 90.3474 22.7302V25.9679Z" fill="#FFF9F0"/>
<path d="M106.304 18.6199C107.281 17.592 108.925 16.9248 110.647 16.9248C114.706 16.9248 117.431 19.906 117.431 24.3755C117.431 28.8449 114.708 31.8004 110.647 31.8004C109.439 31.8004 108.283 31.4412 107.512 30.8238V35.8594C107.512 36.039 107.332 36.2186 107.127 36.2186H102.604C102.398 36.2186 102.219 36.039 102.219 35.8594V17.6946C102.219 17.4893 102.398 17.3097 102.604 17.3097H105.507C105.686 17.3097 105.815 17.4637 105.917 17.6946L106.302 18.6199H106.304ZM107.512 25.9679C107.819 26.8162 108.642 27.3808 109.542 27.3808C110.955 27.3808 111.906 26.1989 111.906 24.4011C111.906 22.6034 110.955 21.3173 109.542 21.3173C108.642 21.3173 107.821 21.8834 107.512 22.7302V25.9679Z" fill="#FFF9F0"/>
<path d="M133.338 17.3096C133.569 17.3096 133.672 17.4892 133.621 17.6688L129.226 31.4395C127.993 35.2932 125.86 36.6034 122.572 36.6034C120.799 36.6034 119.051 36.0373 118.203 35.2162C118.074 35.0879 118.049 34.9083 118.074 34.7799L119.513 31.8773C119.59 31.6977 119.718 31.6463 119.821 31.7233C120.67 32.315 121.593 32.6486 122.339 32.6486C123.65 32.6486 124.318 32.0569 124.678 30.5671H122.57C122.313 30.5671 122.16 30.3874 122.108 30.2078L117.972 17.6703C117.895 17.4907 118.023 17.3111 118.228 17.3111H123.393C123.624 17.3111 123.803 17.465 123.88 17.6703L125.86 25.7383L127.813 17.6703C127.864 17.4394 128.095 17.3111 128.275 17.3111H133.337L133.338 17.3096Z" fill="#FFF9F0"/>
<path d="M152.09 11.8589C152.346 11.8589 152.516 12.0582 152.516 12.2559V16.5412C152.516 16.7963 152.346 16.9669 152.09 16.9669H144.882V19.5496H150.587C150.842 19.5496 150.984 19.7488 150.955 19.9179L150.558 23.8908C150.529 24.0613 150.332 24.2591 150.075 24.2591H144.882V31.041C144.882 31.2403 144.683 31.438 144.456 31.438H139.432C139.206 31.438 139.035 31.2116 139.035 31.0123V12.2544C139.035 12.0552 139.206 11.8574 139.432 11.8574H152.09V11.8589Z" fill="#FFF9F0"/>
<path d="M159.679 14.3023C159.679 15.8178 158.549 16.8457 156.853 16.8457C155.158 16.8457 154.027 15.8178 154.027 14.3023C154.027 12.7098 155.158 11.6562 156.853 11.6562C158.549 11.6562 159.679 12.7098 159.679 14.3023ZM159.14 17.3091C159.346 17.3091 159.525 17.4888 159.525 17.6684V31.0542C159.525 31.2595 159.346 31.4391 159.14 31.4391H154.618C154.412 31.4391 154.233 31.2595 154.233 31.0542V17.6684C154.233 17.4888 154.412 17.3091 154.618 17.3091H159.14Z" fill="#FFF9F0"/>
<path d="M165.869 18.3887C166.692 17.4891 168.439 16.9502 170.005 16.9502C173.5 16.9502 175.401 18.5683 175.401 22.5774V31.056C175.401 31.2613 175.221 31.4409 175.016 31.4409H170.493C170.288 31.4409 170.108 31.2613 170.134 31.056V23.3744C170.134 22.3465 169.672 21.7563 168.875 21.7563C167.41 21.7563 167.179 23.1948 167.179 23.1948V31.056C167.179 31.2613 167 31.4409 166.795 31.4409H162.272C162.066 31.4409 161.887 31.2613 161.887 31.056V17.6702C161.887 17.4393 162.015 17.311 162.246 17.311H165.123C165.303 17.311 165.457 17.3879 165.534 17.5676L165.868 18.3902L165.869 18.3887Z" fill="#FFF9F0"/>
<path d="M178.514 18.9019C178.437 18.7223 178.488 18.5427 178.642 18.4144C180.106 17.4891 182.163 16.9502 184.219 16.9502C188.664 16.9502 190.719 19.2883 190.719 24.4008V31.0545C190.719 31.2598 190.539 31.4394 190.334 31.4394H187.096C186.891 31.4394 186.685 31.2598 186.685 31.0545L186.506 30.3602C185.657 31.2598 183.962 31.8243 182.086 31.8243C179.131 31.8243 177.178 29.9224 177.203 27.0967C177.229 24.579 179.183 22.908 182.086 22.908C183.576 22.908 184.912 23.4484 185.426 24.2695V23.1903C185.426 22.0853 184.629 21.3668 183.447 21.3668C182.445 21.3668 181.211 21.7004 180.363 22.1895C180.235 22.2665 180.081 22.1638 179.978 21.9842L178.514 18.9004V18.9019ZM185.426 26.816C184.99 26.3797 184.552 26.1729 184.013 26.1729C183.37 26.1729 182.934 26.5322 182.934 27.0982C182.934 27.6643 183.37 28.0235 184.013 28.0235C184.552 28.0235 184.99 27.8182 185.426 27.3805V26.816Z" fill="#FFF9F0"/>
<path d="M197.064 18.3887C197.887 17.4891 199.634 16.9502 201.201 16.9502C204.696 16.9502 206.596 18.5683 206.596 22.5774V31.056C206.596 31.2613 206.417 31.4409 206.211 31.4409H201.688C201.483 31.4409 201.303 31.2613 201.329 31.056V23.3744C201.329 22.3465 200.867 21.7563 200.07 21.7563C198.606 21.7563 198.375 23.1948 198.375 23.1948V31.056C198.375 31.2613 198.195 31.4409 197.99 31.4409H193.467C193.262 31.4409 193.082 31.2613 193.082 31.056V17.6702C193.082 17.4393 193.21 17.311 193.441 17.311H196.319C196.498 17.311 196.652 17.3879 196.729 17.5676L197.063 18.3902L197.064 18.3887Z" fill="#FFF9F0"/>
<path d="M221.04 29.9491C221.117 30.0774 221.04 30.2571 220.886 30.3854C219.499 31.2593 217.597 31.8495 216.132 31.8495C211.481 31.8495 208.398 28.8684 208.398 24.3989C208.398 19.9294 211.483 16.9482 216.132 16.9482C217.597 16.9482 219.499 17.5384 220.886 18.4124C221.04 18.5407 221.117 18.7203 221.04 18.8486L219.55 21.9838C219.447 22.1891 219.268 22.266 219.088 22.1377C218.445 21.6758 217.47 21.3664 216.621 21.3664C214.745 21.3664 213.512 22.574 213.512 24.3974C213.512 26.2208 214.745 27.4284 216.621 27.4284C217.47 27.4284 218.445 27.1204 219.088 26.657C219.268 26.5287 219.447 26.6057 219.55 26.811L221.04 29.9461V29.9491Z" fill="#FFF9F0"/>
<path d="M234.918 30.0005C234.969 30.1801 234.918 30.2827 234.738 30.3854C233.376 31.285 231.397 31.8239 229.42 31.8239C224.871 31.8239 221.84 28.8442 221.84 24.3989C221.84 19.9536 224.82 16.9482 229.291 16.9482C233.763 16.9482 236.076 19.697 236.076 24.3732C236.076 24.7581 236.05 25.1446 235.973 25.5295C235.947 25.7348 235.819 25.8374 235.588 25.8374H227.339C227.339 25.8374 227.339 27.4555 229.498 27.4555C230.809 27.4555 232.273 27.1476 233.429 26.6072C233.609 26.5302 233.763 26.6329 233.814 26.8125L234.919 29.999L234.918 30.0005ZM230.961 23.14C230.961 22.0094 230.267 21.2638 229.24 21.2638C228.084 21.2638 227.312 22.0094 227.312 23.14H230.961Z" fill="#FFF9F0"/>
<circle cx="21" cy="21" r="21" fill="#FFD17C"/>
<path d="M9.15264 17.8748C8.3525 17.8748 7.70208 17.2303 7.6943 16.4301L7.69042 15.9479C7.68847 15.9197 7.6875 15.8925 7.6875 15.8643C7.6875 15.7564 7.69236 15.6475 7.70111 15.5405C7.76917 14.6811 8.10167 13.879 8.66361 13.2218C8.81236 13.0487 8.97472 12.8883 9.14972 12.7425C9.14486 12.269 9.22069 11.7946 9.37722 11.3347C9.54736 10.836 9.80403 10.3751 10.1414 9.96484C10.4729 9.56623 10.8589 9.23957 11.2935 8.98679C11.3139 8.97415 11.3343 8.96151 11.3557 8.94984C11.8311 8.68346 12.3532 8.51332 12.8869 8.44818C12.9151 8.40832 12.9453 8.36846 12.9744 8.33054C13.4119 7.76762 13.9875 7.34471 14.6408 7.10554C15.055 6.95387 15.4896 6.87804 15.9349 6.87804C16.0826 6.87804 16.2314 6.88679 16.3801 6.90332C16.6854 6.52415 17.0549 6.19359 17.4778 5.92332C18.1671 5.48193 18.9731 5.21943 19.8092 5.16401C19.9219 5.15623 20.0357 5.15234 20.1485 5.15234C20.8689 5.15234 21.5883 5.30887 22.2281 5.60443C22.8337 5.88443 23.3587 6.28012 23.7836 6.76915C23.7992 6.76915 23.8137 6.76915 23.8293 6.76915C24.4369 6.76915 25.0446 6.91693 25.5851 7.1979C26.0722 7.4497 26.4893 7.79873 26.8111 8.22068C26.9365 8.21096 27.0619 8.20609 27.1883 8.20609C27.9165 8.20609 28.6525 8.37818 29.3175 8.70387C29.9835 9.02957 30.5746 9.51082 31.0237 10.0961C31.3815 10.5608 31.6469 11.0848 31.8122 11.6448C32.311 11.849 32.7689 12.1533 33.1529 12.5422C33.9103 13.3083 34.3283 14.3233 34.3283 15.4015C34.3283 15.5143 34.3235 15.6261 34.3137 15.736C34.3099 15.7846 34.305 15.8341 34.2982 15.8828C34.2807 16.0335 34.2544 16.1832 34.2204 16.33L34.1232 16.748C33.9696 17.4082 33.3804 17.8748 32.7028 17.8748H9.15264ZM28.0692 13.878C28.0021 13.6321 27.9817 13.3725 28.0108 13.1187C28.0108 13.1148 28.0108 13.111 28.0118 13.108V13.0293C28.0118 12.831 27.9574 12.6618 27.8533 12.5257C27.7775 12.4275 27.6774 12.3458 27.5617 12.2894C27.445 12.2321 27.3167 12.2019 27.1883 12.2019C27.026 12.2019 26.8733 12.2535 26.7363 12.3565C26.4008 12.618 25.9974 12.7629 25.5667 12.7775C25.5501 12.7775 25.5249 12.7785 25.5006 12.7785C25.1399 12.7785 24.785 12.6803 24.4739 12.4946C24.0996 12.2729 23.8128 11.9423 23.6446 11.5379C23.6426 11.5321 23.6397 11.5262 23.6378 11.5214C23.5726 11.36 23.5289 11.1928 23.5075 11.0246C23.4637 11.0401 23.42 11.0528 23.3753 11.0654C23.3306 11.0771 23.2858 11.0878 23.2411 11.0946C23.1118 11.1198 22.9796 11.1335 22.8483 11.1335C22.7093 11.1335 22.5712 11.1189 22.4361 11.0907C22.0725 11.0148 21.7371 10.8389 21.4658 10.5812C21.2033 10.3343 21.0128 10.0203 20.9136 9.67318C20.9097 9.66054 20.9068 9.64693 20.9029 9.63429C20.8358 9.43887 20.724 9.30957 20.5529 9.23082C20.4353 9.17637 20.2972 9.14818 20.1514 9.14818C20.1261 9.14818 20.1018 9.14818 20.0765 9.15109C19.9074 9.16276 19.7479 9.21137 19.6274 9.28818C19.4835 9.38054 19.4067 9.50498 19.3804 9.69165C19.3318 10.0183 19.2074 10.3275 19.0168 10.589C18.8301 10.8486 18.5754 11.0635 18.2789 11.2103C18.2361 11.2326 18.1914 11.254 18.1467 11.2725C17.9056 11.3707 17.6508 11.4212 17.3883 11.4212C17.2901 11.4212 17.191 11.4144 17.0947 11.3998C16.7856 11.3551 16.4919 11.2375 16.2372 11.0596C16.2081 11.0401 16.1799 11.0197 16.1526 10.9983C16.1283 10.9789 16.106 10.9633 16.0846 10.9497C16.0311 11.2015 15.9261 11.4465 15.7822 11.6594C15.7628 11.6886 15.7424 11.7168 15.72 11.744C15.5557 11.9618 15.3525 12.1407 15.1172 12.2758C15.0851 12.2943 15.0531 12.3108 15.02 12.3264C14.8032 12.4353 14.566 12.5053 14.3239 12.5305C14.2549 12.5373 14.1849 12.5412 14.1149 12.5412C13.8951 12.5412 13.6793 12.5053 13.4712 12.4353C13.4353 12.4236 13.4061 12.4178 13.3818 12.4178C13.3653 12.4178 13.341 12.4197 13.3089 12.4372C13.3031 12.4401 13.2972 12.443 13.2924 12.4469C13.27 12.4625 13.2476 12.4829 13.2272 12.5082C13.1951 12.5471 13.1728 12.586 13.1601 12.6248C13.1378 12.691 13.1456 12.7551 13.1864 12.829C13.1981 12.8494 13.2088 12.8698 13.2185 12.8903L13.2224 12.898C13.3478 13.144 13.4207 13.4085 13.4372 13.6865C13.4411 13.7293 13.4431 13.7721 13.4431 13.8148C13.4431 13.8372 13.4431 13.8586 13.4421 13.881H28.0701L28.0692 13.878Z" fill="black"/>
<path d="M14.6612 15.5126C13.6131 15.5126 12.7381 14.693 12.6681 13.6479C12.6623 13.5613 12.6594 13.4651 12.6603 13.3562C12.6603 13.3523 12.6603 13.3484 12.6603 13.3455C12.6613 13.2434 12.6671 13.1413 12.6759 13.0412C12.7673 12.0534 13.2271 11.1599 13.9719 10.5134C13.9933 10.494 14.0146 10.4745 14.037 10.456C14.7185 9.89119 15.5809 9.5791 16.4656 9.5791C16.5833 9.5791 16.7038 9.58493 16.8215 9.59563C17.0635 9.61799 17.3027 9.66368 17.5341 9.73077C17.7665 9.79882 17.992 9.88827 18.2078 9.9991C19.1859 10.4988 19.5758 11.7044 19.0751 12.6844C18.7319 13.3552 18.0513 13.7723 17.2969 13.7723C17.0781 13.7723 16.8594 13.7354 16.6523 13.6654C16.6212 14.096 16.452 14.5015 16.1633 14.831C15.8113 15.2326 15.3252 15.4737 14.7924 15.5087C14.7477 15.5116 14.704 15.5126 14.6602 15.5126H14.6612Z" fill="black"/>
<path d="M27.7933 16.189C27.5405 16.189 27.2926 16.1414 27.0573 16.048C26.3427 15.7641 25.8819 15.1118 25.8071 14.3953C25.0905 14.2368 24.5023 13.6904 24.3069 12.9593C24.1689 12.444 24.2408 11.9054 24.5072 11.4436C24.7736 10.9818 25.2052 10.6512 25.7205 10.5132C25.9995 10.4383 26.2873 10.4004 26.5741 10.4004C27.4559 10.4004 28.2862 10.7446 28.9114 11.3697C29.5384 11.9968 29.8826 12.8271 29.8826 13.7098C29.8826 13.915 29.8622 14.124 29.8223 14.3311C29.7825 14.5343 29.7241 14.7346 29.6473 14.928C29.343 15.6941 28.6148 16.189 27.7914 16.189H27.7933Z" fill="black"/>
<path d="M23.4622 15.9022C22.6329 15.9022 21.9202 15.3995 21.6188 14.6762C21.6062 14.683 21.5926 14.6898 21.58 14.6956C21.2951 14.8366 20.9976 14.9086 20.6981 14.9086C20.6029 14.9086 20.5125 14.9018 20.4288 14.8891C20.0613 15.2537 19.5577 15.4715 19.0211 15.4715C18.7858 15.4715 18.5544 15.4306 18.3337 15.349C17.2993 14.9698 16.7665 13.8197 17.1456 12.7852C17.2575 12.479 17.415 12.1951 17.6133 11.9404C17.8126 11.6847 18.0498 11.462 18.3191 11.2783C18.8354 10.9254 19.4294 10.7319 20.039 10.7193C20.0604 10.7193 20.0818 10.7193 20.1022 10.7193C20.179 10.7193 20.2558 10.7222 20.3326 10.728C20.7983 10.5083 21.3116 10.3945 21.8425 10.3945C21.9241 10.3945 22.0068 10.3974 22.0894 10.4033C22.0981 10.4033 22.1059 10.4043 22.1147 10.4052C22.8847 10.4626 23.6284 10.7659 24.2088 11.2588C24.448 11.462 24.659 11.6954 24.8359 11.954C25.0226 12.2272 25.1713 12.5266 25.2773 12.8426C25.3823 13.1566 25.4436 13.4862 25.4591 13.8187C25.5068 14.9222 24.6502 15.8555 23.5497 15.9031C23.5205 15.9041 23.4923 15.9051 23.4631 15.9051L23.4622 15.9022Z" fill="black"/>
<path fill-rule="evenodd" clip-rule="evenodd" d="M21.5509 37.6986C21.4333 37.6986 21.3147 37.6986 21.1961 37.6967C21.0774 37.6986 20.9598 37.6986 20.8412 37.6986C18.2347 37.6986 14.6141 37.2835 12.9866 36.112C12.6833 35.8932 12.4752 35.5675 12.4062 35.2L9.19009 18.227C8.8362 18.122 8.51148 17.9285 8.24217 17.6602C7.81634 17.2343 7.58203 16.6685 7.58203 16.0667C7.58203 15.6583 7.69286 15.2578 7.90384 14.9088C8.17314 14.4615 8.65245 14.202 9.15314 14.202C9.30286 14.202 9.45453 14.2253 9.60328 14.2729C9.96689 14.3906 10.2576 14.6414 10.4316 14.9593H31.5561C31.7388 14.5986 32.0684 14.3206 32.4758 14.2097C32.6022 14.1757 32.7305 14.1592 32.8579 14.1592C33.3323 14.1592 33.7863 14.3906 34.0624 14.796C34.3191 15.1722 34.4552 15.6117 34.4552 16.0667C34.4552 16.9388 33.9574 17.6971 33.2312 18.0714L29.9859 35.2C29.9159 35.5675 29.7088 35.8932 29.4055 36.112C27.779 37.2835 24.1574 37.6986 21.5509 37.6986Z" fill="black"/>
<path fill-rule="evenodd" clip-rule="evenodd" d="M9.15264 17.8744C8.3525 17.8744 7.70208 17.2299 7.6943 16.4297L7.69042 15.9475C7.68847 15.9193 7.6875 15.8921 7.6875 15.8639C7.6875 15.754 7.69236 15.6432 7.70208 15.5343C7.72055 15.3156 7.78861 15.1036 7.90139 14.914C8.30486 14.2344 9.04667 13.8115 9.83708 13.8115H32.205C32.8058 13.8115 33.3717 14.0458 33.7975 14.4717C33.8947 14.5689 33.9832 14.6749 34.061 14.7867C34.2486 15.0589 34.339 15.3865 34.3157 15.7161C34.3118 15.7715 34.306 15.826 34.2992 15.8814C34.2817 16.0311 34.2554 16.1818 34.2214 16.3286L34.1242 16.7467C33.9706 17.4068 33.3814 17.8735 32.7038 17.8735H9.15264V17.8744Z" fill="black"/>
<path d="M32.8448 15.5264C32.9323 15.6547 32.9839 15.8093 32.9839 15.9755C32.9839 16.413 32.6261 16.7708 32.1896 16.7708H31.963L28.5398 34.8376C27.4043 35.6553 24.2835 36.1909 21.183 36.1472C18.0826 36.1909 14.9618 35.6553 13.8262 34.8376L10.403 16.7708H9.82165C9.6029 16.7708 9.40457 16.6814 9.26068 16.5375C9.11679 16.3936 9.02734 16.1943 9.02734 15.9755C9.02734 15.8278 9.06818 15.6887 9.14012 15.5691C9.13429 15.6372 9.13137 15.7053 9.13137 15.7743L9.13332 15.7791V15.7908L9.13818 16.3265H32.6873L32.7846 15.9094C32.8069 15.8132 32.8244 15.713 32.8361 15.611C32.84 15.5828 32.8429 15.5546 32.8448 15.5264ZM27.1632 34.3116L29.5733 16.7951H27.5676L26.9396 23.6094L26.819 24.9209L26.6216 27.0628L26.4933 28.453L25.9255 34.6111C26.5283 34.5207 26.6547 34.4196 27.1632 34.3116ZM24.1853 22.2454L24.4585 16.7951H22.8407L22.7085 21.9508L22.6822 22.9707L22.5325 28.7729L22.5062 29.7986L22.374 34.931C22.7853 34.9057 23.179 34.8765 23.5553 34.8425L23.8187 29.573L23.8712 28.5279L24.1347 23.2691L24.1853 22.2454ZM19.9921 34.931L19.8598 29.7986L19.8336 28.7729L19.6839 22.9707L19.6576 21.9508L19.5254 16.7951H17.9076L18.1808 22.2454L18.2314 23.2691L18.4948 28.5279L18.5473 29.574L18.8108 34.8425C19.1871 34.8765 19.5798 34.9057 19.9921 34.931ZM16.4405 34.6111L15.8728 28.453L15.7444 27.0628L15.5471 24.9209L15.4265 23.6094L14.7985 16.7951L12.7928 16.7844L15.2019 34.3116C15.7114 34.4196 15.8378 34.5207 16.4405 34.6111Z" fill="#EB1C24"/>
<path d="M32.8551 15.3107C32.8551 15.3807 32.8522 15.4526 32.8453 15.5265C32.8172 15.4857 32.786 15.4487 32.751 15.4137C32.6072 15.2698 32.4078 15.1804 32.1901 15.1804H31.7691C31.739 14.811 31.5795 14.4804 31.3374 14.2354C31.0672 13.9622 30.6928 13.794 30.2797 13.794C30.2369 13.794 30.2019 13.795 30.1756 13.7969C30.1406 13.7989 30.1085 13.8018 30.0794 13.8057C29.9977 13.8193 29.9122 13.8115 29.8295 13.7853L29.8149 13.7814C29.7342 13.7532 29.6642 13.7094 29.6049 13.6492H29.604C29.5505 13.5957 29.5058 13.5286 29.4756 13.446C29.4465 13.3662 29.4358 13.2787 29.4455 13.1932C29.4503 13.1514 29.4533 13.1125 29.4552 13.0755L29.4572 12.9482C29.4572 12.396 29.2812 11.9196 28.9963 11.5482C28.7795 11.2653 28.5005 11.0417 28.1884 10.889C27.8773 10.7364 27.5302 10.6537 27.1744 10.6537C26.7135 10.6537 26.244 10.7976 25.8317 11.1117C25.7384 11.1865 25.6266 11.2254 25.506 11.2293C25.403 11.2332 25.297 11.206 25.2047 11.1505C25.0958 11.0864 25.0199 10.9911 24.9762 10.8861L24.9742 10.8812C24.9363 10.7869 24.9227 10.6771 24.9431 10.5701L24.9451 10.5614C25.0122 10.2435 24.9665 9.98096 24.8527 9.77873C24.7506 9.59693 24.5912 9.45596 24.4065 9.35971C24.212 9.2586 23.9933 9.20804 23.7842 9.21387C23.5665 9.21971 23.3642 9.28679 23.2272 9.42387L23.2184 9.43165C23.1523 9.49484 23.0726 9.54151 22.9792 9.56679L22.9647 9.56873C22.8878 9.58721 22.8033 9.59012 22.7197 9.57262C22.6127 9.55026 22.5233 9.49873 22.4533 9.43165C22.3774 9.36068 22.3259 9.27026 22.3006 9.18179H22.3026C22.1062 8.50804 21.6716 8.0579 21.1505 7.81679C20.783 7.64665 20.3708 7.57762 19.9644 7.60484C19.558 7.63207 19.1613 7.75457 18.8269 7.96846C18.3641 8.26498 18.0151 8.74332 17.9217 9.39373C17.9081 9.48609 17.8731 9.57068 17.8216 9.64165C17.7642 9.72137 17.6865 9.78165 17.596 9.82248L17.5805 9.83123C17.4901 9.86818 17.388 9.87984 17.2917 9.86526C17.1965 9.85165 17.109 9.81471 17.0322 9.75346H17.0312C16.7492 9.53568 16.4634 9.40346 16.1922 9.35096C15.9462 9.30332 15.7099 9.32082 15.5009 9.39762C15.2967 9.47248 15.113 9.60762 14.9672 9.79526C14.8165 9.98971 14.7047 10.2396 14.6463 10.54L14.6444 10.5487C14.6298 10.6197 14.6006 10.6887 14.5598 10.749L14.551 10.7597C14.5024 10.8278 14.4431 10.8803 14.377 10.9182H14.376C14.308 10.9571 14.2331 10.9804 14.1583 10.9882C14.0747 10.9969 13.9949 10.9862 13.923 10.9619C13.431 10.7947 12.9615 10.8608 12.5823 11.0728H12.5803C12.3927 11.1778 12.2255 11.3197 12.0855 11.4898C11.9455 11.659 11.8356 11.8525 11.7647 12.0596C11.6188 12.4893 11.6383 12.9851 11.8988 13.4498L11.9066 13.4654C11.9435 13.5364 11.9649 13.6161 11.9678 13.7026L11.9698 13.7221C11.9698 13.7969 11.9542 13.8776 11.9134 13.9622L11.9076 13.9787C11.8706 14.0497 11.8172 14.1129 11.7501 14.1644L11.7462 14.1664C11.6694 14.2247 11.576 14.2626 11.4788 14.2743C11.121 14.3297 10.8041 14.5144 10.5776 14.7789C10.4755 14.8985 10.3919 15.0336 10.3306 15.1804H9.82215C9.5334 15.1804 9.27868 15.3369 9.14062 15.5693C9.18437 15.0025 9.40993 14.4862 9.75799 14.0789C10.0147 13.7794 10.3384 13.5393 10.7059 13.3828C10.5377 12.8121 10.5669 12.2346 10.7438 11.7135C10.8576 11.379 11.0326 11.0698 11.2533 10.8015C11.4749 10.5351 11.7462 10.3057 12.0553 10.1336H12.0544C12.5453 9.85748 13.1238 9.72818 13.7353 9.81373C13.8335 9.55804 13.9619 9.33054 14.1145 9.13318C14.3867 8.78318 14.7348 8.52943 15.1295 8.38457C15.5203 8.24165 15.953 8.20665 16.3953 8.29221C16.6122 8.33401 16.8309 8.40498 17.0487 8.50512C17.2956 7.88096 17.7253 7.39679 18.2494 7.06137C18.7403 6.74735 19.312 6.56748 19.8924 6.52859C20.4738 6.48971 21.0678 6.59082 21.6026 6.83776C22.216 7.12165 22.7478 7.59415 23.092 8.26401C23.303 8.18526 23.5285 8.14346 23.759 8.13762C24.1459 8.1279 24.5474 8.21929 24.9003 8.40207C25.2649 8.59068 25.5828 8.87748 25.7938 9.25082C25.8862 9.41609 25.9581 9.59596 26.0028 9.79137C26.3849 9.6436 26.7816 9.57359 27.1744 9.57359C27.6887 9.57359 28.1991 9.69609 28.6609 9.92262C29.1227 10.1482 29.534 10.4787 29.8528 10.8939C30.2369 11.3936 30.4877 12.0148 30.5315 12.7255C31.142 12.7858 31.6903 13.061 32.1006 13.4761C32.5663 13.9467 32.8551 14.5961 32.8551 15.3107Z" fill="#EB1C24"/>
<path d="M32.8463 15.5268C32.8443 15.555 32.8414 15.5832 32.8375 15.6114C32.8259 15.7134 32.8084 15.8136 32.786 15.9098L32.6888 16.3269H9.13962L9.13476 15.7912V15.7796L9.13281 15.7747C9.13281 15.7057 9.13573 15.6376 9.14156 15.5696C9.27962 15.3372 9.53434 15.1807 9.82309 15.1807H10.3316C10.3218 15.2021 10.3131 15.2244 10.3053 15.2468H31.7739C31.773 15.2244 31.772 15.203 31.77 15.1807H32.191C32.4088 15.1807 32.6081 15.2701 32.752 15.414C32.787 15.449 32.8181 15.4859 32.8463 15.5268Z" fill="#EB1C24"/>
<path d="M31.7694 15.1807C31.7714 15.203 31.7723 15.2244 31.7733 15.2468H10.3047C10.3125 15.2244 10.3212 15.2021 10.3309 15.1807H31.7694Z" fill="#CE3A3A"/>
<path d="M31.7705 15.1799H10.332C10.3933 15.0331 10.4769 14.898 10.579 14.7784C10.8055 14.514 11.1224 14.3293 11.4802 14.2738C11.5774 14.2622 11.6708 14.2243 11.7476 14.1659L11.7515 14.164C11.8186 14.1124 11.872 14.0493 11.909 13.9783L11.9148 13.9618C11.9556 13.8772 11.9712 13.7965 11.9712 13.7216L11.9693 13.7022C11.9663 13.6156 11.9449 13.5359 11.908 13.4649L11.9002 13.4494C11.6397 12.9847 11.6202 12.4888 11.7661 12.0591C11.837 11.852 11.9469 11.6586 12.0869 11.4894C12.2269 11.3193 12.3941 11.1773 12.5818 11.0723H12.5837C12.9629 10.8604 13.4324 10.7943 13.9244 10.9615C13.9963 10.9858 14.0761 10.9965 14.1597 10.9877C14.2345 10.9799 14.3094 10.9566 14.3774 10.9168H14.3784C14.4445 10.8798 14.5038 10.8273 14.5524 10.7593L14.5612 10.7486C14.602 10.6883 14.6312 10.6193 14.6458 10.5483L14.6477 10.5395C14.7061 10.2391 14.8179 9.98925 14.9686 9.79481C15.1144 9.60717 15.2981 9.47203 15.5023 9.39717C15.7113 9.32037 15.9476 9.30287 16.1936 9.35051C16.4648 9.40301 16.7506 9.53523 17.0326 9.75398H17.0336C17.1104 9.81425 17.1979 9.8512 17.2931 9.86481C17.3894 9.87939 17.4915 9.86773 17.5819 9.83078L17.5974 9.82203C17.6879 9.7812 17.7656 9.72092 17.823 9.6412C17.8745 9.57023 17.9095 9.48564 17.9231 9.39328C18.0165 8.74287 18.3655 8.26453 18.8283 7.96801C19.1627 7.75412 19.5594 7.63162 19.9658 7.60439C20.3722 7.57717 20.7844 7.6462 21.1519 7.81634C21.673 8.05745 22.1076 8.50759 22.304 9.18134H22.302C22.3273 9.26981 22.3788 9.36023 22.4547 9.4312C22.5247 9.49828 22.6141 9.54981 22.7211 9.57217C22.8047 9.58967 22.8893 9.58675 22.9661 9.56828L22.9806 9.56634C23.074 9.54106 23.1537 9.49439 23.2198 9.4312L23.2286 9.42342C23.3656 9.28634 23.5679 9.21925 23.7856 9.21342C23.9947 9.20759 24.2134 9.25814 24.4079 9.35926C24.5926 9.45551 24.752 9.59648 24.8541 9.77828C24.9679 9.9805 25.0136 10.243 24.9465 10.5609L24.9445 10.5697C24.9241 10.6766 24.9377 10.7865 24.9756 10.8808L24.9776 10.8856C25.0213 10.9906 25.0972 11.0859 25.2061 11.1501C25.2984 11.2055 25.4044 11.2327 25.5074 11.2288C25.628 11.2249 25.7398 11.1861 25.8331 11.1112C26.2454 10.7972 26.7149 10.6533 27.1758 10.6533C27.5316 10.6533 27.8787 10.7359 28.1898 10.8886C28.5019 11.0412 28.7809 11.2648 28.9977 11.5477C29.2826 11.9191 29.4586 12.3955 29.4586 12.9477L29.4566 13.0751C29.4547 13.112 29.4518 13.1509 29.4469 13.1927C29.4372 13.2783 29.4479 13.3658 29.477 13.4455C29.5072 13.5281 29.5519 13.5952 29.6054 13.6497H29.6063C29.6656 13.709 29.7356 13.7527 29.8163 13.7809L29.8309 13.7848C29.9136 13.8111 29.9991 13.8188 30.0808 13.8052C30.1099 13.8013 30.142 13.7984 30.177 13.7965C30.2033 13.7945 30.2383 13.7936 30.2811 13.7936C30.6943 13.7936 31.0686 13.9618 31.3388 14.2349C31.5809 14.4799 31.7404 14.8105 31.7705 15.1799ZM28.3813 13.9666C28.4037 13.849 28.4154 13.7323 28.4154 13.6195C28.4154 13.1101 28.2073 12.6473 27.8729 12.3129L27.8709 12.3109C27.5365 11.9765 27.0737 11.7684 26.5643 11.7684C26.4058 11.7684 26.2444 11.7898 26.0869 11.8326C25.7991 11.9094 25.629 12.2049 25.7058 12.4927C25.7826 12.7805 26.0781 12.9516 26.3659 12.8748C26.4281 12.8573 26.4952 12.8495 26.5643 12.8495C26.7772 12.8495 26.9697 12.9351 27.1097 13.0722L27.1116 13.0741C27.2487 13.2141 27.3343 13.4066 27.3343 13.6195C27.3343 13.6711 27.3304 13.7197 27.3216 13.7644V13.7663C27.3129 13.8149 27.2993 13.8616 27.2827 13.9034C27.1729 14.1795 27.308 14.4926 27.5841 14.6024C27.8602 14.7113 28.1733 14.5762 28.2831 14.3001C28.3269 14.1902 28.3599 14.0784 28.3813 13.9666ZM23.493 13.6273C23.7905 13.6147 24.0209 13.3638 24.0083 13.0663C23.9986 12.868 23.9626 12.6726 23.9004 12.4859C23.8372 12.2993 23.7497 12.1213 23.6388 11.9599C23.5329 11.8054 23.4094 11.6693 23.2713 11.5526C22.9155 11.2502 22.4673 11.0752 22.0133 11.0412H22.0113C21.5515 11.0072 21.0799 11.118 20.6862 11.3873L20.6094 11.4427C20.4354 11.3834 20.2565 11.3572 20.0756 11.3611C19.7519 11.3679 19.4311 11.4729 19.1491 11.6663C19.0033 11.7655 18.8759 11.8851 18.7719 12.0202C18.6669 12.1554 18.5823 12.308 18.522 12.4713C18.419 12.7513 18.5629 13.0615 18.8429 13.1636C19.1219 13.2666 19.432 13.1227 19.5351 12.8427C19.5555 12.7854 19.5856 12.7309 19.6245 12.6823C19.6624 12.6327 19.7072 12.5899 19.7568 12.5569C19.8676 12.4801 19.9852 12.4393 20.097 12.4373C20.413 12.4305 20.5394 12.7708 20.9429 12.5715C21.0868 12.5005 21.1606 12.3693 21.2938 12.2779C21.4776 12.1525 21.7051 12.1009 21.9326 12.1174C22.1669 12.1349 22.3963 12.2234 22.5752 12.3751C22.6404 12.4315 22.6987 12.4956 22.7483 12.5676C22.8047 12.6493 22.8484 12.7377 22.8786 12.8281C22.9097 12.9195 22.9272 13.0158 22.932 13.113C22.9447 13.4095 23.1955 13.6399 23.493 13.6273ZM17.7666 11.9288C17.9018 11.6644 17.7968 11.3397 17.5323 11.2045C17.3981 11.1365 17.2591 11.0811 17.1172 11.0393C16.9743 10.9974 16.8265 10.9693 16.6768 10.9556C16.0293 10.8954 15.4197 11.1024 14.9579 11.4865V11.4884C14.4951 11.8724 14.1781 12.4334 14.1179 13.0809C14.112 13.1441 14.1091 13.2073 14.1081 13.2705V13.2724C14.1081 13.3444 14.1081 13.4076 14.113 13.4591C14.1324 13.7566 14.3891 13.9812 14.6866 13.9618C14.9841 13.9413 15.2087 13.6847 15.1883 13.3872C15.1854 13.3434 15.1844 13.3094 15.1844 13.2831V13.2812C15.1854 13.2472 15.1873 13.2122 15.1902 13.1781C15.2223 12.8291 15.3934 12.5248 15.6443 12.3168H15.6452C15.898 12.1087 16.2295 11.9949 16.5795 12.028C16.6593 12.0348 16.739 12.0504 16.8168 12.0727C16.8955 12.0961 16.9713 12.1262 17.0423 12.1631C17.3077 12.2983 17.6315 12.1933 17.7666 11.9288Z" fill="#FFD17C"/>
<path d="M29.5736 16.7949L27.1634 34.3114C26.6549 34.4194 26.5286 34.5205 25.9258 34.6109L26.4936 28.4528L26.6219 27.0626L26.8193 24.9208L26.9398 23.6092L27.5679 16.7949H29.5736Z" fill="white"/>
<path d="M28.4116 13.6197C28.4116 13.7324 28.3999 13.8491 28.3776 13.9667C28.3562 14.0786 28.3231 14.1904 28.2794 14.3002C28.1695 14.5763 27.8565 14.7115 27.5804 14.6026C27.3043 14.4927 27.1691 14.1797 27.279 13.9036C27.2955 13.8617 27.3091 13.8151 27.3179 13.7665V13.7645C27.3266 13.7198 27.3305 13.6712 27.3305 13.6197C27.3305 13.4067 27.2449 13.2142 27.1079 13.0742L27.1059 13.0723C26.9659 12.9352 26.7734 12.8497 26.5605 12.8497C26.4915 12.8497 26.4244 12.8574 26.3622 12.8749C26.0744 12.9517 25.7788 12.7806 25.702 12.4929C25.6252 12.2051 25.7954 11.9095 26.0831 11.8327C26.2406 11.7899 26.402 11.7686 26.5605 11.7686C27.0699 11.7686 27.5327 11.9766 27.8672 12.3111L27.8691 12.313C28.2036 12.6474 28.4116 13.1102 28.4116 13.6197Z" fill="#EB1C24"/>
<path d="M24.4594 16.7949L24.1863 22.2452L24.1357 23.2689L23.8722 28.5277L23.8197 29.5728L23.5563 34.8423C23.18 34.8763 22.7862 34.9055 22.375 34.9308L22.5072 29.7984L22.5335 28.7727L22.6832 22.9705L22.7094 21.9506L22.8417 16.7949H24.4594Z" fill="white"/>
<path d="M24.0079 13.0672C24.0205 13.3647 23.7901 13.6156 23.4926 13.6282C23.1951 13.6409 22.9443 13.4104 22.9316 13.1139C22.9268 13.0167 22.9093 12.9204 22.8781 12.829C22.848 12.7386 22.8043 12.6502 22.7479 12.5685C22.6983 12.4965 22.64 12.4324 22.5748 12.376C22.3959 12.2243 22.1665 12.1359 21.9322 12.1184C21.7047 12.1018 21.4772 12.1534 21.2934 12.2788C21.1602 12.3702 21.0863 12.5014 20.9425 12.5724C20.539 12.7717 20.4126 12.4314 20.0966 12.4382C19.9848 12.4402 19.8672 12.481 19.7563 12.5578C19.7068 12.5909 19.662 12.6336 19.6241 12.6832C19.5852 12.7318 19.5551 12.7863 19.5347 12.8436C19.4316 13.1236 19.1215 13.2675 18.8425 13.1645C18.5625 13.0624 18.4186 12.7522 18.5216 12.4722C18.5819 12.3089 18.6665 12.1563 18.7715 12.0211C18.8755 11.886 19.0029 11.7664 19.1487 11.6672C19.4306 11.4738 19.7515 11.3688 20.0752 11.362C20.2561 11.3581 20.435 11.3843 20.609 11.4436L20.6858 11.3882C21.0795 11.1189 21.5511 11.0081 22.0109 11.0421H22.0129C22.4669 11.0761 22.9151 11.2511 23.2709 11.5535C23.409 11.6702 23.5325 11.8063 23.6384 11.9609C23.7493 12.1222 23.8368 12.3002 23.9 12.4868C23.9622 12.6735 23.9981 12.8689 24.0079 13.0672Z" fill="#EB1C24"/>
<path d="M19.8585 29.7984L19.9907 34.9308C19.5785 34.9055 19.1857 34.8763 18.8094 34.8423L18.546 29.5738L18.4935 28.5277L18.23 23.2689L18.1794 22.2452L17.9062 16.7949H19.524L19.6562 21.9506L19.6825 22.9705L19.8322 28.7727L19.8585 29.7984Z" fill="white"/>
<path d="M17.5296 11.2045C17.7941 11.3397 17.8991 11.6644 17.7639 11.9288C17.6288 12.1933 17.3051 12.2983 17.0396 12.1631C16.9687 12.1262 16.8928 12.0961 16.8141 12.0727C16.7363 12.0504 16.6566 12.0348 16.5769 12.028C16.2269 11.9949 15.8953 12.1087 15.6426 12.3177H15.6416C15.3907 12.5248 15.2196 12.8291 15.1876 13.1781C15.1846 13.2122 15.1827 13.2472 15.1817 13.2812V13.2831C15.1817 13.3094 15.1827 13.3434 15.1856 13.3872C15.206 13.6847 14.9814 13.9413 14.6839 13.9617C14.3864 13.9812 14.1298 13.7566 14.1103 13.4591C14.1064 13.4076 14.1055 13.3444 14.1055 13.2724V13.2705C14.1055 13.2073 14.1094 13.1441 14.1152 13.0809C14.1755 12.4334 14.4924 11.8724 14.9552 11.4884V11.4865C15.417 11.1024 16.0266 10.8954 16.6741 10.9556C16.8238 10.9692 16.9716 10.9974 17.1145 11.0392C17.2564 11.0811 17.3955 11.1365 17.5296 11.2045Z" fill="#EB1C24"/>
<path d="M15.873 28.4528L16.4407 34.6108C15.838 34.5204 15.7116 34.4193 15.2021 34.3114L12.793 16.7842L14.7987 16.7949L15.4267 23.6092L15.5473 24.9207L15.7446 27.0625L15.873 28.4528Z" fill="white"/>
<path d="M21.0298 34.422C18.1015 34.422 15.5085 34.1167 13.9219 33.6481L15.5202 35.544H26.7474L28.3574 33.5801C26.797 34.0866 24.0981 34.422 21.0288 34.422H21.0298Z" fill="#EB1C24"/>
<path d="M22.9512 28.9193C22.782 28.9193 22.6119 28.8765 22.4592 28.7968L21.2488 28.16L20.0384 28.7968C19.8858 28.8765 19.7156 28.9193 19.5465 28.9193C19.2344 28.9193 18.9388 28.7813 18.7366 28.5411C18.5363 28.3039 18.4517 27.9908 18.5052 27.6826L18.7366 26.3342L17.7576 25.3794C17.4669 25.0965 17.3648 24.6814 17.4902 24.2954C17.6156 23.9104 17.9423 23.6343 18.3438 23.576L19.6971 23.3796L20.3028 22.1526C20.4827 21.789 20.8453 21.5635 21.2508 21.5635C21.6562 21.5635 22.0198 21.789 22.1987 22.1526L22.8044 23.3796L24.1577 23.576C24.5592 23.6343 24.8859 23.9104 25.0113 24.2954C25.1367 24.6814 25.0337 25.0965 24.744 25.3794L23.7649 26.3342L23.9963 27.6826C24.0488 27.9908 23.9642 28.3039 23.7639 28.5411C23.5608 28.7813 23.2662 28.9193 22.9541 28.9193H22.9512Z" fill="#FFD17C"/>
<path d="M21.2478 22.1471C21.4169 22.1471 21.5861 22.2356 21.6726 22.4116L22.3036 23.6901C22.3726 23.8301 22.5058 23.9273 22.6604 23.9496L24.0711 24.1548C24.46 24.2112 24.6146 24.6885 24.3336 24.9627L23.3128 25.9573C23.201 26.0662 23.1504 26.2227 23.1767 26.3763L23.4178 27.7812C23.4703 28.0874 23.2272 28.3363 22.9511 28.3363C22.8782 28.3363 22.8033 28.3188 22.7304 28.2809L21.4685 27.6178C21.3994 27.5819 21.3236 27.5634 21.2478 27.5634C21.1719 27.5634 21.0961 27.5819 21.0271 27.6178L19.7651 28.2809C19.6922 28.3188 19.6174 28.3363 19.5444 28.3363C19.2683 28.3363 19.0253 28.0874 19.0778 27.7812L19.3189 26.3763C19.3451 26.2227 19.2946 26.0662 19.1828 25.9573L18.1619 24.9627C17.881 24.6885 18.0356 24.2112 18.4244 24.1548L19.8351 23.9496C19.9897 23.9273 20.1229 23.8301 20.1919 23.6901L20.8229 22.4116C20.9094 22.2356 21.0786 22.1471 21.2478 22.1471ZM21.2478 20.9805C20.6187 20.9805 20.0549 21.3305 19.7768 21.8953L19.3072 22.8471L18.2572 22.9998C17.635 23.0902 17.1275 23.518 16.9331 24.1159C16.7386 24.7138 16.8981 25.3584 17.3482 25.7978L18.1085 26.5387L17.9296 27.5848C17.8479 28.0631 17.9792 28.5482 18.2903 28.9177C18.6043 29.2901 19.0622 29.5039 19.5464 29.5039C19.8099 29.5039 20.0743 29.4388 20.3096 29.3144L21.2487 28.8205L22.1879 29.3144C22.4242 29.4388 22.6876 29.5039 22.9511 29.5039C23.4353 29.5039 23.8932 29.2901 24.2072 28.9177C24.5183 28.5482 24.6496 28.0621 24.5679 27.5848L24.389 26.5387L25.1493 25.7978C25.5994 25.3584 25.7589 24.7148 25.5644 24.1159C25.37 23.518 24.8625 23.0902 24.2403 22.9998L23.1903 22.8471L22.7207 21.8953C22.4426 21.3314 21.8787 20.9805 21.2497 20.9805H21.2478Z" fill="black"/>
</svg>
