<svg width="531" height="93" viewBox="0 0 531 93" fill="none" xmlns="http://www.w3.org/2000/svg">
<g filter="url(#filter0_dddd_328_256)">
<path d="M27.076 67.348C26.5347 67.348 26.1093 67.1933 25.8 66.884C25.4907 66.536 25.336 66.072 25.336 65.492V27.966C25.336 27.3473 25.4907 26.8833 25.8 26.574C26.148 26.2647 26.5927 26.11 27.134 26.11H40.764C45.0947 26.11 48.42 27.154 50.74 29.242C53.06 31.33 54.22 34.3073 54.22 38.174C54.22 42.002 53.06 44.9793 50.74 47.106C48.42 49.194 45.0947 50.238 40.764 50.238H28.874V65.492C28.874 66.072 28.7193 66.536 28.41 66.884C28.1393 67.1933 27.6947 67.348 27.076 67.348ZM28.874 47.106H40.474C43.838 47.106 46.3707 46.352 48.072 44.844C49.7733 43.336 50.624 41.1127 50.624 38.174C50.624 35.2353 49.7733 33.012 48.072 31.504C46.3707 29.9573 43.838 29.184 40.474 29.184H28.874V47.106ZM64.965 67.348C64.385 67.348 63.9403 67.1933 63.631 66.884C63.3216 66.5747 63.167 66.13 63.167 65.55V40.32C63.167 39.7013 63.3216 39.2373 63.631 38.928C63.9403 38.6187 64.385 38.464 64.965 38.464C65.5063 38.464 65.9123 38.6187 66.183 38.928C66.4923 39.2373 66.647 39.7013 66.647 40.32V45.482H66.067C66.763 43.2007 68.0003 41.4413 69.779 40.204C71.5963 38.9667 73.7616 38.3287 76.275 38.29C76.739 38.2513 77.1256 38.348 77.435 38.58C77.7443 38.812 77.899 39.1793 77.899 39.682C77.9376 40.2233 77.8216 40.6487 77.551 40.958C77.2803 41.2287 76.8356 41.4027 76.217 41.48L75.405 41.538C72.6596 41.8087 70.533 42.7173 69.025 44.264C67.517 45.8107 66.763 47.8987 66.763 50.528V65.55C66.763 66.13 66.6083 66.5747 66.299 66.884C66.0283 67.1933 65.5836 67.348 64.965 67.348ZM96.7453 67.464C94.116 67.464 91.8347 66.8647 89.9013 65.666C87.968 64.4673 86.46 62.7853 85.3773 60.62C84.3333 58.4547 83.8113 55.8833 83.8113 52.906C83.8113 50.702 84.1013 48.7107 84.6813 46.932C85.3 45.1533 86.17 43.626 87.2913 42.35C88.4513 41.0353 89.824 40.0493 91.4093 39.392C93.0333 38.696 94.812 38.348 96.7453 38.348C99.4133 38.348 101.714 38.9473 103.647 40.146C105.581 41.3447 107.069 43.046 108.113 45.25C109.196 47.4153 109.737 49.9673 109.737 52.906C109.737 55.1487 109.428 57.1593 108.809 58.938C108.229 60.7167 107.359 62.244 106.199 63.52C105.078 64.796 103.725 65.782 102.139 66.478C100.554 67.1353 98.756 67.464 96.7453 67.464ZM96.7453 64.506C98.6787 64.506 100.341 64.0613 101.733 63.172C103.164 62.244 104.247 60.91 104.981 59.17C105.755 57.43 106.141 55.342 106.141 52.906C106.141 49.2327 105.291 46.3907 103.589 44.38C101.927 42.3693 99.6453 41.364 96.7453 41.364C94.8507 41.364 93.188 41.828 91.7573 42.756C90.3653 43.6453 89.2827 44.96 88.5093 46.7C87.7747 48.4013 87.4073 50.47 87.4073 52.906C87.4073 56.618 88.258 59.4793 89.9593 61.49C91.6607 63.5007 93.9227 64.506 96.7453 64.506ZM131.364 67.464C128.735 67.464 126.453 66.8647 124.52 65.666C122.587 64.4673 121.079 62.7853 119.996 60.62C118.952 58.4547 118.43 55.8833 118.43 52.906C118.43 50.702 118.72 48.7107 119.3 46.932C119.919 45.1533 120.789 43.626 121.91 42.35C123.07 41.0353 124.443 40.0493 126.028 39.392C127.652 38.696 129.431 38.348 131.364 38.348C134.032 38.348 136.333 38.9473 138.266 40.146C140.199 41.3447 141.688 43.046 142.732 45.25C143.815 47.4153 144.356 49.9673 144.356 52.906C144.356 55.1487 144.047 57.1593 143.428 58.938C142.848 60.7167 141.978 62.244 140.818 63.52C139.697 64.796 138.343 65.782 136.758 66.478C135.173 67.1353 133.375 67.464 131.364 67.464ZM131.364 64.506C133.297 64.506 134.96 64.0613 136.352 63.172C137.783 62.244 138.865 60.91 139.6 59.17C140.373 57.43 140.76 55.342 140.76 52.906C140.76 49.2327 139.909 46.3907 138.208 44.38C136.545 42.3693 134.264 41.364 131.364 41.364C129.469 41.364 127.807 41.828 126.376 42.756C124.984 43.6453 123.901 44.96 123.128 46.7C122.393 48.4013 122.026 50.47 122.026 52.906C122.026 56.618 122.877 59.4793 124.578 61.49C126.279 63.5007 128.541 64.506 131.364 64.506ZM157.638 67.348C157.058 67.348 156.613 67.1933 156.304 66.884C155.994 66.5747 155.84 66.13 155.84 65.55V41.712H151.722C151.219 41.712 150.813 41.596 150.504 41.364C150.233 41.0933 150.098 40.726 150.098 40.262C150.098 39.8367 150.233 39.508 150.504 39.276C150.813 39.0053 151.219 38.87 151.722 38.87H156.768L155.84 39.798V37.478C155.84 33.9207 156.69 31.1947 158.392 29.3C160.093 27.4053 162.626 26.3033 165.99 25.994L167.556 25.878C167.981 25.8393 168.31 25.9167 168.542 26.11C168.812 26.2647 168.986 26.4773 169.064 26.748C169.18 27.0187 169.199 27.3087 169.122 27.618C169.044 27.8887 168.89 28.14 168.658 28.372C168.464 28.5653 168.213 28.6813 167.904 28.72L166.28 28.894C163.882 29.0873 162.123 29.88 161.002 31.272C159.919 32.6253 159.378 34.5973 159.378 37.188V39.682L158.856 38.87H166.28C166.821 38.87 167.227 39.0053 167.498 39.276C167.768 39.508 167.904 39.8367 167.904 40.262C167.904 40.726 167.768 41.0933 167.498 41.364C167.227 41.596 166.821 41.712 166.28 41.712H159.378V65.55C159.378 66.7487 158.798 67.348 157.638 67.348ZM204.634 67.464C202.005 67.464 199.724 66.8647 197.79 65.666C195.857 64.4673 194.349 62.7853 193.266 60.62C192.222 58.4547 191.7 55.8833 191.7 52.906C191.7 50.702 191.99 48.7107 192.57 46.932C193.189 45.1533 194.059 43.626 195.18 42.35C196.34 41.0353 197.713 40.0493 199.298 39.392C200.922 38.696 202.701 38.348 204.634 38.348C207.302 38.348 209.603 38.9473 211.536 40.146C213.47 41.3447 214.958 43.046 216.002 45.25C217.085 47.4153 217.626 49.9673 217.626 52.906C217.626 55.1487 217.317 57.1593 216.698 58.938C216.118 60.7167 215.248 62.244 214.088 63.52C212.967 64.796 211.614 65.782 210.028 66.478C208.443 67.1353 206.645 67.464 204.634 67.464ZM204.634 64.506C206.568 64.506 208.23 64.0613 209.622 63.172C211.053 62.244 212.136 60.91 212.87 59.17C213.644 57.43 214.03 55.342 214.03 52.906C214.03 49.2327 213.18 46.3907 211.478 44.38C209.816 42.3693 207.534 41.364 204.634 41.364C202.74 41.364 201.077 41.828 199.646 42.756C198.254 43.6453 197.172 44.96 196.398 46.7C195.664 48.4013 195.296 50.47 195.296 52.906C195.296 56.618 196.147 59.4793 197.848 61.49C199.55 63.5007 201.812 64.506 204.634 64.506ZM230.908 67.348C230.328 67.348 229.883 67.1933 229.574 66.884C229.265 66.5747 229.11 66.13 229.11 65.55V41.712H224.992C224.489 41.712 224.083 41.596 223.774 41.364C223.503 41.0933 223.368 40.726 223.368 40.262C223.368 39.8367 223.503 39.508 223.774 39.276C224.083 39.0053 224.489 38.87 224.992 38.87H230.038L229.11 39.798V37.478C229.11 33.9207 229.961 31.1947 231.662 29.3C233.363 27.4053 235.896 26.3033 239.26 25.994L240.826 25.878C241.251 25.8393 241.58 25.9167 241.812 26.11C242.083 26.2647 242.257 26.4773 242.334 26.748C242.45 27.0187 242.469 27.3087 242.392 27.618C242.315 27.8887 242.16 28.14 241.928 28.372C241.735 28.5653 241.483 28.6813 241.174 28.72L239.55 28.894C237.153 29.0873 235.393 29.88 234.272 31.272C233.189 32.6253 232.648 34.5973 232.648 37.188V39.682L232.126 38.87H239.55C240.091 38.87 240.497 39.0053 240.768 39.276C241.039 39.508 241.174 39.8367 241.174 40.262C241.174 40.726 241.039 41.0933 240.768 41.364C240.497 41.596 240.091 41.712 239.55 41.712H232.648V65.55C232.648 66.7487 232.068 67.348 230.908 67.348ZM284.459 67.464C280.553 67.464 277.209 66.6327 274.425 64.97C271.641 63.2687 269.495 60.852 267.987 57.72C266.517 54.588 265.783 50.8567 265.783 46.526C265.783 43.278 266.189 40.378 267.001 37.826C267.851 35.2353 269.069 33.0507 270.655 31.272C272.279 29.4547 274.251 28.0627 276.571 27.096C278.929 26.1293 281.559 25.646 284.459 25.646C287.011 25.646 289.389 26.0133 291.593 26.748C293.797 27.4827 295.691 28.5653 297.277 29.996C297.663 30.344 297.915 30.7113 298.031 31.098C298.147 31.4847 298.147 31.852 298.031 32.2C297.953 32.5093 297.779 32.78 297.509 33.012C297.238 33.2053 296.909 33.302 296.523 33.302C296.175 33.2633 295.788 33.07 295.363 32.722C293.893 31.446 292.25 30.4987 290.433 29.88C288.654 29.2613 286.682 28.952 284.517 28.952C281.307 28.952 278.581 29.648 276.339 31.04C274.135 32.3933 272.453 34.3847 271.293 37.014C270.171 39.6433 269.611 42.814 269.611 46.526C269.611 50.2767 270.171 53.4667 271.293 56.096C272.453 58.7253 274.135 60.736 276.339 62.128C278.581 63.4813 281.307 64.158 284.517 64.158C286.643 64.158 288.615 63.8487 290.433 63.23C292.25 62.5727 293.913 61.606 295.421 60.33C295.846 59.982 296.233 59.808 296.581 59.808C296.967 59.808 297.277 59.924 297.509 60.156C297.779 60.3493 297.973 60.62 298.089 60.968C298.205 61.2773 298.205 61.606 298.089 61.954C298.011 62.302 297.799 62.6307 297.451 62.94C295.788 64.448 293.855 65.5887 291.651 66.362C289.485 67.0967 287.088 67.464 284.459 67.464ZM316.26 67.464C314.365 67.464 312.664 67.0967 311.156 66.362C309.687 65.6273 308.507 64.622 307.618 63.346C306.767 62.07 306.342 60.6393 306.342 59.054C306.342 56.966 306.864 55.3227 307.908 54.124C308.952 52.9253 310.711 52.094 313.186 51.63C315.661 51.1273 319.063 50.876 323.394 50.876H325.888V53.486H323.452C319.972 53.486 317.246 53.6407 315.274 53.95C313.341 54.2207 311.987 54.7427 311.214 55.516C310.441 56.2893 310.054 57.372 310.054 58.764C310.054 60.504 310.653 61.9153 311.852 62.998C313.051 64.0807 314.675 64.622 316.724 64.622C318.387 64.622 319.837 64.2353 321.074 63.462C322.35 62.65 323.355 61.548 324.09 60.156C324.825 58.764 325.192 57.1787 325.192 55.4V48.788C325.192 46.1973 324.67 44.322 323.626 43.162C322.582 41.9633 320.919 41.364 318.638 41.364C317.169 41.364 315.738 41.5573 314.346 41.944C312.993 42.3307 311.543 42.9493 309.996 43.8C309.571 44.032 309.184 44.1093 308.836 44.032C308.527 43.9547 308.275 43.8 308.082 43.568C307.927 43.336 307.811 43.0653 307.734 42.756C307.695 42.408 307.753 42.0793 307.908 41.77C308.063 41.4607 308.333 41.2093 308.72 41.016C310.344 40.1267 311.987 39.4693 313.65 39.044C315.351 38.58 316.995 38.348 318.58 38.348C320.861 38.348 322.737 38.7347 324.206 39.508C325.714 40.2813 326.816 41.4413 327.512 42.988C328.247 44.5347 328.614 46.526 328.614 48.962V65.55C328.614 66.13 328.479 66.5747 328.208 66.884C327.937 67.1933 327.531 67.348 326.99 67.348C326.449 67.348 326.023 67.1933 325.714 66.884C325.405 66.5747 325.25 66.13 325.25 65.55V60.214H325.83C325.482 61.722 324.863 63.0173 323.974 64.1C323.085 65.1827 321.983 66.014 320.668 66.594C319.353 67.174 317.884 67.464 316.26 67.464ZM342.561 67.348C341.981 67.348 341.536 67.1933 341.227 66.884C340.917 66.5747 340.763 66.13 340.763 65.55V40.32C340.763 39.7013 340.917 39.2373 341.227 38.928C341.536 38.6187 341.981 38.464 342.561 38.464C343.102 38.464 343.508 38.6187 343.779 38.928C344.088 39.2373 344.243 39.7013 344.243 40.32V45.482H343.663C344.359 43.2007 345.596 41.4413 347.375 40.204C349.192 38.9667 351.357 38.3287 353.871 38.29C354.335 38.2513 354.721 38.348 355.031 38.58C355.34 38.812 355.495 39.1793 355.495 39.682C355.533 40.2233 355.417 40.6487 355.147 40.958C354.876 41.2287 354.431 41.4027 353.813 41.48L353.001 41.538C350.255 41.8087 348.129 42.7173 346.621 44.264C345.113 45.8107 344.359 47.8987 344.359 50.528V65.55C344.359 66.13 344.204 66.5747 343.895 66.884C343.624 67.1933 343.179 67.348 342.561 67.348ZM373.877 67.464C371.364 67.464 369.16 66.884 367.265 65.724C365.409 64.5253 363.959 62.8433 362.915 60.678C361.91 58.474 361.407 55.8833 361.407 52.906C361.407 49.9287 361.91 47.3573 362.915 45.192C363.92 43.0267 365.351 41.3447 367.207 40.146C369.102 38.9473 371.325 38.348 373.877 38.348C376.506 38.348 378.749 39.0247 380.605 40.378C382.461 41.7313 383.698 43.5487 384.317 45.83H383.679V27.56C383.679 26.9413 383.834 26.4967 384.143 26.226C384.452 25.9167 384.878 25.762 385.419 25.762C385.999 25.762 386.444 25.9167 386.753 26.226C387.062 26.4967 387.217 26.9413 387.217 27.56V65.55C387.217 66.13 387.062 66.5747 386.753 66.884C386.444 67.1933 386.018 67.348 385.477 67.348C384.897 67.348 384.452 67.1933 384.143 66.884C383.834 66.5747 383.679 66.13 383.679 65.55V59.576L384.317 59.982C383.698 62.2633 382.461 64.0807 380.605 65.434C378.749 66.7873 376.506 67.464 373.877 67.464ZM374.341 64.506C376.274 64.506 377.937 64.0613 379.329 63.172C380.76 62.244 381.842 60.91 382.577 59.17C383.35 57.43 383.737 55.342 383.737 52.906C383.737 49.2327 382.886 46.3907 381.185 44.38C379.522 42.3693 377.241 41.364 374.341 41.364C372.446 41.364 370.784 41.828 369.353 42.756C367.961 43.6453 366.878 44.96 366.105 46.7C365.37 48.4013 365.003 50.47 365.003 52.906C365.003 56.618 365.854 59.4793 367.555 61.49C369.256 63.5007 371.518 64.506 374.341 64.506ZM408.108 67.464C406.214 67.464 404.512 67.0967 403.004 66.362C401.535 65.6273 400.356 64.622 399.466 63.346C398.616 62.07 398.19 60.6393 398.19 59.054C398.19 56.966 398.712 55.3227 399.756 54.124C400.8 52.9253 402.56 52.094 405.034 51.63C407.509 51.1273 410.912 50.876 415.242 50.876H417.736V53.486H415.3C411.82 53.486 409.094 53.6407 407.122 53.95C405.189 54.2207 403.836 54.7427 403.062 55.516C402.289 56.2893 401.902 57.372 401.902 58.764C401.902 60.504 402.502 61.9153 403.7 62.998C404.899 64.0807 406.523 64.622 408.572 64.622C410.235 64.622 411.685 64.2353 412.922 63.462C414.198 62.65 415.204 61.548 415.938 60.156C416.673 58.764 417.04 57.1787 417.04 55.4V48.788C417.04 46.1973 416.518 44.322 415.474 43.162C414.43 41.9633 412.768 41.364 410.486 41.364C409.017 41.364 407.586 41.5573 406.194 41.944C404.841 42.3307 403.391 42.9493 401.844 43.8C401.419 44.032 401.032 44.1093 400.684 44.032C400.375 43.9547 400.124 43.8 399.93 43.568C399.776 43.336 399.66 43.0653 399.582 42.756C399.544 42.408 399.602 42.0793 399.756 41.77C399.911 41.4607 400.182 41.2093 400.568 41.016C402.192 40.1267 403.836 39.4693 405.498 39.044C407.2 38.58 408.843 38.348 410.428 38.348C412.71 38.348 414.585 38.7347 416.054 39.508C417.562 40.2813 418.664 41.4413 419.36 42.988C420.095 44.5347 420.462 46.526 420.462 48.962V65.55C420.462 66.13 420.327 66.5747 420.056 66.884C419.786 67.1933 419.38 67.348 418.838 67.348C418.297 67.348 417.872 67.1933 417.562 66.884C417.253 66.5747 417.098 66.13 417.098 65.55V60.214H417.678C417.33 61.722 416.712 63.0173 415.822 64.1C414.933 65.1827 413.831 66.014 412.516 66.594C411.202 67.174 409.732 67.464 408.108 67.464ZM434.409 67.348C433.829 67.348 433.384 67.1933 433.075 66.884C432.766 66.5747 432.611 66.13 432.611 65.55V40.32C432.611 39.7013 432.766 39.2373 433.075 38.928C433.384 38.6187 433.829 38.464 434.409 38.464C434.95 38.464 435.356 38.6187 435.627 38.928C435.936 39.2373 436.091 39.7013 436.091 40.32V45.772L435.453 45.424C436.226 43.104 437.541 41.3447 439.397 40.146C441.292 38.9473 443.457 38.348 445.893 38.348C448.136 38.348 449.992 38.754 451.461 39.566C452.969 40.3393 454.09 41.538 454.825 43.162C455.56 44.786 455.927 46.816 455.927 49.252V65.55C455.927 66.13 455.772 66.5747 455.463 66.884C455.154 67.1933 454.728 67.348 454.187 67.348C453.607 67.348 453.162 67.1933 452.853 66.884C452.544 66.5747 452.389 66.13 452.389 65.55V49.542C452.389 46.7193 451.828 44.67 450.707 43.394C449.586 42.0793 447.807 41.422 445.371 41.422C442.587 41.422 440.344 42.292 438.643 44.032C436.98 45.7333 436.149 48.034 436.149 50.934V65.55C436.149 66.7487 435.569 67.348 434.409 67.348ZM479.16 67.464C476.531 67.464 474.25 66.8647 472.316 65.666C470.383 64.4673 468.875 62.7853 467.792 60.62C466.748 58.4547 466.226 55.8833 466.226 52.906C466.226 50.702 466.516 48.7107 467.096 46.932C467.715 45.1533 468.585 43.626 469.706 42.35C470.866 41.0353 472.239 40.0493 473.824 39.392C475.448 38.696 477.227 38.348 479.16 38.348C481.828 38.348 484.129 38.9473 486.062 40.146C487.996 41.3447 489.484 43.046 490.528 45.25C491.611 47.4153 492.152 49.9673 492.152 52.906C492.152 55.1487 491.843 57.1593 491.224 58.938C490.644 60.7167 489.774 62.244 488.614 63.52C487.493 64.796 486.14 65.782 484.554 66.478C482.969 67.1353 481.171 67.464 479.16 67.464ZM479.16 64.506C481.094 64.506 482.756 64.0613 484.148 63.172C485.579 62.244 486.662 60.91 487.396 59.17C488.17 57.43 488.556 55.342 488.556 52.906C488.556 49.2327 487.706 46.3907 486.004 44.38C484.342 42.3693 482.06 41.364 479.16 41.364C477.266 41.364 475.603 41.828 474.172 42.756C472.78 43.6453 471.698 44.96 470.924 46.7C470.19 48.4013 469.822 50.47 469.822 52.906C469.822 56.618 470.673 59.4793 472.374 61.49C474.076 63.5007 476.338 64.506 479.16 64.506ZM502.966 67.174C502.192 67.174 501.554 66.9227 501.052 66.42C500.549 65.9173 500.298 65.2793 500.298 64.506C500.298 63.7327 500.549 63.0947 501.052 62.592C501.554 62.0893 502.192 61.838 502.966 61.838C503.778 61.838 504.416 62.0893 504.88 62.592C505.382 63.0947 505.634 63.7327 505.634 64.506C505.634 65.2793 505.382 65.9173 504.88 66.42C504.416 66.9227 503.778 67.174 502.966 67.174Z" fill="#F7F7F7"/>
<path d="M25.8 66.884L24.3052 68.2127L24.3442 68.2567L24.3858 68.2982L25.8 66.884ZM25.8 26.574L24.4713 25.0792L24.4273 25.1182L24.3858 25.1598L25.8 26.574ZM50.74 29.242L52.0779 27.7554L50.74 29.242ZM50.74 47.106L52.0779 48.5926L52.0847 48.5865L52.0914 48.5803L50.74 47.106ZM28.874 50.238V48.238H26.874V50.238H28.874ZM28.41 66.884L26.9152 65.5553L26.91 65.5611L26.9048 65.567L28.41 66.884ZM28.874 47.106H26.874V49.106H28.874V47.106ZM48.072 44.844L49.3986 46.3407L48.072 44.844ZM48.072 31.504L46.7267 32.9839L46.736 32.9923L46.7454 33.0007L48.072 31.504ZM28.874 29.184V27.184H26.874V29.184H28.874ZM27.076 65.348C26.9939 65.348 26.9898 65.3362 27.0345 65.3524C27.0571 65.3606 27.0876 65.3745 27.1217 65.396C27.1561 65.4177 27.1875 65.4431 27.2142 65.4698L24.3858 68.2982C25.1551 69.0675 26.1377 69.348 27.076 69.348V65.348ZM27.2948 65.5553C27.3099 65.5722 27.3231 65.5908 27.3335 65.609C27.3438 65.6269 27.3483 65.6393 27.3494 65.6425C27.3513 65.6483 27.336 65.6059 27.336 65.492H23.336C23.336 66.4368 23.596 67.4149 24.3052 68.2127L27.2948 65.5553ZM27.336 65.492V27.966H23.336V65.492H27.336ZM27.336 27.966C27.336 27.8939 27.3406 27.8443 27.3449 27.8138C27.3492 27.7836 27.3528 27.7762 27.3494 27.7865C27.3457 27.7973 27.3351 27.8255 27.312 27.864C27.2885 27.9032 27.256 27.9464 27.2142 27.9882L24.3858 25.1598C23.5691 25.9765 23.336 27.039 23.336 27.966H27.336ZM27.1287 28.0688C27.1188 28.0776 27.1054 28.0877 27.0895 28.097C27.0736 28.1063 27.0601 28.112 27.0515 28.115C27.0336 28.1212 27.0541 28.11 27.134 28.11V24.11C26.1874 24.11 25.244 24.3923 24.4713 25.0792L27.1287 28.0688ZM27.134 28.11H40.764V24.11H27.134V28.11ZM40.764 28.11C44.7925 28.11 47.5706 29.0803 49.4021 30.7286L52.0779 27.7554C49.2694 25.2277 45.3968 24.11 40.764 24.11V28.11ZM49.4021 30.7286C51.2032 32.3496 52.22 34.7284 52.22 38.174H56.22C56.22 33.8863 54.9168 30.3104 52.0779 27.7554L49.4021 30.7286ZM52.22 38.174C52.22 41.5724 51.2077 43.9642 49.3886 45.6317L52.0914 48.5803C54.9123 45.9945 56.22 42.4316 56.22 38.174H52.22ZM49.4021 45.6194C47.5706 47.2677 44.7925 48.238 40.764 48.238V52.238C45.3968 52.238 49.2694 51.1203 52.0779 48.5926L49.4021 45.6194ZM40.764 48.238H28.874V52.238H40.764V48.238ZM26.874 50.238V65.492H30.874V50.238H26.874ZM26.874 65.492C26.874 65.6059 26.8587 65.6483 26.8606 65.6425C26.8617 65.6393 26.8662 65.6269 26.8765 65.609C26.8869 65.5908 26.9001 65.5722 26.9152 65.5553L29.9048 68.2127C30.614 67.4149 30.874 66.4368 30.874 65.492H26.874ZM26.9048 65.567C26.9632 65.5003 27.0263 65.4478 27.086 65.4091C27.1445 65.3711 27.1915 65.3517 27.2165 65.343C27.26 65.3279 27.2279 65.348 27.076 65.348V69.348C27.9777 69.348 29.1067 69.125 29.9152 68.201L26.9048 65.567ZM28.874 49.106H40.474V45.106H28.874V49.106ZM40.474 49.106C44.0979 49.106 47.1903 48.298 49.3986 46.3407L46.7454 43.3473C45.551 44.4059 43.5781 45.106 40.474 45.106V49.106ZM49.3986 46.3407C51.6456 44.349 52.624 41.5066 52.624 38.174H48.624C48.624 40.7187 47.901 42.323 46.7454 43.3473L49.3986 46.3407ZM52.624 38.174C52.624 34.8414 51.6456 31.999 49.3986 30.0073L46.7454 33.0007C47.901 34.025 48.624 35.6293 48.624 38.174H52.624ZM49.4173 30.0241C47.2089 28.0164 44.1088 27.184 40.474 27.184V31.184C43.5672 31.184 45.5324 31.8982 46.7267 32.9839L49.4173 30.0241ZM40.474 27.184H28.874V31.184H40.474V27.184ZM26.874 29.184V47.106H30.874V29.184H26.874ZM63.631 66.884L65.0452 65.4698L63.631 66.884ZM63.631 38.928L62.2167 37.5138L62.2167 37.5138L63.631 38.928ZM66.183 38.928L64.6778 40.245L64.7217 40.2951L64.7687 40.3422L66.183 38.928ZM66.647 45.482V47.482H68.647V45.482H66.647ZM66.067 45.482L64.154 44.8984L63.3658 47.482H66.067V45.482ZM69.779 40.204L68.6534 38.5508L68.6451 38.5565L68.6368 38.5622L69.779 40.204ZM76.275 38.29L76.3057 40.2898L76.3735 40.2887L76.441 40.2831L76.275 38.29ZM77.435 38.58L76.235 40.18L76.235 40.18L77.435 38.58ZM77.899 39.682H75.899V39.7533L75.904 39.8245L77.899 39.682ZM77.551 40.958L78.9652 42.3722L79.0123 42.3251L79.0561 42.275L77.551 40.958ZM76.217 41.48L76.3595 43.4749L76.4124 43.4711L76.465 43.4646L76.217 41.48ZM75.405 41.538L75.2625 39.5431L75.2356 39.545L75.2087 39.5476L75.405 41.538ZM66.299 66.884L64.8847 65.4698L64.8377 65.5169L64.7938 65.567L66.299 66.884ZM64.965 65.348C64.8487 65.348 64.8221 65.3321 64.8535 65.343C64.8704 65.3489 64.9 65.3612 64.9365 65.3837C64.9735 65.4065 65.0109 65.4355 65.0452 65.4698L62.2167 68.2982C63.0111 69.0926 64.0334 69.348 64.965 69.348V65.348ZM65.0452 65.4698C65.0795 65.5041 65.1085 65.5414 65.1313 65.5784C65.1538 65.615 65.1661 65.6445 65.1719 65.6615C65.1829 65.6929 65.167 65.6663 65.167 65.55H61.167C61.167 66.4815 61.4224 67.5038 62.2167 68.2982L65.0452 65.4698ZM65.167 65.55V40.32H61.167V65.55H65.167ZM65.167 40.32C65.167 40.2479 65.1715 40.1983 65.1759 40.1678C65.1802 40.1376 65.1837 40.1302 65.1803 40.1405C65.1767 40.1513 65.166 40.1795 65.1429 40.218C65.1194 40.2572 65.087 40.3004 65.0452 40.3422L62.2167 37.5138C61.4 38.3305 61.167 39.393 61.167 40.32H65.167ZM65.0452 40.3422C65.0109 40.3765 64.9735 40.4055 64.9365 40.4283C64.8999 40.4508 64.8704 40.4631 64.8535 40.469C64.8221 40.4799 64.8487 40.464 64.965 40.464V36.464C64.0334 36.464 63.0111 36.7194 62.2167 37.5138L65.0452 40.3422ZM64.965 40.464C65.0499 40.464 65.0361 40.4767 64.9635 40.449C64.8789 40.4168 64.7701 40.3505 64.6778 40.245L67.6881 37.611C66.9263 36.7404 65.8892 36.464 64.965 36.464V40.464ZM64.7687 40.3422C64.7269 40.3004 64.6945 40.2572 64.671 40.218C64.6479 40.1795 64.6372 40.1513 64.6336 40.1405C64.6302 40.1302 64.6337 40.1376 64.6381 40.1678C64.6424 40.1983 64.647 40.2479 64.647 40.32H68.647C68.647 39.393 68.4139 38.3305 67.5972 37.5138L64.7687 40.3422ZM64.647 40.32V45.482H68.647V40.32H64.647ZM66.647 43.482H66.067V47.482H66.647V43.482ZM67.9799 46.0656C68.559 44.1676 69.5484 42.8007 70.9211 41.8458L68.6368 38.5622C66.4522 40.0819 64.9669 42.2338 64.154 44.8984L67.9799 46.0656ZM70.9045 41.8572C72.3541 40.8703 74.1257 40.3233 76.3057 40.2898L76.2442 36.2902C73.3975 36.334 70.8385 37.0631 68.6534 38.5508L70.9045 41.8572ZM76.441 40.2831C76.4905 40.279 76.4796 40.2867 76.4279 40.2738C76.3707 40.2595 76.3001 40.2289 76.235 40.18L78.635 36.98C77.8572 36.3966 76.9563 36.2263 76.1089 36.2969L76.441 40.2831ZM76.235 40.18C76.097 40.0765 75.9955 39.9382 75.9397 39.8056C75.8904 39.6885 75.899 39.6301 75.899 39.682H79.899C79.899 38.7565 79.593 37.6985 78.635 36.98L76.235 40.18ZM75.904 39.8245C75.9109 39.9202 75.8982 39.9294 75.9114 39.8808C75.9184 39.8553 75.9316 39.8175 75.9551 39.7728C75.9789 39.7276 76.0094 39.6825 76.0458 39.641L79.0561 42.275C79.78 41.4477 79.9579 40.4361 79.8939 39.5395L75.904 39.8245ZM76.1367 39.5438C76.2384 39.4421 76.3127 39.4184 76.2857 39.429C76.2734 39.4338 76.2425 39.4447 76.1883 39.4575C76.1342 39.4703 76.062 39.4838 75.9689 39.4954L76.465 43.4646C77.2689 43.3641 78.2364 43.101 78.9652 42.3722L76.1367 39.5438ZM76.0745 39.4851L75.2625 39.5431L75.5475 43.5329L76.3595 43.4749L76.0745 39.4851ZM75.2087 39.5476C72.1273 39.8515 69.5126 40.899 67.593 42.8678L70.457 45.6602C71.5534 44.5357 73.192 43.7659 75.6012 43.5284L75.2087 39.5476ZM67.593 42.8678C65.6447 44.866 64.763 47.4973 64.763 50.528H68.763C68.763 48.3001 69.3892 46.7553 70.457 45.6602L67.593 42.8678ZM64.763 50.528V65.55H68.763V50.528H64.763ZM64.763 65.55C64.763 65.6663 64.747 65.6929 64.758 65.6615C64.7638 65.6445 64.7761 65.615 64.7986 65.5784C64.8214 65.5414 64.8504 65.5041 64.8847 65.4698L67.7132 68.2982C68.5075 67.5038 68.763 66.4815 68.763 65.55H64.763ZM64.7938 65.567C64.8522 65.5003 64.9152 65.4478 64.9749 65.4091C65.0335 65.3711 65.0804 65.3517 65.1054 65.343C65.1489 65.3279 65.1168 65.348 64.965 65.348V69.348C65.8667 69.348 66.9956 69.125 67.8041 68.201L64.7938 65.567ZM89.9013 65.666L88.8475 67.3658L89.9013 65.666ZM85.3773 60.62L83.5758 61.4886L83.582 61.5016L83.5885 61.5144L85.3773 60.62ZM84.6813 46.932L82.7923 46.275L82.7859 46.2934L82.7799 46.312L84.6813 46.932ZM87.2913 42.35L85.7916 41.0268L85.789 41.0298L87.2913 42.35ZM91.4093 39.392L92.1754 41.2395L92.1863 41.235L92.1972 41.2303L91.4093 39.392ZM103.647 40.146L104.701 38.4462V38.4462L103.647 40.146ZM108.113 45.25L106.306 46.1062L106.315 46.1254L106.324 46.1444L108.113 45.25ZM108.809 58.938L106.92 58.281L106.914 58.2994L106.908 58.318L108.809 58.938ZM106.199 63.52L104.719 62.1747L104.708 62.1871L104.697 62.1998L106.199 63.52ZM102.139 66.478L102.905 68.3255L102.924 68.3176L102.943 68.3093L102.139 66.478ZM101.733 63.172L102.81 64.8574L102.822 64.8499L101.733 63.172ZM104.981 59.17L103.154 58.3577L103.146 58.3748L103.139 58.3921L104.981 59.17ZM103.589 44.38L102.048 45.6545L102.055 45.6632L102.063 45.6719L103.589 44.38ZM91.7573 42.756L92.8341 44.4414L92.8457 44.4339L91.7573 42.756ZM88.5093 46.7L86.6817 45.8877L86.6774 45.8974L86.6732 45.9071L88.5093 46.7ZM89.9593 61.49L91.4861 60.1981L89.9593 61.49ZM96.7453 65.464C94.4292 65.464 92.5253 64.9396 90.9552 63.9662L88.8475 67.3658C91.144 68.7897 93.8028 69.464 96.7453 69.464V65.464ZM90.9552 63.9662C89.3572 62.9754 88.0943 61.5818 87.1662 59.7256L83.5885 61.5144C84.8257 63.9889 86.5788 65.9593 88.8475 67.3658L90.9552 63.9662ZM87.1789 59.7514C86.2929 57.9138 85.8113 55.6527 85.8113 52.906H81.8113C81.8113 56.114 82.3738 58.9956 83.5758 61.4886L87.1789 59.7514ZM85.8113 52.906C85.8113 50.8761 86.0785 49.0985 86.5828 47.552L82.7799 46.312C82.1242 48.3228 81.8113 50.5279 81.8113 52.906H85.8113ZM86.5703 47.589C87.1134 46.0278 87.8604 44.7322 88.7937 43.6702L85.789 41.0298C84.4796 42.5198 83.4866 44.2788 82.7923 46.275L86.5703 47.589ZM88.791 43.6732C89.7541 42.5818 90.8775 41.7776 92.1754 41.2395L90.6433 37.5445C88.7705 38.321 87.1486 39.4889 85.7916 41.0268L88.791 43.6732ZM92.1972 41.2303C93.5496 40.6507 95.0571 40.348 96.7453 40.348V36.348C94.5668 36.348 92.517 36.7413 90.6215 37.5537L92.1972 41.2303ZM96.7453 40.348C99.1063 40.348 101.028 40.8751 102.593 41.8458L104.701 38.4462C102.4 37.0195 99.7204 36.348 96.7453 36.348V40.348ZM102.593 41.8458C104.176 42.8269 105.414 44.2238 106.306 46.1062L109.921 44.3938C108.724 41.8682 106.986 39.8625 104.701 38.4462L102.593 41.8458ZM106.324 46.1444C107.242 47.9789 107.737 50.2123 107.737 52.906H111.737C111.737 49.7223 111.15 46.8518 109.902 44.3556L106.324 46.1444ZM107.737 52.906C107.737 54.9665 107.453 56.7495 106.92 58.281L110.698 59.595C111.403 57.5691 111.737 55.3308 111.737 52.906H107.737ZM106.908 58.318C106.408 59.8509 105.674 61.1252 104.719 62.1747L107.679 64.8653C109.045 63.3628 110.051 61.5825 110.711 59.558L106.908 58.318ZM104.697 62.1998C103.772 63.2522 102.659 64.0657 101.335 64.6467L102.943 68.3093C104.791 67.4983 106.384 66.3398 107.702 64.8402L104.697 62.1998ZM101.373 64.6305C100.069 65.1714 98.5376 65.464 96.7453 65.464V69.464C98.9744 69.464 101.039 69.0992 102.905 68.3255L101.373 64.6305ZM96.7453 66.506C98.994 66.506 101.045 65.9851 102.81 64.8574L100.657 61.4866C99.6377 62.1375 98.3633 62.506 96.7453 62.506V66.506ZM102.822 64.8499C104.624 63.681 105.951 62.0153 106.824 59.9479L103.139 58.3921C102.542 59.8047 101.704 60.807 100.645 61.4941L102.822 64.8499ZM106.809 59.9823C107.723 57.9258 108.141 55.5466 108.141 52.906H104.141C104.141 55.1374 103.786 56.9342 103.154 58.3577L106.809 59.9823ZM108.141 52.906C108.141 48.9448 107.224 45.5798 105.116 43.0881L102.063 45.6719C103.357 47.2015 104.141 49.5205 104.141 52.906H108.141ZM105.131 43.1055C103.043 40.5804 100.166 39.364 96.7453 39.364V43.364C99.1243 43.364 100.811 44.1583 102.048 45.6545L105.131 43.1055ZM96.7453 39.364C94.5088 39.364 92.4591 39.9169 90.6689 41.0781L92.8457 44.4339C93.9169 43.7391 95.1925 43.364 96.7453 43.364V39.364ZM90.6805 41.0706C88.9098 42.2019 87.5893 43.8455 86.6817 45.8877L90.337 47.5123C90.976 46.0745 91.8208 45.0888 92.8341 44.4414L90.6805 41.0706ZM86.6732 45.9071C85.8022 47.9242 85.4073 50.2789 85.4073 52.906H89.4073C89.4073 50.6611 89.7471 48.8784 90.3455 47.4929L86.6732 45.9071ZM85.4073 52.906C85.4073 56.8997 86.3214 60.2869 88.4326 62.7819L91.4861 60.1981C90.1946 58.6718 89.4073 56.3363 89.4073 52.906H85.4073ZM88.4326 62.7819C90.5438 65.277 93.3823 66.506 96.7453 66.506V62.506C94.463 62.506 92.7775 61.7243 91.4861 60.1981L88.4326 62.7819ZM124.52 65.666L123.466 67.3658L124.52 65.666ZM119.996 60.62L118.195 61.4886L118.201 61.5016L118.207 61.5144L119.996 60.62ZM119.3 46.932L117.411 46.275L117.405 46.2934L117.399 46.312L119.3 46.932ZM121.91 42.35L120.41 41.0268L120.408 41.0298L121.91 42.35ZM126.028 39.392L126.794 41.2395L126.805 41.235L126.816 41.2303L126.028 39.392ZM138.266 40.146L139.32 38.4462V38.4462L138.266 40.146ZM142.732 45.25L140.925 46.1062L140.934 46.1254L140.943 46.1444L142.732 45.25ZM143.428 58.938L141.539 58.281L141.533 58.2994L141.527 58.318L143.428 58.938ZM140.818 63.52L139.338 62.1747L139.327 62.1871L139.316 62.1998L140.818 63.52ZM136.758 66.478L137.524 68.3255L137.543 68.3176L137.562 68.3093L136.758 66.478ZM136.352 63.172L137.429 64.8574L137.44 64.8499L136.352 63.172ZM139.6 59.17L137.772 58.3577L137.765 58.3748L137.758 58.3921L139.6 59.17ZM138.208 44.38L136.667 45.6545L136.674 45.6632L136.681 45.6719L138.208 44.38ZM126.376 42.756L127.453 44.4414L127.464 44.4339L126.376 42.756ZM123.128 46.7L121.3 45.8877L121.296 45.8974L121.292 45.9071L123.128 46.7ZM124.578 61.49L126.105 60.1981L124.578 61.49ZM131.364 65.464C129.048 65.464 127.144 64.9396 125.574 63.9662L123.466 67.3658C125.763 68.7897 128.422 69.464 131.364 69.464V65.464ZM125.574 63.9662C123.976 62.9754 122.713 61.5818 121.785 59.7256L118.207 61.5144C119.444 63.9889 121.198 65.9593 123.466 67.3658L125.574 63.9662ZM121.798 59.7514C120.912 57.9138 120.43 55.6527 120.43 52.906H116.43C116.43 56.114 116.993 58.9956 118.195 61.4886L121.798 59.7514ZM120.43 52.906C120.43 50.8761 120.697 49.0985 121.202 47.552L117.399 46.312C116.743 48.3228 116.43 50.5279 116.43 52.906H120.43ZM121.189 47.589C121.732 46.0278 122.479 44.7322 123.412 43.6702L120.408 41.0298C119.098 42.5198 118.105 44.2788 117.411 46.275L121.189 47.589ZM123.41 43.6732C124.373 42.5818 125.496 41.7776 126.794 41.2395L125.262 37.5445C123.389 38.321 121.767 39.4889 120.41 41.0268L123.41 43.6732ZM126.816 41.2303C128.168 40.6507 129.676 40.348 131.364 40.348V36.348C129.186 36.348 127.136 36.7413 125.24 37.5537L126.816 41.2303ZM131.364 40.348C133.725 40.348 135.647 40.8751 137.212 41.8458L139.32 38.4462C137.019 37.0195 134.339 36.348 131.364 36.348V40.348ZM137.212 41.8458C138.795 42.8269 140.033 44.2238 140.925 46.1062L144.54 44.3938C143.343 41.8682 141.604 39.8625 139.32 38.4462L137.212 41.8458ZM140.943 46.1444C141.86 47.9789 142.356 50.2123 142.356 52.906H146.356C146.356 49.7223 145.769 46.8518 144.521 44.3556L140.943 46.1444ZM142.356 52.906C142.356 54.9665 142.072 56.7495 141.539 58.281L145.317 59.595C146.022 57.5691 146.356 55.3308 146.356 52.906H142.356ZM141.527 58.318C141.027 59.8509 140.292 61.1252 139.338 62.1747L142.298 64.8653C143.664 63.3628 144.669 61.5825 145.33 59.558L141.527 58.318ZM139.316 62.1998C138.391 63.2522 137.277 64.0657 135.954 64.6467L137.562 68.3093C139.409 67.4983 141.003 66.3398 142.32 64.8402L139.316 62.1998ZM135.992 64.6305C134.687 65.1714 133.156 65.464 131.364 65.464V69.464C133.593 69.464 135.658 69.0992 137.524 68.3255L135.992 64.6305ZM131.364 66.506C133.613 66.506 135.664 65.9851 137.429 64.8574L135.275 61.4866C134.256 62.1375 132.982 62.506 131.364 62.506V66.506ZM137.44 64.8499C139.243 63.681 140.57 62.0153 141.443 59.9479L137.758 58.3921C137.161 59.8047 136.323 60.807 135.264 61.4941L137.44 64.8499ZM141.428 59.9823C142.342 57.9258 142.76 55.5466 142.76 52.906H138.76C138.76 55.1374 138.405 56.9342 137.772 58.3577L141.428 59.9823ZM142.76 52.906C142.76 48.9448 141.843 45.5798 139.735 43.0881L136.681 45.6719C137.976 47.2015 138.76 49.5205 138.76 52.906H142.76ZM139.749 43.1055C137.661 40.5804 134.785 39.364 131.364 39.364V43.364C133.743 43.364 135.43 44.1583 136.667 45.6545L139.749 43.1055ZM131.364 39.364C129.128 39.364 127.078 39.9169 125.288 41.0781L127.464 44.4339C128.536 43.7391 129.811 43.364 131.364 43.364V39.364ZM125.299 41.0706C123.529 42.2019 122.208 43.8455 121.3 45.8877L124.956 47.5123C125.595 46.0745 126.44 45.0888 127.453 44.4414L125.299 41.0706ZM121.292 45.9071C120.421 47.9242 120.026 50.2789 120.026 52.906H124.026C124.026 50.6611 124.366 48.8784 124.964 47.4929L121.292 45.9071ZM120.026 52.906C120.026 56.8997 120.94 60.2869 123.051 62.7819L126.105 60.1981C124.813 58.6718 124.026 56.3363 124.026 52.906H120.026ZM123.051 62.7819C125.163 65.277 128.001 66.506 131.364 66.506V62.506C129.082 62.506 127.396 61.7243 126.105 60.1981L123.051 62.7819ZM156.304 66.884L157.718 65.4698L156.304 66.884ZM155.84 41.712H157.84V39.712H155.84V41.712ZM150.504 41.364L149.089 42.7782L149.19 42.8787L149.304 42.964L150.504 41.364ZM150.504 39.276L151.805 40.7945L151.813 40.7879L151.821 40.7812L150.504 39.276ZM156.768 38.87L158.182 40.2842L161.596 36.87H156.768V38.87ZM155.84 39.798H153.84V44.6264L157.254 41.2122L155.84 39.798ZM158.392 29.3L156.904 27.9637L158.392 29.3ZM165.99 25.994L165.842 23.9995L165.824 24.0008L165.807 24.0024L165.99 25.994ZM167.556 25.878L167.703 27.8725L167.72 27.8713L167.737 27.8698L167.556 25.878ZM168.542 26.11L167.261 27.6464L167.396 27.7591L167.549 27.8465L168.542 26.11ZM169.064 26.748L167.141 27.2974L167.175 27.4193L167.225 27.5358L169.064 26.748ZM169.122 27.618L171.045 28.1674L171.054 28.1354L171.062 28.1031L169.122 27.618ZM168.658 28.372L170.072 29.7862L170.072 29.7862L168.658 28.372ZM167.904 28.72L168.117 30.7086L168.134 30.7067L168.152 30.7046L167.904 28.72ZM166.28 28.894L166.44 30.8875L166.467 30.8854L166.493 30.8826L166.28 28.894ZM161.002 31.272L159.444 30.0173L159.44 30.0226L161.002 31.272ZM159.378 39.682L157.695 40.7635L161.378 46.4916V39.682H159.378ZM158.856 38.87V36.87H155.192L157.173 39.9515L158.856 38.87ZM167.498 39.276L166.083 40.6902L166.138 40.7445L166.196 40.7945L167.498 39.276ZM167.498 41.364L168.799 42.8825L168.858 42.8325L168.912 42.7782L167.498 41.364ZM159.378 41.712V39.712H157.378V41.712H159.378ZM157.638 65.348C157.521 65.348 157.495 65.3321 157.526 65.343C157.543 65.3489 157.573 65.3612 157.609 65.3837C157.646 65.4065 157.684 65.4355 157.718 65.4698L154.889 68.2982C155.684 69.0926 156.706 69.348 157.638 69.348V65.348ZM157.718 65.4698C157.752 65.5041 157.781 65.5414 157.804 65.5784C157.826 65.615 157.839 65.6445 157.845 65.6615C157.856 65.6929 157.84 65.6663 157.84 65.55H153.84C153.84 66.4815 154.095 67.5038 154.889 68.2982L157.718 65.4698ZM157.84 65.55V41.712H153.84V65.55H157.84ZM155.84 39.712H151.722V43.712H155.84V39.712ZM151.722 39.712C151.622 39.712 151.584 39.7003 151.59 39.702C151.593 39.703 151.607 39.7073 151.629 39.7178C151.65 39.7283 151.676 39.7435 151.704 39.764L149.304 42.964C150.05 43.5241 150.916 43.712 151.722 43.712V39.712ZM151.918 39.9498C151.992 40.0238 152.046 40.1125 152.076 40.1941C152.103 40.2686 152.098 40.3008 152.098 40.262H148.098C148.098 41.1364 148.367 42.0553 149.089 42.7782L151.918 39.9498ZM152.098 40.262C152.098 40.2603 152.098 40.3383 152.048 40.458C151.996 40.5866 151.909 40.7056 151.805 40.7945L149.202 37.7575C148.402 38.4433 148.098 39.3768 148.098 40.262H152.098ZM151.821 40.7812C151.796 40.8026 151.769 40.8218 151.741 40.8377C151.713 40.8536 151.689 40.8633 151.673 40.8689C151.64 40.8799 151.649 40.87 151.722 40.87V36.87C150.847 36.87 149.937 37.1141 149.187 37.7708L151.821 40.7812ZM151.722 40.87H156.768V36.87H151.722V40.87ZM155.353 37.4558L154.425 38.3838L157.254 41.2122L158.182 40.2842L155.353 37.4558ZM157.84 39.798V37.478H153.84V39.798H157.84ZM157.84 37.478C157.84 34.2182 158.619 32.0405 159.88 30.6362L156.904 27.9637C154.762 30.3489 153.84 33.6231 153.84 37.478H157.84ZM159.88 30.6362C161.146 29.2256 163.143 28.2642 166.173 27.9856L165.807 24.0024C162.108 24.3425 159.04 25.585 156.904 27.9637L159.88 30.6362ZM166.137 27.9885L167.703 27.8725L167.408 23.8835L165.842 23.9995L166.137 27.9885ZM167.737 27.8698C167.789 27.865 167.755 27.8755 167.663 27.8538C167.561 27.8299 167.411 27.771 167.261 27.6464L169.822 24.5736C169.039 23.9209 168.107 23.8196 167.375 23.8862L167.737 27.8698ZM167.549 27.8465C167.501 27.8186 167.415 27.7587 167.327 27.652C167.237 27.5421 167.175 27.4176 167.141 27.2974L170.987 26.1986C170.75 25.3699 170.205 24.7568 169.534 24.3735L167.549 27.8465ZM167.225 27.5358C167.195 27.4662 167.175 27.3851 167.17 27.3015C167.164 27.2198 167.174 27.1607 167.181 27.1329L171.062 28.1031C171.236 27.407 171.205 26.6665 170.902 25.9602L167.225 27.5358ZM167.199 27.0686C167.212 27.0201 167.231 26.9835 167.244 26.9613C167.257 26.9403 167.261 26.94 167.243 26.9578L170.072 29.7862C170.504 29.3539 170.86 28.8154 171.045 28.1674L167.199 27.0686ZM167.243 26.9578C167.316 26.8855 167.4 26.8277 167.486 26.7881C167.569 26.7497 167.631 26.7385 167.656 26.7354L168.152 30.7046C168.837 30.6188 169.521 30.3374 170.072 29.7862L167.243 26.9578ZM167.691 26.7314L166.067 26.9054L166.493 30.8826L168.117 30.7086L167.691 26.7314ZM166.119 26.9005C163.371 27.1221 161.017 28.0654 159.444 30.0173L162.559 32.5267C163.229 31.6946 164.394 31.0526 166.44 30.8875L166.119 26.9005ZM159.44 30.0226C157.963 31.8686 157.378 34.3587 157.378 37.188H161.378C161.378 34.8359 161.875 33.3821 162.563 32.5214L159.44 30.0226ZM157.378 37.188V39.682H161.378V37.188H157.378ZM161.06 38.6005L160.538 37.7885L157.173 39.9515L157.695 40.7635L161.06 38.6005ZM158.856 40.87H166.28V36.87H158.856V40.87ZM166.28 40.87C166.39 40.87 166.404 40.8844 166.358 40.8689C166.301 40.8501 166.192 40.7992 166.083 40.6902L168.912 37.8618C168.134 37.0838 167.129 36.87 166.28 36.87V40.87ZM166.196 40.7945C166.092 40.7056 166.006 40.5866 165.953 40.458C165.903 40.3383 165.904 40.2603 165.904 40.262H169.904C169.904 39.3768 169.599 38.4433 168.799 37.7575L166.196 40.7945ZM165.904 40.262C165.904 40.3008 165.898 40.2686 165.925 40.1941C165.955 40.1125 166.009 40.0238 166.083 39.9498L168.912 42.7782C169.635 42.0553 169.904 41.1364 169.904 40.262H165.904ZM166.196 39.8455C166.316 39.7427 166.417 39.7087 166.441 39.702C166.458 39.6969 166.414 39.712 166.28 39.712V43.712C167.06 43.712 168.019 43.5513 168.799 42.8825L166.196 39.8455ZM166.28 39.712H159.378V43.712H166.28V39.712ZM157.378 41.712V65.55H161.378V41.712H157.378ZM157.378 65.55C157.378 65.6945 157.359 65.7413 157.365 65.7226C157.374 65.695 157.411 65.6053 157.505 65.5077C157.601 65.4087 157.699 65.3615 157.748 65.3447C157.786 65.3314 157.761 65.348 157.638 65.348V69.348C158.543 69.348 159.585 69.1105 160.38 68.2893C161.163 67.4804 161.378 66.4415 161.378 65.55H157.378ZM197.79 65.666L196.737 67.3658L197.79 65.666ZM193.266 60.62L191.465 61.4886L191.471 61.5016L191.478 61.5144L193.266 60.62ZM192.57 46.932L190.681 46.275L190.675 46.2934L190.669 46.312L192.57 46.932ZM195.18 42.35L193.681 41.0268L193.678 41.0298L195.18 42.35ZM199.298 39.392L200.064 41.2395L200.075 41.235L200.086 41.2303L199.298 39.392ZM211.536 40.146L212.59 38.4462V38.4462L211.536 40.146ZM216.002 45.25L214.195 46.1062L214.204 46.1254L214.214 46.1444L216.002 45.25ZM216.698 58.938L214.809 58.281L214.803 58.2994L214.797 58.318L216.698 58.938ZM214.088 63.52L212.609 62.1747L212.597 62.1871L212.586 62.1998L214.088 63.52ZM210.028 66.478L210.794 68.3255L210.813 68.3176L210.832 68.3093L210.028 66.478ZM209.622 63.172L210.699 64.8574L210.711 64.8499L209.622 63.172ZM212.87 59.17L211.043 58.3577L211.035 58.3748L211.028 58.3921L212.87 59.17ZM211.478 44.38L209.937 45.6545L209.944 45.6632L209.952 45.6719L211.478 44.38ZM199.646 42.756L200.723 44.4414L200.735 44.4339L199.646 42.756ZM196.398 46.7L194.571 45.8877L194.566 45.8974L194.562 45.9071L196.398 46.7ZM197.848 61.49L199.375 60.1981L197.848 61.49ZM204.634 65.464C202.318 65.464 200.414 64.9396 198.844 63.9662L196.737 67.3658C199.033 68.7897 201.692 69.464 204.634 69.464V65.464ZM198.844 63.9662C197.246 62.9754 195.983 61.5818 195.055 59.7256L191.478 61.5144C192.715 63.9889 194.468 65.9593 196.737 67.3658L198.844 63.9662ZM195.068 59.7514C194.182 57.9138 193.7 55.6527 193.7 52.906H189.7C189.7 56.114 190.263 58.9956 191.465 61.4886L195.068 59.7514ZM193.7 52.906C193.7 50.8761 193.968 49.0985 194.472 47.552L190.669 46.312C190.013 48.3228 189.7 50.5279 189.7 52.906H193.7ZM194.459 47.589C195.002 46.0278 195.749 44.7322 196.683 43.6702L193.678 41.0298C192.369 42.5198 191.376 44.2788 190.681 46.275L194.459 47.589ZM196.68 43.6732C197.643 42.5818 198.767 41.7776 200.064 41.2395L198.532 37.5445C196.66 38.321 195.038 39.4889 193.681 41.0268L196.68 43.6732ZM200.086 41.2303C201.439 40.6507 202.946 40.348 204.634 40.348V36.348C202.456 36.348 200.406 36.7413 198.511 37.5537L200.086 41.2303ZM204.634 40.348C206.995 40.348 208.917 40.8751 210.483 41.8458L212.59 38.4462C210.289 37.0195 207.609 36.348 204.634 36.348V40.348ZM210.483 41.8458C212.065 42.8269 213.303 44.2238 214.195 46.1062L217.81 44.3938C216.613 41.8682 214.875 39.8625 212.59 38.4462L210.483 41.8458ZM214.214 46.1444C215.131 47.9789 215.626 50.2123 215.626 52.906H219.626C219.626 49.7223 219.039 46.8518 217.791 44.3556L214.214 46.1444ZM215.626 52.906C215.626 54.9665 215.342 56.7495 214.809 58.281L218.587 59.595C219.292 57.5691 219.626 55.3308 219.626 52.906H215.626ZM214.797 58.318C214.297 59.8509 213.563 61.1252 212.609 62.1747L215.568 64.8653C216.934 63.3628 217.94 61.5825 218.6 59.558L214.797 58.318ZM212.586 62.1998C211.661 63.2522 210.548 64.0657 209.224 64.6467L210.832 68.3093C212.68 67.4983 214.273 66.3398 215.591 64.8402L212.586 62.1998ZM209.262 64.6305C207.958 65.1714 206.427 65.464 204.634 65.464V69.464C206.863 69.464 208.928 69.0992 210.794 68.3255L209.262 64.6305ZM204.634 66.506C206.883 66.506 208.934 65.9851 210.699 64.8574L208.546 61.4866C207.527 62.1375 206.252 62.506 204.634 62.506V66.506ZM210.711 64.8499C212.513 63.681 213.84 62.0153 214.713 59.9479L211.028 58.3921C210.431 59.8047 209.593 60.807 208.534 61.4941L210.711 64.8499ZM214.698 59.9823C215.612 57.9258 216.03 55.5466 216.03 52.906H212.03C212.03 55.1374 211.675 56.9342 211.043 58.3577L214.698 59.9823ZM216.03 52.906C216.03 48.9448 215.113 45.5798 213.005 43.0881L209.952 45.6719C211.246 47.2015 212.03 49.5205 212.03 52.906H216.03ZM213.02 43.1055C210.932 40.5804 208.055 39.364 204.634 39.364V43.364C207.013 43.364 208.7 44.1583 209.937 45.6545L213.02 43.1055ZM204.634 39.364C202.398 39.364 200.348 39.9169 198.558 41.0781L200.735 44.4339C201.806 43.7391 203.082 43.364 204.634 43.364V39.364ZM198.57 41.0706C196.799 42.2019 195.478 43.8455 194.571 45.8877L198.226 47.5123C198.865 46.0745 199.71 45.0888 200.723 44.4414L198.57 41.0706ZM194.562 45.9071C193.691 47.9242 193.296 50.2789 193.296 52.906H197.296C197.296 50.6611 197.636 48.8784 198.235 47.4929L194.562 45.9071ZM193.296 52.906C193.296 56.8997 194.21 60.2869 196.322 62.7819L199.375 60.1981C198.084 58.6718 197.296 56.3363 197.296 52.906H193.296ZM196.322 62.7819C198.433 65.277 201.271 66.506 204.634 66.506V62.506C202.352 62.506 200.667 61.7243 199.375 60.1981L196.322 62.7819ZM229.574 66.884L230.988 65.4698L229.574 66.884ZM229.11 41.712H231.11V39.712H229.11V41.712ZM223.774 41.364L222.36 42.7782L222.46 42.8787L222.574 42.964L223.774 41.364ZM223.774 39.276L225.076 40.7945L225.083 40.7879L225.091 40.7812L223.774 39.276ZM230.038 38.87L231.452 40.2842L234.866 36.87H230.038V38.87ZM229.11 39.798H227.11V44.6264L230.524 41.2122L229.11 39.798ZM231.662 29.3L230.174 27.9637L231.662 29.3ZM239.26 25.994L239.112 23.9995L239.094 24.0008L239.077 24.0024L239.26 25.994ZM240.826 25.878L240.974 27.8725L240.99 27.8713L241.007 27.8698L240.826 25.878ZM241.812 26.11L240.532 27.6464L240.667 27.7591L240.82 27.8465L241.812 26.11ZM242.334 26.748L240.411 27.2974L240.446 27.4193L240.496 27.5358L242.334 26.748ZM242.392 27.618L244.315 28.1674L244.324 28.1354L244.332 28.1031L242.392 27.618ZM241.928 28.372L243.342 29.7862L243.342 29.7862L241.928 28.372ZM241.174 28.72L241.387 30.7086L241.405 30.7067L241.422 30.7046L241.174 28.72ZM239.55 28.894L239.711 30.8875L239.737 30.8854L239.763 30.8826L239.55 28.894ZM234.272 31.272L232.714 30.0173L232.71 30.0226L234.272 31.272ZM232.648 39.682L230.966 40.7635L234.648 46.4916V39.682H232.648ZM232.126 38.87V36.87H228.463L230.444 39.9515L232.126 38.87ZM240.768 39.276L239.354 40.6902L239.408 40.7445L239.466 40.7945L240.768 39.276ZM240.768 41.364L242.07 42.8825L242.128 42.8325L242.182 42.7782L240.768 41.364ZM232.648 41.712V39.712H230.648V41.712H232.648ZM230.908 65.348C230.792 65.348 230.765 65.3321 230.796 65.343C230.813 65.3489 230.843 65.3612 230.88 65.3837C230.917 65.4065 230.954 65.4355 230.988 65.4698L228.16 68.2982C228.954 69.0926 229.976 69.348 230.908 69.348V65.348ZM230.988 65.4698C231.022 65.5041 231.051 65.5414 231.074 65.5784C231.097 65.615 231.109 65.6445 231.115 65.6615C231.126 65.6929 231.11 65.6663 231.11 65.55H227.11C227.11 66.4815 227.365 67.5038 228.16 68.2982L230.988 65.4698ZM231.11 65.55V41.712H227.11V65.55H231.11ZM229.11 39.712H224.992V43.712H229.11V39.712ZM224.992 39.712C224.892 39.712 224.854 39.7003 224.86 39.702C224.863 39.703 224.878 39.7073 224.899 39.7178C224.921 39.7283 224.947 39.7435 224.974 39.764L222.574 42.964C223.321 43.5241 224.187 43.712 224.992 43.712V39.712ZM225.188 39.9498C225.262 40.0238 225.316 40.1125 225.346 40.1941C225.374 40.2686 225.368 40.3008 225.368 40.262H221.368C221.368 41.1364 221.637 42.0553 222.36 42.7782L225.188 39.9498ZM225.368 40.262C225.368 40.2603 225.368 40.3383 225.319 40.458C225.266 40.5866 225.179 40.7056 225.076 40.7945L222.472 37.7575C221.672 38.4433 221.368 39.3768 221.368 40.262H225.368ZM225.091 40.7812C225.066 40.8026 225.039 40.8218 225.011 40.8377C224.983 40.8536 224.96 40.8633 224.943 40.8689C224.91 40.8799 224.919 40.87 224.992 40.87V36.87C224.117 36.87 223.208 37.1141 222.457 37.7708L225.091 40.7812ZM224.992 40.87H230.038V36.87H224.992V40.87ZM228.624 37.4558L227.696 38.3838L230.524 41.2122L231.452 40.2842L228.624 37.4558ZM231.11 39.798V37.478H227.11V39.798H231.11ZM231.11 37.478C231.11 34.2182 231.889 32.0405 233.15 30.6362L230.174 27.9637C228.032 30.3489 227.11 33.6231 227.11 37.478H231.11ZM233.15 30.6362C234.417 29.2256 236.413 28.2642 239.443 27.9856L239.077 24.0024C235.379 24.3425 232.31 25.585 230.174 27.9637L233.15 30.6362ZM239.408 27.9885L240.974 27.8725L240.678 23.8835L239.112 23.9995L239.408 27.9885ZM241.007 27.8698C241.06 27.865 241.025 27.8755 240.933 27.8538C240.832 27.8299 240.681 27.771 240.532 27.6464L243.092 24.5736C242.309 23.9209 241.377 23.8196 240.645 23.8862L241.007 27.8698ZM240.82 27.8465C240.771 27.8186 240.685 27.7587 240.598 27.652C240.508 27.5421 240.445 27.4176 240.411 27.2974L244.257 26.1986C244.02 25.3699 243.475 24.7568 242.804 24.3735L240.82 27.8465ZM240.496 27.5358C240.466 27.4662 240.445 27.3851 240.44 27.3015C240.434 27.2198 240.445 27.1607 240.452 27.1329L244.332 28.1031C244.506 27.407 244.475 26.6665 244.172 25.9602L240.496 27.5358ZM240.469 27.0686C240.483 27.0201 240.501 26.9835 240.515 26.9613C240.528 26.9403 240.532 26.94 240.514 26.9578L243.342 29.7862C243.774 29.3539 244.13 28.8154 244.315 28.1674L240.469 27.0686ZM240.514 26.9578C240.586 26.8855 240.67 26.8277 240.756 26.7881C240.839 26.7497 240.902 26.7385 240.926 26.7354L241.422 30.7046C242.108 30.6188 242.791 30.3374 243.342 29.7862L240.514 26.9578ZM240.961 26.7314L239.337 26.9054L239.763 30.8826L241.387 30.7086L240.961 26.7314ZM239.389 26.9005C236.641 27.1221 234.287 28.0654 232.714 30.0173L235.829 32.5267C236.5 31.6946 237.664 31.0526 239.711 30.8875L239.389 26.9005ZM232.71 30.0226C231.233 31.8686 230.648 34.3587 230.648 37.188H234.648C234.648 34.8359 235.145 33.3821 235.834 32.5214L232.71 30.0226ZM230.648 37.188V39.682H234.648V37.188H230.648ZM234.33 38.6005L233.808 37.7885L230.444 39.9515L230.966 40.7635L234.33 38.6005ZM232.126 40.87H239.55V36.87H232.126V40.87ZM239.55 40.87C239.66 40.87 239.675 40.8844 239.628 40.8689C239.572 40.8501 239.463 40.7992 239.354 40.6902L242.182 37.8618C241.404 37.0838 240.4 36.87 239.55 36.87V40.87ZM239.466 40.7945C239.363 40.7056 239.276 40.5866 239.223 40.458C239.174 40.3383 239.174 40.2603 239.174 40.262H243.174C243.174 39.3768 242.87 38.4433 242.07 37.7575L239.466 40.7945ZM239.174 40.262C239.174 40.3008 239.168 40.2686 239.196 40.1941C239.226 40.1125 239.28 40.0238 239.354 39.9498L242.182 42.7782C242.905 42.0553 243.174 41.1364 243.174 40.262H239.174ZM239.466 39.8455C239.586 39.7427 239.688 39.7087 239.711 39.702C239.729 39.6969 239.684 39.712 239.55 39.712V43.712C240.331 43.712 241.289 43.5513 242.07 42.8825L239.466 39.8455ZM239.55 39.712H232.648V43.712H239.55V39.712ZM230.648 41.712V65.55H234.648V41.712H230.648ZM230.648 65.55C230.648 65.6945 230.63 65.7413 230.636 65.7226C230.645 65.695 230.681 65.6053 230.776 65.5077C230.872 65.4087 230.969 65.3615 231.018 65.3447C231.056 65.3314 231.031 65.348 230.908 65.348V69.348C231.813 69.348 232.855 69.1105 233.65 68.2893C234.433 67.4804 234.648 66.4415 234.648 65.55H230.648ZM274.425 64.97L273.382 66.6766L273.39 66.6819L273.399 66.6871L274.425 64.97ZM267.987 57.72L266.176 58.5694L266.18 58.5786L266.185 58.5876L267.987 57.72ZM267.001 37.826L265.101 37.2021L265.098 37.2108L265.095 37.2196L267.001 37.826ZM270.655 31.272L269.163 29.9393L269.162 29.9413L270.655 31.272ZM276.571 27.096L275.812 25.2454L275.801 25.2498L276.571 27.096ZM291.593 26.748L290.96 28.6454V28.6454L291.593 26.748ZM297.277 29.996L295.937 31.4808L295.939 31.4826L297.277 29.996ZM298.031 31.098L296.115 31.6727V31.6727L298.031 31.098ZM298.031 32.2L296.133 31.5675L296.109 31.6404L296.09 31.7149L298.031 32.2ZM297.509 33.012L298.671 34.6395L298.743 34.5881L298.81 34.5305L297.509 33.012ZM296.523 33.302L296.302 35.2898L296.412 35.302H296.523V33.302ZM295.363 32.722L294.051 34.2321L294.074 34.2513L294.096 34.2699L295.363 32.722ZM290.433 29.88L289.776 31.769L289.788 31.7733L290.433 29.88ZM276.339 31.04L277.385 32.7444L277.393 32.7393L276.339 31.04ZM271.293 37.014L269.463 36.2067L269.458 36.218L269.453 36.2294L271.293 37.014ZM271.293 56.096L269.453 56.8806L269.458 56.892L269.463 56.9033L271.293 56.096ZM276.339 62.128L275.271 63.819L275.288 63.8299L275.305 63.8404L276.339 62.128ZM290.433 63.23L291.077 65.1233L291.095 65.1172L291.113 65.1108L290.433 63.23ZM295.421 60.33L294.154 58.7821L294.141 58.7926L294.129 58.8032L295.421 60.33ZM297.509 60.156L296.094 61.5702L296.212 61.6873L296.346 61.7835L297.509 60.156ZM298.089 60.968L296.191 61.6005L296.203 61.6356L296.216 61.6702L298.089 60.968ZM298.089 61.954L296.191 61.3216L296.159 61.4194L296.136 61.5201L298.089 61.954ZM297.451 62.94L296.122 61.4452L296.115 61.4518L296.107 61.4586L297.451 62.94ZM291.651 66.362L292.293 68.256L292.303 68.2526L292.313 68.2492L291.651 66.362ZM284.459 65.464C280.84 65.464 277.866 64.6958 275.45 63.2529L273.399 66.6871C276.551 68.5695 280.266 69.464 284.459 69.464V65.464ZM275.468 63.2634C273.034 61.7762 271.141 59.6613 269.789 56.8524L266.185 58.5876C267.848 62.0427 270.247 64.7612 273.382 66.6766L275.468 63.2634ZM269.797 56.8706C268.48 54.0626 267.783 50.6349 267.783 46.526H263.783C263.783 51.0784 264.555 55.1134 266.176 58.5694L269.797 56.8706ZM267.783 46.526C267.783 43.4415 268.169 40.7518 268.907 38.4324L265.095 37.2196C264.209 40.0042 263.783 43.1145 263.783 46.526H267.783ZM268.901 38.4499C269.678 36.0828 270.77 34.1487 272.148 32.6027L269.162 29.9413C267.369 31.9526 266.025 34.3878 265.101 37.2021L268.901 38.4499ZM272.146 32.6047C273.564 31.0174 275.287 29.7975 277.34 28.9422L275.801 25.2498C273.214 26.3278 270.993 27.8919 269.163 29.9393L272.146 32.6047ZM277.329 28.9466C279.416 28.0912 281.783 27.646 284.459 27.646V23.646C281.334 23.646 278.443 24.1674 275.812 25.2454L277.329 28.9466ZM284.459 27.646C286.817 27.646 288.979 27.985 290.96 28.6454L292.225 24.8506C289.798 24.0416 287.205 23.646 284.459 23.646V27.646ZM290.96 28.6454C292.926 29.3005 294.574 30.2507 295.937 31.4808L298.617 28.5112C296.809 26.8799 294.668 25.6648 292.225 24.8506L290.96 28.6454ZM295.939 31.4826C296.13 31.6549 296.131 31.725 296.115 31.6727L299.946 30.5233C299.699 29.6977 299.197 29.0331 298.615 28.5094L295.939 31.4826ZM296.115 31.6727C296.123 31.6979 296.118 31.6927 296.118 31.6635C296.118 31.6325 296.123 31.5978 296.133 31.5675L299.928 32.8325C300.187 32.0543 300.168 31.2631 299.946 30.5233L296.115 31.6727ZM296.09 31.7149C296.105 31.6561 296.13 31.5999 296.16 31.5535C296.189 31.5089 296.211 31.4904 296.207 31.4935L298.81 34.5305C299.357 34.0618 299.781 33.4437 299.971 32.6851L296.09 31.7149ZM296.346 31.3845C296.398 31.3475 296.451 31.3235 296.495 31.3108C296.536 31.2988 296.549 31.302 296.523 31.302V35.302C297.256 35.302 298.009 35.1128 298.671 34.6395L296.346 31.3845ZM296.744 31.3142C296.852 31.3263 296.896 31.3542 296.866 31.3391C296.835 31.3238 296.756 31.2782 296.629 31.1741L294.096 34.2699C294.664 34.7344 295.409 35.1906 296.302 35.2898L296.744 31.3142ZM296.674 31.2119C295.012 29.7686 293.143 28.6899 291.077 27.9867L289.788 31.7733C291.357 32.3074 292.775 33.1234 294.051 34.2321L296.674 31.2119ZM291.09 27.991C289.071 27.2888 286.873 26.952 284.517 26.952V30.952C286.491 30.952 288.237 31.2339 289.776 31.769L291.09 27.991ZM284.517 26.952C281.015 26.952 277.906 27.7135 275.284 29.3407L277.393 32.7393C279.257 31.5825 281.599 30.952 284.517 30.952V26.952ZM275.292 29.3357C272.704 30.9249 270.768 33.2488 269.463 36.2067L273.123 37.8213C274.138 35.5205 275.565 33.8618 277.385 32.7443L275.292 29.3357ZM269.453 36.2294C268.199 39.1689 267.611 42.6213 267.611 46.526H271.611C271.611 43.0067 272.143 40.1177 273.132 37.7986L269.453 36.2294ZM267.611 46.526C267.611 50.4662 268.198 53.9388 269.453 56.8806L273.132 55.3114C272.144 52.9945 271.611 50.0871 271.611 46.526H267.611ZM269.463 56.9033C270.766 59.8575 272.696 62.1931 275.271 63.819L277.407 60.437C275.573 59.2789 274.139 57.5931 273.123 55.2887L269.463 56.9033ZM275.305 63.8404C277.923 65.4201 281.025 66.158 284.517 66.158V62.158C281.59 62.158 279.24 61.5425 277.372 60.4156L275.305 63.8404ZM284.517 66.158C286.839 66.158 289.031 65.8198 291.077 65.1233L289.788 61.3367C288.199 61.8775 286.448 62.158 284.517 62.158V66.158ZM291.113 65.1108C293.159 64.3709 295.027 63.2827 296.713 61.8568L294.129 58.8032C292.798 59.9293 291.342 60.7745 289.752 61.3492L291.113 65.1108ZM296.687 61.8779C296.742 61.8327 296.785 61.8028 296.814 61.784C296.843 61.7651 296.855 61.7601 296.85 61.7623C296.841 61.7666 296.744 61.808 296.581 61.808V57.808C295.57 57.808 294.742 58.3011 294.154 58.7821L296.687 61.8779ZM296.581 61.808C296.574 61.808 296.505 61.8069 296.4 61.7677C296.29 61.7261 296.182 61.6575 296.094 61.5702L298.923 58.7418C298.249 58.0683 297.396 57.808 296.581 57.808V61.808ZM296.346 61.7835C296.302 61.7519 296.261 61.7107 296.229 61.6665C296.199 61.6238 296.19 61.5963 296.191 61.6005L299.986 60.3355C299.751 59.6299 299.321 58.9928 298.671 58.5285L296.346 61.7835ZM296.216 61.6702C296.19 61.6015 296.176 61.5233 296.176 61.4465C296.176 61.3725 296.189 61.328 296.191 61.3216L299.986 62.5864C300.23 61.8548 300.256 61.0518 299.961 60.2658L296.216 61.6702ZM296.136 61.5201C296.145 61.482 296.156 61.4494 296.167 61.4235C296.178 61.3979 296.188 61.3817 296.192 61.375C296.2 61.3627 296.186 61.3883 296.122 61.4452L298.779 64.4348C299.346 63.9313 299.848 63.2558 300.041 62.3879L296.136 61.5201ZM296.107 61.4586C294.65 62.7799 292.951 63.7862 290.989 64.4748L292.313 68.2492C294.758 67.3911 296.926 66.1161 298.794 64.4214L296.107 61.4586ZM291.008 64.468C289.078 65.1228 286.902 65.464 284.459 65.464V69.464C287.274 69.464 289.893 69.0705 292.293 68.256L291.008 64.468ZM311.156 66.362L310.262 68.1509L310.271 68.1555L310.28 68.16L311.156 66.362ZM307.618 63.346L305.954 64.4554L305.965 64.4726L305.977 64.4896L307.618 63.346ZM307.908 54.124L306.4 52.8104L307.908 54.124ZM313.186 51.63L313.555 53.5957L313.569 53.593L313.584 53.59L313.186 51.63ZM325.888 50.876H327.888V48.876H325.888V50.876ZM325.888 53.486V55.486H327.888V53.486H325.888ZM315.274 53.95L315.551 55.9307L315.568 55.9284L315.584 55.9258L315.274 53.95ZM311.214 55.516L309.8 54.1018V54.1018L311.214 55.516ZM311.852 62.998L313.193 61.5138L311.852 62.998ZM321.074 63.462L322.134 65.158L322.141 65.1537L322.148 65.1493L321.074 63.462ZM323.626 43.162L322.118 44.4756L322.128 44.4878L322.139 44.4999L323.626 43.162ZM314.346 41.944L313.811 40.017L313.804 40.0189L313.796 40.021L314.346 41.944ZM309.996 43.8L310.954 45.5558L310.96 45.5524L309.996 43.8ZM308.836 44.032L308.351 45.9723L308.376 45.9787L308.402 45.9844L308.836 44.032ZM308.082 43.568L306.418 44.6774L306.477 44.7663L306.545 44.8484L308.082 43.568ZM307.734 42.756L305.746 42.9769L305.761 43.1106L305.794 43.2411L307.734 42.756ZM307.908 41.77L306.119 40.8756V40.8756L307.908 41.77ZM308.72 41.016L309.614 42.8049L309.648 42.7881L309.681 42.7702L308.72 41.016ZM313.65 39.044L314.146 40.9816L314.161 40.9777L314.176 40.9735L313.65 39.044ZM324.206 39.508L323.274 41.2778L323.284 41.2828L323.293 41.2876L324.206 39.508ZM327.512 42.988L325.688 43.8087L325.697 43.8275L325.705 43.8461L327.512 42.988ZM328.208 66.884L329.713 68.201L328.208 66.884ZM325.714 66.884L324.3 68.2982L325.714 66.884ZM325.25 60.214V58.214H323.25V60.214H325.25ZM325.83 60.214L327.779 60.6637L328.344 58.214H325.83V60.214ZM323.974 64.1L325.519 65.3695L323.974 64.1ZM320.668 66.594L321.475 68.4238L320.668 66.594ZM316.26 65.464C314.629 65.464 313.234 65.1495 312.032 64.564L310.28 68.16C312.094 69.0439 314.101 69.464 316.26 69.464V65.464ZM312.05 64.5731C310.862 63.9792 309.946 63.1889 309.259 62.2024L305.977 64.4896C307.068 66.0551 308.511 67.2755 310.262 68.1509L312.05 64.5731ZM309.282 62.2366C308.658 61.3007 308.342 60.2586 308.342 59.054H304.342C304.342 61.0201 304.876 62.8393 305.954 64.4554L309.282 62.2366ZM308.342 59.054C308.342 57.2948 308.778 56.1706 309.416 55.4376L306.4 52.8104C304.95 54.4747 304.342 56.6372 304.342 59.054H308.342ZM309.416 55.4376C310.036 54.7262 311.281 54.0221 313.555 53.5957L312.817 49.6643C310.142 50.1659 307.868 51.1245 306.4 52.8104L309.416 55.4376ZM313.584 53.59C315.867 53.1262 319.117 52.876 323.394 52.876V48.876C319.01 48.876 315.454 49.1285 312.788 49.67L313.584 53.59ZM323.394 52.876H325.888V48.876H323.394V52.876ZM323.888 50.876V53.486H327.888V50.876H323.888ZM325.888 51.486H323.452V55.486H325.888V51.486ZM323.452 51.486C319.932 51.486 317.087 51.6412 314.964 51.9742L315.584 55.9258C317.405 55.6402 320.012 55.486 323.452 55.486V51.486ZM314.997 51.9693C312.931 52.2584 311.041 52.8605 309.8 54.1018L312.628 56.9302C312.934 56.6248 313.75 56.1829 315.551 55.9307L314.997 51.9693ZM309.8 54.1018C308.556 55.3455 308.054 56.9935 308.054 58.764H312.054C312.054 57.7505 312.325 57.2332 312.628 56.9302L309.8 54.1018ZM308.054 58.764C308.054 61.0206 308.858 62.9886 310.511 64.4822L313.193 61.5138C312.449 60.842 312.054 59.9874 312.054 58.764H308.054ZM310.511 64.4822C312.168 65.9789 314.317 66.622 316.724 66.622V62.622C315.032 62.622 313.933 62.1824 313.193 61.5138L310.511 64.4822ZM316.724 66.622C318.708 66.622 320.536 66.1566 322.134 65.158L320.014 61.766C319.137 62.3141 318.065 62.622 316.724 62.622V66.622ZM322.148 65.1493C323.729 64.143 324.969 62.7759 325.859 61.0895L322.321 59.2225C321.742 60.3201 320.971 61.157 320 61.7747L322.148 65.1493ZM325.859 61.0895C326.764 59.3742 327.192 57.4612 327.192 55.4H323.192C323.192 56.8961 322.885 58.1538 322.321 59.2225L325.859 61.0895ZM327.192 55.4V48.788H323.192V55.4H327.192ZM327.192 48.788C327.192 46.0075 326.646 43.5276 325.113 41.8241L322.139 44.4999C322.694 45.1164 323.192 46.3872 323.192 48.788H327.192ZM325.134 41.8484C323.568 40.0505 321.239 39.364 318.638 39.364V43.364C320.6 43.364 321.596 43.8761 322.118 44.4756L325.134 41.8484ZM318.638 39.364C316.991 39.364 315.38 39.5811 313.811 40.017L314.881 43.871C316.096 43.5336 317.346 43.364 318.638 43.364V39.364ZM313.796 40.021C312.268 40.4576 310.678 41.142 309.032 42.0476L310.96 45.5524C312.407 44.7566 313.717 44.2037 314.895 43.867L313.796 40.021ZM309.038 42.0442C308.964 42.0848 308.951 42.0796 308.995 42.0708C309.045 42.0607 309.144 42.0518 309.27 42.0796L308.402 45.9844C309.369 46.1992 310.257 45.9358 310.954 45.5558L309.038 42.0442ZM309.321 42.0917C309.349 42.0987 309.401 42.1164 309.464 42.1547C309.527 42.1936 309.58 42.2411 309.618 42.2876L306.545 44.8484C307.026 45.4251 307.654 45.7982 308.351 45.9723L309.321 42.0917ZM309.746 42.4586C309.735 42.4426 309.704 42.3893 309.674 42.2709L305.794 43.2411C305.919 43.7413 306.119 44.2294 306.418 44.6774L309.746 42.4586ZM309.722 42.5351C309.722 42.5412 309.724 42.5637 309.718 42.5961C309.712 42.6286 309.703 42.6528 309.697 42.6644L306.119 40.8756C305.79 41.5342 305.665 42.2508 305.746 42.9769L309.722 42.5351ZM309.697 42.6644C309.66 42.7385 309.616 42.7887 309.588 42.8151C309.562 42.8386 309.563 42.8306 309.614 42.8049L307.826 39.2271C307.15 39.5649 306.511 40.0913 306.119 40.8756L309.697 42.6644ZM309.681 42.7702C311.169 41.9549 312.657 41.3624 314.146 40.9816L313.154 37.1064C311.317 37.5763 309.519 38.2984 307.759 39.2618L309.681 42.7702ZM314.176 40.9735C315.725 40.5511 317.191 40.348 318.58 40.348V36.348C316.798 36.348 314.978 36.6089 313.124 37.1145L314.176 40.9735ZM318.58 40.348C320.652 40.348 322.179 40.7015 323.274 41.2778L325.137 37.7382C323.294 36.7678 321.071 36.348 318.58 36.348V40.348ZM323.293 41.2876C324.397 41.8538 325.178 42.6754 325.688 43.8087L329.336 42.1673C328.454 40.2072 327.031 38.7089 325.119 37.7284L323.293 41.2876ZM325.705 43.8461C326.271 45.0361 326.614 46.7061 326.614 48.962H330.614C330.614 46.3459 330.223 44.0333 329.318 42.1299L325.705 43.8461ZM326.614 48.962V65.55H330.614V48.962H326.614ZM326.614 65.55C326.614 65.6178 326.61 65.6662 326.606 65.6978C326.602 65.7292 326.598 65.7406 326.599 65.7362C326.601 65.7313 326.607 65.7102 326.625 65.6784C326.642 65.646 326.668 65.6072 326.703 65.567L329.713 68.201C330.412 67.4017 330.614 66.4168 330.614 65.55H326.614ZM326.703 65.567C326.795 65.4615 326.904 65.3952 326.988 65.363C327.061 65.3354 327.075 65.348 326.99 65.348V69.348C327.914 69.348 328.951 69.0716 329.713 68.201L326.703 65.567ZM326.99 65.348C326.908 65.348 326.904 65.3362 326.948 65.3524C326.971 65.3606 327.001 65.3745 327.036 65.396C327.07 65.4177 327.101 65.4431 327.128 65.4698L324.3 68.2982C325.069 69.0675 326.052 69.348 326.99 69.348V65.348ZM327.128 65.4698C327.162 65.5041 327.191 65.5414 327.214 65.5784C327.237 65.615 327.249 65.6445 327.255 65.6615C327.266 65.6929 327.25 65.6663 327.25 65.55H323.25C323.25 66.4815 323.505 67.5038 324.3 68.2982L327.128 65.4698ZM327.25 65.55V60.214H323.25V65.55H327.25ZM325.25 62.214H325.83V58.214H325.25V62.214ZM323.881 59.7643C323.595 61.0035 323.102 62.0104 322.428 62.8305L325.519 65.3695C326.624 64.0243 327.369 62.4405 327.779 60.6637L323.881 59.7643ZM322.428 62.8305C321.743 63.6649 320.896 64.3072 319.861 64.7642L321.475 68.4238C323.069 67.7208 324.426 66.7005 325.519 65.3695L322.428 62.8305ZM319.861 64.7642C318.831 65.2182 317.642 65.464 316.26 65.464V69.464C318.126 69.464 319.875 69.1298 321.475 68.4238L319.861 64.7642ZM341.227 66.884L342.641 65.4698L341.227 66.884ZM341.227 38.928L339.812 37.5138V37.5138L341.227 38.928ZM343.779 38.928L342.273 40.245L342.317 40.2951L342.364 40.3422L343.779 38.928ZM344.243 45.482V47.482H346.243V45.482H344.243ZM343.663 45.482L341.75 44.8984L340.961 47.482H343.663V45.482ZM347.375 40.204L346.249 38.5508L346.241 38.5565L346.233 38.5622L347.375 40.204ZM353.871 38.29L353.901 40.2898L353.969 40.2887L354.037 40.2831L353.871 38.29ZM355.031 38.58L353.831 40.18V40.18L355.031 38.58ZM355.495 39.682H353.495V39.7533L353.5 39.8245L355.495 39.682ZM355.147 40.958L356.561 42.3722L356.608 42.3251L356.652 42.275L355.147 40.958ZM353.813 41.48L353.955 43.4749L354.008 43.4711L354.061 43.4646L353.813 41.48ZM353.001 41.538L352.858 39.5431L352.831 39.545L352.804 39.5476L353.001 41.538ZM343.895 66.884L342.48 65.4698L342.433 65.5169L342.389 65.567L343.895 66.884ZM342.561 65.348C342.444 65.348 342.418 65.3321 342.449 65.343C342.466 65.3489 342.496 65.3612 342.532 65.3837C342.569 65.4065 342.607 65.4355 342.641 65.4698L339.812 68.2982C340.607 69.0926 341.629 69.348 342.561 69.348V65.348ZM342.641 65.4698C342.675 65.5041 342.704 65.5414 342.727 65.5784C342.749 65.615 342.762 65.6445 342.768 65.6615C342.779 65.6929 342.763 65.6663 342.763 65.55H338.763C338.763 66.4815 339.018 67.5038 339.812 68.2982L342.641 65.4698ZM342.763 65.55V40.32H338.763V65.55H342.763ZM342.763 40.32C342.763 40.2479 342.767 40.1983 342.772 40.1678C342.776 40.1376 342.779 40.1302 342.776 40.1405C342.772 40.1513 342.762 40.1795 342.739 40.218C342.715 40.2572 342.683 40.3004 342.641 40.3422L339.812 37.5138C338.996 38.3305 338.763 39.393 338.763 40.32H342.763ZM342.641 40.3422C342.607 40.3765 342.569 40.4055 342.532 40.4283C342.496 40.4508 342.466 40.4631 342.449 40.469C342.418 40.4799 342.444 40.464 342.561 40.464V36.464C341.629 36.464 340.607 36.7194 339.812 37.5138L342.641 40.3422ZM342.561 40.464C342.646 40.464 342.632 40.4767 342.559 40.449C342.475 40.4168 342.366 40.3505 342.273 40.245L345.284 37.611C344.522 36.7404 343.485 36.464 342.561 36.464V40.464ZM342.364 40.3422C342.323 40.3004 342.29 40.2572 342.267 40.218C342.244 40.1795 342.233 40.1513 342.229 40.1405C342.226 40.1302 342.229 40.1376 342.234 40.1678C342.238 40.1983 342.243 40.2479 342.243 40.32H346.243C346.243 39.393 346.01 38.3305 345.193 37.5138L342.364 40.3422ZM342.243 40.32V45.482H346.243V40.32H342.243ZM344.243 43.482H343.663V47.482H344.243V43.482ZM345.576 46.0656C346.155 44.1676 347.144 42.8007 348.517 41.8458L346.233 38.5622C344.048 40.0819 342.563 42.2338 341.75 44.8984L345.576 46.0656ZM348.5 41.8572C349.95 40.8703 351.721 40.3233 353.901 40.2898L353.84 36.2902C350.993 36.334 348.434 37.0631 346.249 38.5508L348.5 41.8572ZM354.037 40.2831C354.086 40.279 354.075 40.2867 354.024 40.2738C353.966 40.2595 353.896 40.2289 353.831 40.18L356.231 36.98C355.453 36.3966 354.552 36.2263 353.705 36.2969L354.037 40.2831ZM353.831 40.18C353.693 40.0765 353.591 39.9382 353.535 39.8056C353.486 39.6885 353.495 39.6301 353.495 39.682H357.495C357.495 38.7565 357.189 37.6985 356.231 36.98L353.831 40.18ZM353.5 39.8245C353.507 39.9202 353.494 39.9294 353.507 39.8808C353.514 39.8553 353.527 39.8175 353.551 39.7728C353.575 39.7276 353.605 39.6825 353.642 39.641L356.652 42.275C357.376 41.4477 357.554 40.4361 357.49 39.5395L353.5 39.8245ZM353.732 39.5438C353.834 39.4421 353.908 39.4184 353.881 39.429C353.869 39.4338 353.838 39.4447 353.784 39.4575C353.73 39.4703 353.658 39.4838 353.565 39.4954L354.061 43.4646C354.865 43.3641 355.832 43.101 356.561 42.3722L353.732 39.5438ZM353.67 39.4851L352.858 39.5431L353.143 43.5329L353.955 43.4749L353.67 39.4851ZM352.804 39.5476C349.723 39.8515 347.108 40.899 345.189 42.8678L348.053 45.6602C349.149 44.5357 350.788 43.7659 353.197 43.5284L352.804 39.5476ZM345.189 42.8678C343.24 44.866 342.359 47.4973 342.359 50.528H346.359C346.359 48.3001 346.985 46.7553 348.053 45.6602L345.189 42.8678ZM342.359 50.528V65.55H346.359V50.528H342.359ZM342.359 65.55C342.359 65.6663 342.343 65.6929 342.354 65.6615C342.36 65.6445 342.372 65.615 342.394 65.5784C342.417 65.5414 342.446 65.5041 342.48 65.4698L345.309 68.2982C346.103 67.5038 346.359 66.4815 346.359 65.55H342.359ZM342.389 65.567C342.448 65.5003 342.511 65.4478 342.571 65.4091C342.629 65.3711 342.676 65.3517 342.701 65.343C342.745 65.3279 342.713 65.348 342.561 65.348V69.348C343.462 69.348 344.591 69.125 345.4 68.201L342.389 65.567ZM367.265 65.724L366.18 67.4041L366.2 67.4171L366.221 67.4297L367.265 65.724ZM362.915 60.678L361.095 61.508L361.104 61.5274L361.113 61.5466L362.915 60.678ZM362.915 45.192L364.729 46.0342L362.915 45.192ZM367.207 40.146L366.138 38.4558L366.13 38.4608L366.122 38.4659L367.207 40.146ZM384.317 45.83V47.83H386.932L386.247 45.3065L384.317 45.83ZM383.679 45.83H381.679V47.83H383.679V45.83ZM384.143 26.226L385.46 27.7312L385.51 27.6873L385.557 27.6402L384.143 26.226ZM386.753 26.226L385.339 27.6402L385.386 27.6873L385.436 27.7312L386.753 26.226ZM386.753 66.884L385.339 65.4698V65.4698L386.753 66.884ZM384.143 66.884L385.557 65.4698V65.4698L384.143 66.884ZM383.679 59.576L384.753 57.8887L381.679 55.9327V59.576H383.679ZM384.317 59.982L386.247 60.5055L386.633 59.0849L385.391 58.2947L384.317 59.982ZM380.605 65.434L381.783 67.05L380.605 65.434ZM379.329 63.172L380.406 64.8574L380.417 64.8499L379.329 63.172ZM382.577 59.17L380.749 58.3577L380.742 58.3748L380.735 58.3921L382.577 59.17ZM381.185 44.38L379.644 45.6545L379.651 45.6632L379.658 45.6719L381.185 44.38ZM369.353 42.756L370.43 44.4414L370.441 44.4339L369.353 42.756ZM366.105 46.7L364.277 45.8877L364.273 45.8974L364.269 45.9071L366.105 46.7ZM367.555 61.49L369.082 60.1981L367.555 61.49ZM373.877 65.464C371.683 65.464 369.85 64.9615 368.309 64.0183L366.221 67.4297C368.469 68.8065 371.045 69.464 373.877 69.464V65.464ZM368.35 64.0439C366.83 63.0622 365.615 61.6737 364.717 59.8094L361.113 61.5466C362.303 64.013 363.988 65.9885 366.18 67.4041L368.35 64.0439ZM364.735 59.848C363.872 57.9571 363.407 55.661 363.407 52.906H359.407C359.407 56.1057 359.947 58.9909 361.095 61.508L364.735 59.848ZM363.407 52.906C363.407 50.1496 363.873 47.8789 364.729 46.0342L361.101 44.3498C359.947 46.8358 359.407 49.7077 359.407 52.906H363.407ZM364.729 46.0342C365.589 44.1827 366.779 42.8034 368.292 41.8261L366.122 38.4659C363.923 39.886 362.252 41.8706 361.101 44.3498L364.729 46.0342ZM368.276 41.8362C369.809 40.8668 371.65 40.348 373.877 40.348V36.348C371 36.348 368.395 37.0279 366.138 38.4558L368.276 41.8362ZM373.877 40.348C376.147 40.348 377.961 40.9253 379.427 41.994L381.783 38.762C379.537 37.124 376.866 36.348 373.877 36.348V40.348ZM379.427 41.994C380.904 43.071 381.883 44.4974 382.387 46.3535L386.247 45.3065C385.513 42.5999 384.018 40.3917 381.783 38.762L379.427 41.994ZM384.317 43.83H383.679V47.83H384.317V43.83ZM385.679 45.83V27.56H381.679V45.83H385.679ZM385.679 27.56C385.679 27.4081 385.699 27.376 385.684 27.4195C385.675 27.4445 385.656 27.4915 385.618 27.55C385.579 27.6097 385.527 27.6728 385.46 27.7312L382.826 24.7208C381.902 25.5293 381.679 26.6583 381.679 27.56H385.679ZM385.557 27.6402C385.53 27.6669 385.499 27.6923 385.465 27.714C385.431 27.7355 385.4 27.7494 385.378 27.7576C385.333 27.7738 385.337 27.762 385.419 27.762V23.762C384.481 23.762 383.498 24.0425 382.729 24.8118L385.557 27.6402ZM385.419 27.762C385.535 27.762 385.562 27.7779 385.53 27.767C385.514 27.7611 385.484 27.7488 385.447 27.7263C385.41 27.7035 385.373 27.6745 385.339 27.6402L388.167 24.8118C387.373 24.0174 386.351 23.762 385.419 23.762V27.762ZM385.436 27.7312C385.369 27.6728 385.317 27.6097 385.278 27.55C385.24 27.4915 385.221 27.4445 385.212 27.4195C385.197 27.376 385.217 27.4081 385.217 27.56H389.217C389.217 26.6583 388.994 25.5293 388.07 24.7208L385.436 27.7312ZM385.217 27.56V65.55H389.217V27.56H385.217ZM385.217 65.55C385.217 65.6663 385.201 65.6929 385.212 65.6615C385.218 65.6445 385.23 65.615 385.253 65.5784C385.275 65.5414 385.305 65.5041 385.339 65.4698L388.167 68.2982C388.962 67.5038 389.217 66.4815 389.217 65.55H385.217ZM385.339 65.4698C385.366 65.4431 385.397 65.4177 385.431 65.396C385.465 65.3745 385.496 65.3606 385.519 65.3524C385.563 65.3362 385.559 65.348 385.477 65.348V69.348C386.415 69.348 387.398 69.0675 388.167 68.2982L385.339 65.4698ZM385.477 65.348C385.361 65.348 385.334 65.3321 385.366 65.343C385.382 65.3489 385.412 65.3612 385.449 65.3837C385.486 65.4065 385.523 65.4355 385.557 65.4698L382.729 68.2982C383.523 69.0926 384.546 69.348 385.477 69.348V65.348ZM385.557 65.4698C385.592 65.5041 385.621 65.5414 385.643 65.5784C385.666 65.615 385.678 65.6445 385.684 65.6615C385.695 65.6929 385.679 65.6663 385.679 65.55H381.679C381.679 66.4815 381.934 67.5038 382.729 68.2982L385.557 65.4698ZM385.679 65.55V59.576H381.679V65.55H385.679ZM382.605 61.2633L383.243 61.6693L385.391 58.2947L384.753 57.8887L382.605 61.2633ZM382.387 59.4585C381.883 61.3146 380.904 62.741 379.427 63.818L381.783 67.05C384.018 65.4203 385.513 63.2121 386.247 60.5055L382.387 59.4585ZM379.427 63.818C377.961 64.8867 376.147 65.464 373.877 65.464V69.464C376.866 69.464 379.537 68.688 381.783 67.05L379.427 63.818ZM374.341 66.506C376.59 66.506 378.641 65.9851 380.406 64.8574L378.252 61.4866C377.233 62.1375 375.959 62.506 374.341 62.506V66.506ZM380.417 64.8499C382.22 63.681 383.547 62.0153 384.42 59.9479L380.735 58.3921C380.138 59.8047 379.3 60.807 378.241 61.4941L380.417 64.8499ZM384.405 59.9823C385.319 57.9258 385.737 55.5466 385.737 52.906H381.737C381.737 55.1374 381.382 56.9342 380.749 58.3577L384.405 59.9823ZM385.737 52.906C385.737 48.9448 384.82 45.5798 382.712 43.0881L379.658 45.6719C380.953 47.2015 381.737 49.5205 381.737 52.906H385.737ZM382.726 43.1055C380.638 40.5804 377.762 39.364 374.341 39.364V43.364C376.72 43.364 378.406 44.1583 379.644 45.6545L382.726 43.1055ZM374.341 39.364C372.104 39.364 370.055 39.9169 368.265 41.0781L370.441 44.4339C371.513 43.7391 372.788 43.364 374.341 43.364V39.364ZM368.276 41.0706C366.506 42.2019 365.185 43.8455 364.277 45.8877L367.933 47.5123C368.572 46.0745 369.417 45.0888 370.43 44.4414L368.276 41.0706ZM364.269 45.9071C363.398 47.9242 363.003 50.2789 363.003 52.906H367.003C367.003 50.6611 367.343 48.8784 367.941 47.4929L364.269 45.9071ZM363.003 52.906C363.003 56.8997 363.917 60.2869 366.028 62.7819L369.082 60.1981C367.79 58.6718 367.003 56.3363 367.003 52.906H363.003ZM366.028 62.7819C368.14 65.277 370.978 66.506 374.341 66.506V62.506C372.059 62.506 370.373 61.7243 369.082 60.1981L366.028 62.7819ZM403.004 66.362L402.11 68.1509L402.119 68.1555L402.128 68.16L403.004 66.362ZM399.466 63.346L397.802 64.4554L397.814 64.4726L397.826 64.4896L399.466 63.346ZM399.756 54.124L398.248 52.8104L399.756 54.124ZM405.034 51.63L405.403 53.5957L405.418 53.593L405.432 53.59L405.034 51.63ZM417.736 50.876H419.736V48.876H417.736V50.876ZM417.736 53.486V55.486H419.736V53.486H417.736ZM407.122 53.95L407.4 55.9307L407.416 55.9284L407.432 55.9258L407.122 53.95ZM403.062 55.516L401.648 54.1018V54.1018L403.062 55.516ZM403.7 62.998L405.041 61.5138L403.7 62.998ZM412.922 63.462L413.982 65.158L413.989 65.1537L413.996 65.1493L412.922 63.462ZM415.474 43.162L413.966 44.4756L413.977 44.4878L413.988 44.4999L415.474 43.162ZM406.194 41.944L405.659 40.017L405.652 40.0189L405.645 40.021L406.194 41.944ZM401.844 43.8L402.802 45.5558L402.808 45.5524L401.844 43.8ZM400.684 44.032L400.199 45.9723L400.225 45.9787L400.251 45.9844L400.684 44.032ZM399.93 43.568L398.266 44.6774L398.326 44.7663L398.394 44.8484L399.93 43.568ZM399.582 42.756L397.595 42.9769L397.609 43.1106L397.642 43.2411L399.582 42.756ZM399.756 41.77L397.968 40.8756V40.8756L399.756 41.77ZM400.568 41.016L401.463 42.8049L401.496 42.7881L401.529 42.7702L400.568 41.016ZM405.498 39.044L405.994 40.9816L406.009 40.9777L406.025 40.9735L405.498 39.044ZM416.054 39.508L415.123 41.2778L415.132 41.2828L415.142 41.2876L416.054 39.508ZM419.36 42.988L417.537 43.8087L417.545 43.8275L417.554 43.8461L419.36 42.988ZM420.056 66.884L421.562 68.201L420.056 66.884ZM417.562 66.884L416.148 68.2982L417.562 66.884ZM417.098 60.214V58.214H415.098V60.214H417.098ZM417.678 60.214L419.627 60.6637L420.192 58.214H417.678V60.214ZM415.822 64.1L417.368 65.3695L415.822 64.1ZM412.516 66.594L413.324 68.4238L412.516 66.594ZM408.108 65.464C406.478 65.464 405.082 65.1495 403.88 64.564L402.128 68.16C403.943 69.0439 405.95 69.464 408.108 69.464V65.464ZM403.899 64.5731C402.711 63.9792 401.795 63.1889 401.107 62.2024L397.826 64.4896C398.917 66.0551 400.359 67.2755 402.11 68.1509L403.899 64.5731ZM401.13 62.2366C400.507 61.3007 400.19 60.2586 400.19 59.054H396.19C396.19 61.0201 396.725 62.8393 397.802 64.4554L401.13 62.2366ZM400.19 59.054C400.19 57.2948 400.626 56.1706 401.265 55.4376L398.248 52.8104C396.799 54.4747 396.19 56.6372 396.19 59.054H400.19ZM401.265 55.4376C401.884 54.7262 403.129 54.0221 405.403 53.5957L404.666 49.6643C401.99 50.1659 399.717 51.1245 398.248 52.8104L401.265 55.4376ZM405.432 53.59C407.716 53.1262 410.965 52.876 415.242 52.876V48.876C410.858 48.876 407.302 49.1285 404.636 49.67L405.432 53.59ZM415.242 52.876H417.736V48.876H415.242V52.876ZM415.736 50.876V53.486H419.736V50.876H415.736ZM417.736 51.486H415.3V55.486H417.736V51.486ZM415.3 51.486C411.781 51.486 408.935 51.6412 406.812 51.9742L407.432 55.9258C409.254 55.6402 411.86 55.486 415.3 55.486V51.486ZM406.845 51.9693C404.78 52.2584 402.889 52.8605 401.648 54.1018L404.477 56.9302C404.782 56.6248 405.598 56.1829 407.4 55.9307L406.845 51.9693ZM401.648 54.1018C400.404 55.3455 399.902 56.9935 399.902 58.764H403.902C403.902 57.7505 404.174 57.2332 404.477 56.9302L401.648 54.1018ZM399.902 58.764C399.902 61.0206 400.706 62.9886 402.36 64.4822L405.041 61.5138C404.297 60.842 403.902 59.9874 403.902 58.764H399.902ZM402.36 64.4822C404.017 65.9789 406.166 66.622 408.572 66.622V62.622C406.881 62.622 405.781 62.1824 405.041 61.5138L402.36 64.4822ZM408.572 66.622C410.556 66.622 412.385 66.1566 413.982 65.158L411.862 61.766C410.985 62.3141 409.914 62.622 408.572 62.622V66.622ZM413.996 65.1493C415.578 64.143 416.817 62.7759 417.707 61.0895L414.17 59.2225C413.59 60.3201 412.819 61.157 411.849 61.7747L413.996 65.1493ZM417.707 61.0895C418.612 59.3742 419.04 57.4612 419.04 55.4H415.04C415.04 56.8961 414.734 58.1538 414.17 59.2225L417.707 61.0895ZM419.04 55.4V48.788H415.04V55.4H419.04ZM419.04 48.788C419.04 46.0075 418.494 43.5276 416.961 41.8241L413.988 44.4999C414.543 45.1164 415.04 46.3872 415.04 48.788H419.04ZM416.983 41.8484C415.417 40.0505 413.087 39.364 410.486 39.364V43.364C412.448 43.364 413.444 43.8761 413.966 44.4756L416.983 41.8484ZM410.486 39.364C408.839 39.364 407.228 39.5811 405.659 40.017L406.73 43.871C407.944 43.5336 409.195 43.364 410.486 43.364V39.364ZM405.645 40.021C404.117 40.4576 402.527 41.142 400.881 42.0476L402.808 45.5524C404.255 44.7566 405.566 44.2037 406.744 43.867L405.645 40.021ZM400.887 42.0442C400.812 42.0848 400.8 42.0796 400.843 42.0708C400.894 42.0607 400.993 42.0518 401.118 42.0796L400.251 45.9844C401.217 46.1992 402.105 45.9358 402.802 45.5558L400.887 42.0442ZM401.169 42.0917C401.198 42.0987 401.25 42.1164 401.312 42.1547C401.375 42.1936 401.428 42.2411 401.467 42.2876L398.394 44.8484C398.875 45.4251 399.503 45.7982 400.199 45.9723L401.169 42.0917ZM401.594 42.4586C401.584 42.4426 401.552 42.3893 401.523 42.2709L397.642 43.2411C397.767 43.7413 397.968 44.2294 398.266 44.6774L401.594 42.4586ZM401.57 42.5351C401.571 42.5412 401.572 42.5637 401.566 42.5961C401.561 42.6286 401.551 42.6528 401.545 42.6644L397.968 40.8756C397.638 41.5342 397.514 42.2508 397.595 42.9769L401.57 42.5351ZM401.545 42.6644C401.508 42.7385 401.465 42.7887 401.436 42.8151C401.411 42.8386 401.411 42.8306 401.463 42.8049L399.674 39.2271C398.998 39.5649 398.36 40.0913 397.968 40.8756L401.545 42.6644ZM401.529 42.7702C403.018 41.9549 404.506 41.3624 405.994 40.9816L405.003 37.1064C403.166 37.5763 401.367 38.2984 399.608 39.2618L401.529 42.7702ZM406.025 40.9735C407.573 40.5511 409.039 40.348 410.428 40.348V36.348C408.647 36.348 406.826 36.6089 404.972 37.1145L406.025 40.9735ZM410.428 40.348C412.5 40.348 414.028 40.7015 415.123 41.2778L416.986 37.7382C415.142 36.7678 412.919 36.348 410.428 36.348V40.348ZM415.142 41.2876C416.246 41.8538 417.027 42.6754 417.537 43.8087L421.184 42.1673C420.302 40.2072 418.879 38.7089 416.967 37.7284L415.142 41.2876ZM417.554 43.8461C418.119 45.0361 418.462 46.7061 418.462 48.962H422.462C422.462 46.3459 422.071 44.0333 421.167 42.1299L417.554 43.8461ZM418.462 48.962V65.55H422.462V48.962H418.462ZM418.462 65.55C418.462 65.6178 418.458 65.6662 418.454 65.6978C418.45 65.7292 418.446 65.7406 418.448 65.7362C418.449 65.7313 418.456 65.7102 418.473 65.6784C418.491 65.646 418.516 65.6072 418.551 65.567L421.562 68.201C422.261 67.4017 422.462 66.4168 422.462 65.55H418.462ZM418.551 65.567C418.643 65.4615 418.752 65.3952 418.837 65.363C418.91 65.3354 418.923 65.348 418.838 65.348V69.348C419.763 69.348 420.8 69.0716 421.562 68.201L418.551 65.567ZM418.838 65.348C418.756 65.348 418.752 65.3362 418.797 65.3524C418.819 65.3606 418.85 65.3745 418.884 65.396C418.918 65.4177 418.95 65.4431 418.977 65.4698L416.148 68.2982C416.917 69.0675 417.9 69.348 418.838 69.348V65.348ZM418.977 65.4698C419.011 65.5041 419.04 65.5414 419.063 65.5784C419.085 65.615 419.097 65.6445 419.103 65.6615C419.114 65.6929 419.098 65.6663 419.098 65.55H415.098C415.098 66.4815 415.354 67.5038 416.148 68.2982L418.977 65.4698ZM419.098 65.55V60.214H415.098V65.55H419.098ZM417.098 62.214H417.678V58.214H417.098V62.214ZM415.73 59.7643C415.444 61.0035 414.951 62.0104 414.277 62.8305L417.368 65.3695C418.473 64.0243 419.217 62.4405 419.627 60.6637L415.73 59.7643ZM414.277 62.8305C413.592 63.6649 412.745 64.3072 411.709 64.7642L413.324 68.4238C414.917 67.7208 416.275 66.7005 417.368 65.3695L414.277 62.8305ZM411.709 64.7642C410.68 65.2182 409.491 65.464 408.108 65.464V69.464C409.974 69.464 411.724 69.1298 413.324 68.4238L411.709 64.7642ZM433.075 66.884L434.489 65.4698L433.075 66.884ZM433.075 38.928L431.661 37.5138V37.5138L433.075 38.928ZM435.627 38.928L434.122 40.245L434.166 40.2951L434.213 40.3422L435.627 38.928ZM436.091 45.772L435.133 47.5278L438.091 49.1411V45.772H436.091ZM435.453 45.424L433.556 44.7915L433.027 46.3787L434.495 47.1798L435.453 45.424ZM439.397 40.146L438.328 38.4558L438.32 38.4608L438.312 38.4659L439.397 40.146ZM451.461 39.566L450.494 41.3165L450.521 41.3315L450.548 41.3456L451.461 39.566ZM455.463 66.884L456.877 68.2982L455.463 66.884ZM452.853 66.884L451.439 68.2982L452.853 66.884ZM450.707 43.394L449.185 44.6919L449.195 44.7031L449.205 44.7142L450.707 43.394ZM438.643 44.032L437.213 42.6338L437.213 42.6341L438.643 44.032ZM434.409 65.348C434.293 65.348 434.266 65.3321 434.298 65.343C434.315 65.3489 434.344 65.3612 434.381 65.3837C434.418 65.4065 434.455 65.4355 434.489 65.4698L431.661 68.2982C432.455 69.0926 433.478 69.348 434.409 69.348V65.348ZM434.489 65.4698C434.524 65.5041 434.553 65.5414 434.575 65.5784C434.598 65.615 434.61 65.6445 434.616 65.6615C434.627 65.6929 434.611 65.6663 434.611 65.55H430.611C430.611 66.4815 430.867 67.5038 431.661 68.2982L434.489 65.4698ZM434.611 65.55V40.32H430.611V65.55H434.611ZM434.611 40.32C434.611 40.2479 434.616 40.1983 434.62 40.1678C434.624 40.1376 434.628 40.1302 434.624 40.1405C434.621 40.1513 434.61 40.1795 434.587 40.218C434.564 40.2572 434.531 40.3004 434.489 40.3422L431.661 37.5138C430.844 38.3305 430.611 39.393 430.611 40.32H434.611ZM434.489 40.3422C434.455 40.3765 434.418 40.4055 434.381 40.4283C434.344 40.4508 434.315 40.4631 434.298 40.469C434.266 40.4799 434.293 40.464 434.409 40.464V36.464C433.478 36.464 432.455 36.7194 431.661 37.5138L434.489 40.3422ZM434.409 40.464C434.494 40.464 434.48 40.4767 434.408 40.449C434.323 40.4168 434.214 40.3505 434.122 40.245L437.132 37.611C436.37 36.7404 435.333 36.464 434.409 36.464V40.464ZM434.213 40.3422C434.171 40.3004 434.139 40.2572 434.115 40.218C434.092 40.1795 434.081 40.1513 434.078 40.1405C434.074 40.1302 434.078 40.1376 434.082 40.1678C434.087 40.1983 434.091 40.2479 434.091 40.32H438.091C438.091 39.393 437.858 38.3305 437.041 37.5138L434.213 40.3422ZM434.091 40.32V45.772H438.091V40.32H434.091ZM437.049 44.0162L436.411 43.6682L434.495 47.1798L435.133 47.5278L437.049 44.0162ZM437.35 46.0565C437.996 44.1189 439.049 42.7514 440.482 41.8261L438.312 38.4659C436.033 39.9379 434.457 42.0891 433.556 44.7915L437.35 46.0565ZM440.466 41.8362C442.014 40.8574 443.802 40.348 445.893 40.348V36.348C443.113 36.348 440.57 37.0373 438.328 38.4558L440.466 41.8362ZM445.893 40.348C447.907 40.348 449.403 40.714 450.494 41.3165L452.428 37.8155C450.58 36.794 448.365 36.348 445.893 36.348V40.348ZM450.548 41.3456C451.632 41.9013 452.444 42.7515 453.003 43.9863L456.647 42.3377C455.737 40.3245 454.306 38.7773 452.374 37.7864L450.548 41.3456ZM453.003 43.9863C453.586 45.2747 453.927 47.0021 453.927 49.252H457.927C457.927 46.6299 457.534 44.2973 456.647 42.3377L453.003 43.9863ZM453.927 49.252V65.55H457.927V49.252H453.927ZM453.927 65.55C453.927 65.6663 453.911 65.6929 453.922 65.6615C453.928 65.6445 453.94 65.615 453.963 65.5784C453.986 65.5414 454.015 65.5041 454.049 65.4698L456.877 68.2982C457.672 67.5038 457.927 66.4815 457.927 65.55H453.927ZM454.049 65.4698C454.076 65.4431 454.107 65.4177 454.141 65.396C454.176 65.3745 454.206 65.3606 454.229 65.3524C454.273 65.3362 454.269 65.348 454.187 65.348V69.348C455.125 69.348 456.108 69.0675 456.877 68.2982L454.049 65.4698ZM454.187 65.348C454.071 65.348 454.044 65.3321 454.076 65.343C454.093 65.3489 454.122 65.3612 454.159 65.3837C454.196 65.4065 454.233 65.4355 454.267 65.4698L451.439 68.2982C452.233 69.0926 453.256 69.348 454.187 69.348V65.348ZM454.267 65.4698C454.302 65.5041 454.331 65.5414 454.353 65.5784C454.376 65.615 454.388 65.6445 454.394 65.6615C454.405 65.6929 454.389 65.6663 454.389 65.55H450.389C450.389 66.4815 450.645 67.5038 451.439 68.2982L454.267 65.4698ZM454.389 65.55V49.542H450.389V65.55H454.389ZM454.389 49.542C454.389 46.5323 453.805 43.8897 452.209 42.0738L449.205 44.7142C449.852 45.4503 450.389 46.9064 450.389 49.542H454.389ZM452.229 42.0961C450.591 40.176 448.143 39.422 445.371 39.422V43.422C447.471 43.422 448.581 43.9827 449.185 44.6919L452.229 42.0961ZM445.371 39.422C442.133 39.422 439.346 40.4524 437.213 42.6338L440.073 45.4302C441.343 44.1316 443.041 43.422 445.371 43.422V39.422ZM437.213 42.6341C435.108 44.7878 434.149 47.633 434.149 50.934H438.149C438.149 48.435 438.853 46.6788 440.073 45.4299L437.213 42.6341ZM434.149 50.934V65.55H438.149V50.934H434.149ZM434.149 65.55C434.149 65.6945 434.131 65.7413 434.137 65.7226C434.146 65.695 434.182 65.6053 434.277 65.5077C434.373 65.4087 434.47 65.3615 434.519 65.3447C434.558 65.3314 434.533 65.348 434.409 65.348V69.348C435.314 69.348 436.357 69.1105 437.151 68.2893C437.934 67.4804 438.149 66.4415 438.149 65.55H434.149ZM472.316 65.666L471.262 67.3658L472.316 65.666ZM467.792 60.62L465.991 61.4886L465.997 61.5016L466.003 61.5144L467.792 60.62ZM467.096 46.932L465.207 46.275L465.201 46.2934L465.195 46.312L467.096 46.932ZM469.706 42.35L468.206 41.0268L468.204 41.0298L469.706 42.35ZM473.824 39.392L474.59 41.2395L474.601 41.235L474.612 41.2303L473.824 39.392ZM486.062 40.146L487.116 38.4462V38.4462L486.062 40.146ZM490.528 45.25L488.721 46.1062L488.73 46.1254L488.739 46.1444L490.528 45.25ZM491.224 58.938L489.335 58.281L489.329 58.2994L489.323 58.318L491.224 58.938ZM488.614 63.52L487.134 62.1747L487.123 62.1871L487.112 62.1998L488.614 63.52ZM484.554 66.478L485.32 68.3255L485.339 68.3176L485.358 68.3093L484.554 66.478ZM484.148 63.172L485.225 64.8574L485.237 64.8499L484.148 63.172ZM487.396 59.17L485.569 58.3577L485.561 58.3748L485.554 58.3921L487.396 59.17ZM486.004 44.38L484.463 45.6545L484.47 45.6632L484.477 45.6719L486.004 44.38ZM474.172 42.756L475.249 44.4414L475.261 44.4339L474.172 42.756ZM470.924 46.7L469.097 45.8877L469.092 45.8974L469.088 45.9071L470.924 46.7ZM472.374 61.49L473.901 60.1981L472.374 61.49ZM479.16 65.464C476.844 65.464 474.94 64.9396 473.37 63.9662L471.262 67.3658C473.559 68.7897 476.218 69.464 479.16 69.464V65.464ZM473.37 63.9662C471.772 62.9754 470.509 61.5818 469.581 59.7256L466.003 61.5144C467.241 63.9889 468.994 65.9593 471.262 67.3658L473.37 63.9662ZM469.594 59.7514C468.708 57.9138 468.226 55.6527 468.226 52.906H464.226C464.226 56.114 464.789 58.9956 465.991 61.4886L469.594 59.7514ZM468.226 52.906C468.226 50.8761 468.493 49.0985 468.998 47.552L465.195 46.312C464.539 48.3228 464.226 50.5279 464.226 52.906H468.226ZM468.985 47.589C469.528 46.0278 470.275 44.7322 471.208 43.6702L468.204 41.0298C466.894 42.5198 465.901 44.2788 465.207 46.275L468.985 47.589ZM471.206 43.6732C472.169 42.5818 473.292 41.7776 474.59 41.2395L473.058 37.5445C471.185 38.321 469.563 39.4889 468.206 41.0268L471.206 43.6732ZM474.612 41.2303C475.964 40.6507 477.472 40.348 479.16 40.348V36.348C476.982 36.348 474.932 36.7413 473.036 37.5537L474.612 41.2303ZM479.16 40.348C481.521 40.348 483.443 40.8751 485.008 41.8458L487.116 38.4462C484.815 37.0195 482.135 36.348 479.16 36.348V40.348ZM485.008 41.8458C486.591 42.8269 487.829 44.2238 488.721 46.1062L492.336 44.3938C491.139 41.8682 489.4 39.8625 487.116 38.4462L485.008 41.8458ZM488.739 46.1444C489.657 47.9789 490.152 50.2123 490.152 52.906H494.152C494.152 49.7223 493.565 46.8518 492.317 44.3556L488.739 46.1444ZM490.152 52.906C490.152 54.9665 489.868 56.7495 489.335 58.281L493.113 59.595C493.818 57.5691 494.152 55.3308 494.152 52.906H490.152ZM489.323 58.318C488.823 59.8509 488.088 61.1252 487.134 62.1747L490.094 64.8653C491.46 63.3628 492.465 61.5825 493.126 59.558L489.323 58.318ZM487.112 62.1998C486.187 63.2522 485.074 64.0657 483.75 64.6467L485.358 68.3093C487.205 67.4983 488.799 66.3398 490.117 64.8402L487.112 62.1998ZM483.788 64.6305C482.484 65.1714 480.952 65.464 479.16 65.464V69.464C481.389 69.464 483.454 69.0992 485.32 68.3255L483.788 64.6305ZM479.16 66.506C481.409 66.506 483.46 65.9851 485.225 64.8574L483.071 61.4866C482.053 62.1375 480.778 62.506 479.16 62.506V66.506ZM485.237 64.8499C487.039 63.681 488.366 62.0153 489.239 59.9479L485.554 58.3921C484.957 59.8047 484.119 60.807 483.06 61.4941L485.237 64.8499ZM489.224 59.9823C490.138 57.9258 490.556 55.5466 490.556 52.906H486.556C486.556 55.1374 486.201 56.9342 485.569 58.3577L489.224 59.9823ZM490.556 52.906C490.556 48.9448 489.639 45.5798 487.531 43.0881L484.477 45.6719C485.772 47.2015 486.556 49.5205 486.556 52.906H490.556ZM487.545 43.1055C485.457 40.5804 482.581 39.364 479.16 39.364V43.364C481.539 43.364 483.226 44.1583 484.463 45.6545L487.545 43.1055ZM479.16 39.364C476.924 39.364 474.874 39.9169 473.084 41.0781L475.261 44.4339C476.332 43.7391 477.607 43.364 479.16 43.364V39.364ZM473.095 41.0706C471.325 42.2019 470.004 43.8455 469.097 45.8877L472.752 47.5123C473.391 46.0745 474.236 45.0888 475.249 44.4414L473.095 41.0706ZM469.088 45.9071C468.217 47.9242 467.822 50.2789 467.822 52.906H471.822C471.822 50.6611 472.162 48.8784 472.76 47.4929L469.088 45.9071ZM467.822 52.906C467.822 56.8997 468.736 60.2869 470.847 62.7819L473.901 60.1981C472.609 58.6718 471.822 56.3363 471.822 52.906H467.822ZM470.847 62.7819C472.959 65.277 475.797 66.506 479.16 66.506V62.506C476.878 62.506 475.192 61.7243 473.901 60.1981L470.847 62.7819ZM501.052 66.42L502.466 65.0058L501.052 66.42ZM504.88 62.592L503.41 63.9486L503.437 63.9779L503.465 64.0062L504.88 62.592ZM504.88 66.42L503.465 65.0058L503.437 65.0341L503.41 65.0634L504.88 66.42ZM502.966 65.174C502.671 65.174 502.559 65.0986 502.466 65.0058L499.637 67.8342C500.55 68.7468 501.713 69.174 502.966 69.174V65.174ZM502.466 65.0058C502.373 64.913 502.298 64.8003 502.298 64.506H498.298C498.298 65.7584 498.725 66.9217 499.637 67.8342L502.466 65.0058ZM502.298 64.506C502.298 64.2117 502.373 64.099 502.466 64.0062L499.637 61.1778C498.725 62.0903 498.298 63.2536 498.298 64.506H502.298ZM502.466 64.0062C502.559 63.9134 502.671 63.838 502.966 63.838V59.838C501.713 59.838 500.55 60.2652 499.637 61.1778L502.466 64.0062ZM502.966 63.838C503.333 63.838 503.395 63.9327 503.41 63.9486L506.349 61.2354C505.436 60.246 504.222 59.838 502.966 59.838V63.838ZM503.465 64.0062C503.558 64.099 503.634 64.2117 503.634 64.506H507.634C507.634 63.2536 507.206 62.0903 506.294 61.1778L503.465 64.0062ZM503.634 64.506C503.634 64.8003 503.558 64.913 503.465 65.0058L506.294 67.8342C507.206 66.9217 507.634 65.7584 507.634 64.506H503.634ZM503.41 65.0634C503.395 65.0793 503.333 65.174 502.966 65.174V69.174C504.222 69.174 505.436 68.766 506.349 67.7766L503.41 65.0634Z" fill="#00AAF6"/>
</g>
<defs>
<filter id="filter0_dddd_328_256" x="0.335938" y="0.646484" width="530.297" height="91.8184" filterUnits="userSpaceOnUse" color-interpolation-filters="sRGB">
<feFlood flood-opacity="0" result="BackgroundImageFix"/>
<feColorMatrix in="SourceAlpha" type="matrix" values="0 0 0 0 0 0 0 0 0 0 0 0 0 0 0 0 0 0 127 0" result="hardAlpha"/>
<feOffset/>
<feGaussianBlur stdDeviation="12.5"/>
<feComposite in2="hardAlpha" operator="out"/>
<feColorMatrix type="matrix" values="0 0 0 0 0 0 0 0 0 0.666667 0 0 0 0 0.964706 0 0 0 1 0"/>
<feBlend mode="normal" in2="BackgroundImageFix" result="effect1_dropShadow_328_256"/>
<feColorMatrix in="SourceAlpha" type="matrix" values="0 0 0 0 0 0 0 0 0 0 0 0 0 0 0 0 0 0 127 0" result="hardAlpha"/>
<feOffset/>
<feGaussianBlur stdDeviation="12.5"/>
<feComposite in2="hardAlpha" operator="out"/>
<feColorMatrix type="matrix" values="0 0 0 0 0 0 0 0 0 0.666667 0 0 0 0 0.964706 0 0 0 1 0"/>
<feBlend mode="normal" in2="effect1_dropShadow_328_256" result="effect2_dropShadow_328_256"/>
<feColorMatrix in="SourceAlpha" type="matrix" values="0 0 0 0 0 0 0 0 0 0 0 0 0 0 0 0 0 0 127 0" result="hardAlpha"/>
<feOffset/>
<feGaussianBlur stdDeviation="12.5"/>
<feComposite in2="hardAlpha" operator="out"/>
<feColorMatrix type="matrix" values="0 0 0 0 0 0 0 0 0 0.666667 0 0 0 0 0.964706 0 0 0 1 0"/>
<feBlend mode="normal" in2="effect2_dropShadow_328_256" result="effect3_dropShadow_328_256"/>
<feColorMatrix in="SourceAlpha" type="matrix" values="0 0 0 0 0 0 0 0 0 0 0 0 0 0 0 0 0 0 127 0" result="hardAlpha"/>
<feOffset/>
<feGaussianBlur stdDeviation="12.5"/>
<feComposite in2="hardAlpha" operator="out"/>
<feColorMatrix type="matrix" values="0 0 0 0 0 0 0 0 0 0.666667 0 0 0 0 0.964706 0 0 0 1 0"/>
<feBlend mode="normal" in2="effect3_dropShadow_328_256" result="effect4_dropShadow_328_256"/>
<feBlend mode="normal" in="SourceGraphic" in2="effect4_dropShadow_328_256" result="shape"/>
</filter>
</defs>
</svg>
