<svg id="Layer_1" data-name="Layer 1" xmlns="http://www.w3.org/2000/svg" viewBox="0 0 288.11 59"><defs><style>.cls-1{fill:#2e3192;}.cls-2{fill:#1b1464;}.cls-3{fill:#4750ba;}.cls-4{fill:#ede2d1;}</style></defs><title>tosidrop_logo-03</title><path class="cls-1" d="M432.49,294a10.75,10.75,0,0,0-4.73-2.63,10.61,10.61,0,0,0-5.86.15,10.74,10.74,0,0,0-4.16,2.45,30.47,30.47,0,0,1,1.61-6.83,20.49,20.49,0,0,1,4.3-7.11,17.42,17.42,0,0,1,1.46-1.37,16.92,16.92,0,0,1,1.43,1.34c2.57,2.7,5.11,7.07,5.95,14Z" transform="translate(-398.89 -273)"/><path class="cls-2" d="M451.3,302.59v0a1,1,0,0,1-1,1h0a1,1,0,0,1-.84-.48,8.78,8.78,0,0,0-7.55-4.34h0a8.77,8.77,0,0,0-7.55,4.33,1,1,0,0,1-.84.48h0a1,1,0,0,1-.84-.49,8.77,8.77,0,0,0-4.91-4v21.1a6.84,6.84,0,0,1-1.91,4.75,6.62,6.62,0,0,1-4.68,2.06H421a6.73,6.73,0,0,1-6.72-6.72v-2.2a2.93,2.93,0,0,1,5.86,0v2.15a.89.89,0,0,0,.81.91.86.86,0,0,0,.9-.86v-21a8.75,8.75,0,0,0-4.37,3.76,1,1,0,0,1-.84.49h0a1,1,0,0,1-.84-.48,8.78,8.78,0,0,0-7.55-4.34h0a8.77,8.77,0,0,0-7.55,4.33,1,1,0,0,1-.84.48h0a1,1,0,0,1-1-1v0c0-.1,0-.2,0-.31h0c0-.1,0-.2,0-.31s0-.16,0-.25,0-.29,0-.43A26.21,26.21,0,0,1,400,295h0a26.26,26.26,0,0,1,23.66-18.56v-2a1.44,1.44,0,1,1,2.88,0v2A26.25,26.25,0,0,1,450.2,295a26.32,26.32,0,0,1,1.11,7.56Zm-2.13-2.93h0a24.17,24.17,0,0,0-.76-3.77h0a8.74,8.74,0,0,0-13.74,1c0,.28,0,.55,0,.81,0,.08,0,.16,0,.24,0,.43,0,.83,0,1.22v.1c0,.1,0,.2,0,.29v.11a10.48,10.48,0,0,1,1.82-1.34,10.68,10.68,0,0,1,12.65,1.39Zm-2.08-7.27a24.35,24.35,0,0,0-19.25-13.86,22.34,22.34,0,0,1,4.84,7.89,32.58,32.58,0,0,1,1.77,7.66,10.7,10.7,0,0,1,12.65-1.69Zm-12.71,10.67,0,0,0,.05h0Zm-.06.1h0Zm-1.57-3.85c0-.24,0-.49,0-.75v-.34c0-.25,0-.51,0-.78l-.08-.12a8.77,8.77,0,0,0-4.91-4,8.36,8.36,0,0,0-1-.25,9.31,9.31,0,0,0-1-.14c-.24,0-.47,0-.71,0a8.6,8.6,0,0,0-2.23.29,9.3,9.3,0,0,0-1,.32,8.75,8.75,0,0,0-4.37,3.76l-.06.08v.25s0,.05,0,.08v.47c0,.5,0,1,0,1.4,0,.06,0,.12,0,.18v0s0,.1,0,.15v0a10.76,10.76,0,0,1,4.43-2.71c.32-.1.64-.19,1-.26s.65-.12,1-.16v0a10.49,10.49,0,0,1,1.25-.07l.72,0v0c.33,0,.65.06,1,.11s.65.12,1,.2a10.75,10.75,0,0,1,5,2.89v0s0-.1,0-.15,0-.13,0-.2,0-.12,0-.18,0-.11,0-.17Zm-5-8a10.76,10.76,0,0,1,4.73,2.63c-.84-6.93-3.38-11.29-5.95-14a17.64,17.64,0,0,0-1.43-1.34,17.4,17.4,0,0,0-1.45,1.37,20.49,20.49,0,0,0-4.3,7.11,30.38,30.38,0,0,0-1.61,6.83,10.76,10.76,0,0,1,4.16-2.45,10.61,10.61,0,0,1,5.86-.15Zm-1.95,28.94v-3.09h-2v3.18a2.82,2.82,0,0,1-.87,2,2.78,2.78,0,0,1-2.07.77,2.83,2.83,0,0,1-2.67-2.86v-2.15a1,1,0,0,0-2,0v2.2a4.78,4.78,0,0,0,4.86,4.77,4.85,4.85,0,0,0,4.68-4.87Zm0-5V298.74c-.24,0-.47,0-.72,0a8.58,8.58,0,0,0-1.25.09v16.47h2Zm-8.29-28.84a22.33,22.33,0,0,1,4.85-7.92,24.34,24.34,0,0,0-19.29,13.86,10.7,10.7,0,0,1,12.67,1.72,32.82,32.82,0,0,1,1.77-7.66Zm-2,10.92c0-.16,0-.32,0-.48a8.74,8.74,0,0,0-13.76-1h0a24.29,24.29,0,0,0-.76,3.77h0a10.64,10.64,0,0,1,7.25-2.84h0a10.73,10.73,0,0,1,7.24,2.83c0-.06,0-.11,0-.18v-.31c0-.55,0-1.15,0-1.79Z" transform="translate(-398.89 -273)"/><path class="cls-2" d="M450.23,295.13a26.21,26.21,0,0,1,1.08,7.46,26.24,26.24,0,0,0-1.11-7.56l0,.1Z" transform="translate(-398.89 -273)"/><path class="cls-3" d="M449.18,299.66h0a10.68,10.68,0,0,0-14.47,0v-.11c0-.09,0-.19,0-.29v-.1c0-.38,0-.79,0-1.22,0-.08,0-.16,0-.24,0-.26,0-.53,0-.81a8.74,8.74,0,0,1,13.74-1h0a24.11,24.11,0,0,1,.76,3.77Z" transform="translate(-398.89 -273)"/><path class="cls-4" d="M442.25,285.48a24.33,24.33,0,0,1,4.85,6.9,10.7,10.7,0,0,0-12.65,1.69,32.72,32.72,0,0,0-1.77-7.66,22.34,22.34,0,0,0-4.84-7.89,24.08,24.08,0,0,1,14.41,7Z" transform="translate(-398.89 -273)"/><path class="cls-2" d="M434.38,303.08l0,0,0,.07h0Z" transform="translate(-398.89 -273)"/><path class="cls-2" d="M434.33,303.14h0Z" transform="translate(-398.89 -273)"/><path class="cls-3" d="M432.77,298.56c0,.26,0,.51,0,.75,0,.06,0,.11,0,.17s0,.12,0,.18,0,.13,0,.2,0,.1,0,.15a10.75,10.75,0,0,0-5-2.89c-.32-.08-.65-.15-1-.2s-.65-.09-1-.11l-.72,0a10.52,10.52,0,0,0-1.25.07c-.33,0-.65.09-1,.16s-.65.16-1,.26a10.78,10.78,0,0,0-4.43,2.71s0-.1,0-.15v0c0-.06,0-.12,0-.18,0-.43,0-.9,0-1.4,0-.13,0-.27,0-.4v-.07s0-.05,0-.08v-.25l.06-.08a8.75,8.75,0,0,1,4.37-3.76,8.65,8.65,0,0,1,1-.32,8.79,8.79,0,0,1,1-.2,8.57,8.57,0,0,1,1.25-.09c.24,0,.48,0,.71,0a8.75,8.75,0,0,1,1,.14,9,9,0,0,1,1,.25,8.76,8.76,0,0,1,4.91,4l.08.12c0,.27,0,.53,0,.78v.34Z" transform="translate(-398.89 -273)"/><path class="cls-2" d="M432.75,300v0a10.77,10.77,0,0,0-5-2.89c-.32-.08-.65-.15-1-.2s-.65-.09-1-.11v0c.33,0,.65.06,1,.11s.65.12,1,.2a10.75,10.75,0,0,1,5,2.89Z" transform="translate(-398.89 -273)"/><path class="cls-3" d="M425.81,317.19v3.09a4.84,4.84,0,0,1-4.68,4.87,4.78,4.78,0,0,1-4.86-4.77v-2.2a1,1,0,0,1,2,0v2.15a2.83,2.83,0,0,0,2.67,2.86,2.78,2.78,0,0,0,2.07-.77,2.82,2.82,0,0,0,.87-2v-3.18h2Z" transform="translate(-398.89 -273)"/><path class="cls-4" d="M425.81,298.75v16.53h-2V298.81a8.53,8.53,0,0,1,1.25-.09c.24,0,.48,0,.72,0Z" transform="translate(-398.89 -273)"/><path class="cls-2" d="M423.85,296.84v0c-.33,0-.65.09-1,.16s-.65.16-1,.26a10.78,10.78,0,0,0-4.43,2.71v0a10.75,10.75,0,0,1,4.43-2.71c.32-.1.64-.19,1-.26s.65-.12,1-.16Z" transform="translate(-398.89 -273)"/><path class="cls-4" d="M422.38,278.52a22.36,22.36,0,0,0-4.85,7.92,32.7,32.7,0,0,0-1.77,7.66,10.7,10.7,0,0,0-12.67-1.72,24.34,24.34,0,0,1,19.29-13.86Z" transform="translate(-398.89 -273)"/><path class="cls-3" d="M415.54,296.88c0,.16,0,.32,0,.48,0,.64,0,1.24,0,1.79v.31c0,.06,0,.12,0,.18a10.73,10.73,0,0,0-7.24-2.83h0a10.64,10.64,0,0,0-7.25,2.84h0a24.29,24.29,0,0,1,.76-3.77h0a8.74,8.74,0,0,1,13.76,1Z" transform="translate(-398.89 -273)"/><path class="cls-2" d="M400,295.13l0-.1a26.21,26.21,0,0,0-1.08,6.27A26,26,0,0,1,400,295.13Z" transform="translate(-398.89 -273)"/><path class="cls-4" d="M477.52,320.88h-7a2,2,0,0,1-2-2V299.38a2,2,0,0,0-2-2h-5.36a2,2,0,0,1-2-2v-5.31a2,2,0,0,1,2-2h25.38a2,2,0,0,1,2,2v5.31a2,2,0,0,1-2,2h-5a2,2,0,0,0-2,2v19.49a2,2,0,0,1-2,2Z" transform="translate(-398.89 -273)"/><path class="cls-4" d="M517.43,308.59a13.2,13.2,0,0,1-1.14,5.61,12.37,12.37,0,0,1-3.06,4.15,13.3,13.3,0,0,1-4.45,2.57,16,16,0,0,1-5.31.88,15.79,15.79,0,0,1-5.26-.88,13,13,0,0,1-4.43-2.57,12.46,12.46,0,0,1-3-4.15,13.2,13.2,0,0,1-1.14-5.61,12.83,12.83,0,0,1,1.14-5.54,12.3,12.3,0,0,1,3-4.1,12.92,12.92,0,0,1,4.43-2.52,16.25,16.25,0,0,1,5.26-.86,16.52,16.52,0,0,1,5.31.86,13.19,13.19,0,0,1,4.45,2.52,12.13,12.13,0,0,1,3.06,4.1A13,13,0,0,1,517.43,308.59Zm-13.95-4a3.67,3.67,0,0,0-2.85,1.2,4.08,4.08,0,0,0-1.09,2.83,4.16,4.16,0,0,0,1.11,2.92,4,4,0,0,0,5.75,0,4.14,4.14,0,0,0,1.11-2.92,4,4,0,0,0-1.14-2.83,3.81,3.81,0,0,0-2.9-1.2Z" transform="translate(-398.89 -273)"/><path class="cls-4" d="M542.64,313.14a7.68,7.68,0,0,1-1,4.12,8.2,8.2,0,0,1-2.63,2.66,11.33,11.33,0,0,1-3.48,1.44,16,16,0,0,1-3.6.44,21.54,21.54,0,0,1-6.19-.9,18.17,18.17,0,0,1-3.13-1.24,2,2,0,0,1-.61-3.1l2.51-2.91a2,2,0,0,1,2.56-.38,9.84,9.84,0,0,0,1.26.63,7.55,7.55,0,0,0,2.9.63,2.6,2.6,0,0,0,1-.21.76.76,0,0,0,.49-.77q0-.6-.86-.95a23.75,23.75,0,0,0-3-.86,13.74,13.74,0,0,1-2.36-.81,8.48,8.48,0,0,1-2.2-1.41,7.19,7.19,0,0,1-1.64-2.16,6.62,6.62,0,0,1-.65-3,7.46,7.46,0,0,1,1-4,8.69,8.69,0,0,1,2.64-2.71,11.75,11.75,0,0,1,3.48-1.53,14.16,14.16,0,0,1,3.55-.49,19.44,19.44,0,0,1,5.61.83,19.82,19.82,0,0,1,2.79,1.07,2,2,0,0,1,.67,3.09l-2.42,2.89A2,2,0,0,1,537,304a10.17,10.17,0,0,0-1-.42,7.17,7.17,0,0,0-2.36-.42,3.45,3.45,0,0,0-1.3.21.81.81,0,0,0,.07,1.53,16.44,16.44,0,0,0,2.65.67,13.84,13.84,0,0,1,2.79.86,9.78,9.78,0,0,1,2.45,1.48,6.52,6.52,0,0,1,2.38,5.26Z" transform="translate(-398.89 -273)"/><path class="cls-4" d="M550.43,296.5h6.7a2,2,0,0,1,2,2v20.37a2,2,0,0,1-2,2h-6.7a2,2,0,0,1-2-2V298.5A2,2,0,0,1,550.43,296.5Z" transform="translate(-398.89 -273)"/><path class="cls-4" d="M568.26,318.87V290.07a2,2,0,0,1,2-2H580.5a35.16,35.16,0,0,1,7.44.77,17.25,17.25,0,0,1,6.26,2.64,13.6,13.6,0,0,1,4.33,5,19.21,19.21,0,0,1,.07,15.29,14.57,14.57,0,0,1-4.15,5.17,17.54,17.54,0,0,1-6,3,25.38,25.38,0,0,1-7,1H570.27a2,2,0,0,1-2-2Zm10.61-19.45v9.95a2,2,0,0,0,2,2h0a9.31,9.31,0,0,0,6-1.69Q589,308,589,304.17a6.18,6.18,0,0,0-2.09-5,8.28,8.28,0,0,0-5.56-1.78h-.45a2,2,0,0,0-2,2Z" transform="translate(-398.89 -273)"/><path class="cls-4" d="M605.73,296.5h8a1.13,1.13,0,0,1,1.13,1.13v1.65H615a6.48,6.48,0,0,1,2.34-2.46,6.71,6.71,0,0,1,3.64-1c.33,0,.64,0,.92,0a1.13,1.13,0,0,1,1,1.23l-.07,6.83a1.13,1.13,0,0,1-1.25,1h0c-.42,0-1.35-.07-1.69-.07a4.62,4.62,0,0,0-3.34,1.2,4,4,0,0,0-1.25,3v10.69a1.13,1.13,0,0,1-1.13,1.13h-8.45a1.13,1.13,0,0,1-1.13-1.13V297.62a1.13,1.13,0,0,1,1.13-1.13Z" transform="translate(-398.89 -273)"/><path class="cls-4" d="M654,308.59a13.2,13.2,0,0,1-1.14,5.61,12.37,12.37,0,0,1-3.06,4.15,13.3,13.3,0,0,1-4.45,2.57,16,16,0,0,1-5.31.88,15.79,15.79,0,0,1-5.26-.88,13,13,0,0,1-4.43-2.57,12.46,12.46,0,0,1-3-4.15,13.2,13.2,0,0,1-1.14-5.61,12.83,12.83,0,0,1,1.14-5.54,12.3,12.3,0,0,1,3-4.1,12.92,12.92,0,0,1,4.43-2.52,16.25,16.25,0,0,1,5.26-.86,16.52,16.52,0,0,1,5.31.86,13.19,13.19,0,0,1,4.45,2.52,12.13,12.13,0,0,1,3.06,4.1A13,13,0,0,1,654,308.59Zm-13.95-4a3.67,3.67,0,0,0-2.85,1.2,4.08,4.08,0,0,0-1.09,2.83,4.16,4.16,0,0,0,1.11,2.92,4,4,0,0,0,5.75,0,4.14,4.14,0,0,0,1.11-2.92,4,4,0,0,0-1.14-2.83,3.81,3.81,0,0,0-2.9-1.2Z" transform="translate(-398.89 -273)"/><path class="cls-4" d="M675.92,321.53a10,10,0,0,1-3.57-.67,7.44,7.44,0,0,1-2.87-1.88h-.09v11a2,2,0,0,1-2,2h-6.61a2,2,0,0,1-2-2V298.5a2,2,0,0,1,2-2h6.05a2,2,0,0,1,2,2V299h.09a8.71,8.71,0,0,1,3.24-2.32,9.66,9.66,0,0,1,3.71-.79,10.1,10.1,0,0,1,4.82,1.11,10.64,10.64,0,0,1,3.48,2.92,13.12,13.12,0,0,1,2.11,4.08,15.27,15.27,0,0,1,.72,4.64,16.09,16.09,0,0,1-.72,4.73,13.29,13.29,0,0,1-2.11,4.15,10.61,10.61,0,0,1-3.45,2.94,9.94,9.94,0,0,1-4.8,1.11Zm1.16-12.93a4.24,4.24,0,0,0-1-2.83,3.67,3.67,0,0,0-3-1.2,3.93,3.93,0,0,0-3,1.2,4,4,0,0,0-1.14,2.83,4.1,4.1,0,0,0,1.14,2.92,4,4,0,0,0,3,1.2,3.75,3.75,0,0,0,3-1.18,4.35,4.35,0,0,0,1-2.94Z" transform="translate(-398.89 -273)"/><circle class="cls-4" cx="154.94" cy="15.03" r="5.28"/></svg>