<svg width="299" height="35" viewBox="0 0 299 35" fill="none" xmlns="http://www.w3.org/2000/svg">
<path d="M48.5308 33.0921C47.5663 34.5728 44.8069 35.7494 37.1511 32.9381C36.7689 32.798 36.3807 32.6479 35.9845 32.4938C35.6283 32.3518 35.2662 32.2037 34.9 32.0496C34.5398 31.8995 34.1756 31.7415 33.8094 31.5774C30.8379 30.2688 27.6123 28.5879 24.3167 26.633C22.946 25.8226 21.5653 24.9642 20.1826 24.0637C18.7999 23.1633 17.4572 22.2489 16.1606 21.3224C13.045 19.0993 10.2056 16.8302 7.80437 14.6412C7.50422 14.371 7.21607 14.1009 6.92993 13.8328C6.63978 13.5607 6.36164 13.2885 6.08551 13.0204C5.78135 12.7222 5.48921 12.4241 5.20506 12.132C3.2761 10.135 1.86139 8.32011 1.00296 6.73534C-0.411754 4.13208 -0.0715837 2.60334 0.462684 1.78495C1.42717 0.302228 4.18655 -0.874341 11.8424 1.93702L12.8509 2.3052C11.6783 3.22565 10.6038 4.29816 9.6573 5.51475C7.12803 4.84643 6.25159 5.11456 6.18155 5.22462C6.10952 5.33467 6.21757 6.24711 7.85039 8.2861C8.05649 8.54222 8.28661 8.81836 8.54074 9.1125C8.76285 9.36262 9.00097 9.62875 9.2631 9.90688C9.28511 9.92689 9.30312 9.9509 9.32513 9.97291C10.9499 11.7018 13.021 13.5847 15.4962 15.5436C17.5513 17.1664 19.8864 18.8472 22.4797 20.536C25.073 22.2249 27.5523 23.6796 29.8674 24.9022C32.6608 26.3749 35.2181 27.5054 37.4572 28.2938C37.4893 28.3058 37.5173 28.3138 37.5453 28.3238C37.9055 28.4499 38.2456 28.5639 38.5638 28.662C38.936 28.778 39.2782 28.8761 39.5983 28.9601C42.1216 29.6284 43.002 29.3583 43.0721 29.2483C43.1461 29.1402 43.034 28.2278 41.4052 26.1888C42.1316 24.8321 42.6759 23.4154 43.0461 21.9747L43.7904 22.7391C45.7214 24.7381 47.1361 26.551 47.9925 28.1357C49.4072 30.741 49.0691 32.2657 48.5328 33.0881L48.5308 33.0921Z" fill="#CC8E4A"/>
<path d="M41.8426 18.0119C41.8006 18.7322 41.7165 19.4486 41.5805 20.1609C41.3143 21.5896 40.8601 23.0003 40.2138 24.3489C39.9456 24.9072 39.6475 25.4555 39.3133 25.9897C39.2493 26.0958 39.1853 26.2018 39.1132 26.3079C39.1092 26.3139 39.1052 26.3219 39.0992 26.3279C39.0352 26.426 38.9692 26.524 38.9031 26.618C38.701 26.554 38.4889 26.48 38.2668 26.4039C36.1858 25.6716 33.9086 24.6651 31.5034 23.4245C29.0082 22.1379 26.3728 20.5951 23.6675 18.8323C20.9601 17.0674 18.4789 15.2806 16.2938 13.5217C14.1867 11.8209 12.3478 10.1461 10.839 8.53928C10.677 8.3692 10.5249 8.20512 10.3828 8.04504C10.4428 7.945 10.5049 7.84895 10.5689 7.7489C10.5729 7.7429 10.5769 7.73289 10.5829 7.72689C10.6529 7.62084 10.723 7.51879 10.793 7.41674C11.1472 6.89448 11.5274 6.39825 11.9316 5.93202C12.9061 4.79147 14.0106 3.80899 15.2092 2.98659C15.8075 2.57439 16.4298 2.20421 17.0722 1.88006C22.3308 -0.809248 28.8461 -0.695195 34.1427 2.75248C39.4354 6.20015 42.1768 12.115 41.8426 18.0119Z" fill="url(#paint0_linear_126_218)"/>
<path d="M31.1915 32.8089C26.219 34.8019 20.38 34.4257 15.5576 31.2862C10.7352 28.1446 8.03184 22.9561 7.84375 17.6035C9.94681 19.4064 12.292 21.2333 14.8433 23.0542C16.214 24.0306 17.6287 24.9931 19.0514 25.9216C20.5021 26.864 21.9588 27.7684 23.3735 28.6069C26.0689 30.2056 28.6902 31.6143 31.1915 32.8089Z" fill="url(#paint1_linear_126_218)"/>
<path d="M4.16869 32.9584C5.71807 32.9584 6.9741 31.7024 6.9741 30.153C6.9741 28.6037 5.71807 27.3477 4.16869 27.3477C2.6193 27.3477 1.36328 28.6037 1.36328 30.153C1.36328 31.7024 2.6193 32.9584 4.16869 32.9584Z" fill="#CC8E4A"/>
<path d="M44.7206 8.16582C45.9816 8.16582 47.0038 7.14364 47.0038 5.88272C47.0038 4.62179 45.9816 3.59961 44.7206 3.59961C43.4597 3.59961 42.4375 4.62179 42.4375 5.88272C42.4375 7.14364 43.4597 8.16582 44.7206 8.16582Z" fill="#CC8E4A"/>
<path d="M56.125 22.4611C56.125 22.0529 56.3451 21.8308 56.7553 21.8308H58.5822C58.9924 21.8308 59.2126 22.0509 59.2126 22.4611C59.3706 25.3885 60.4712 26.335 63.5887 26.335H69.6038C73.0355 26.335 74.2021 25.5486 74.2021 22.9974C74.2021 20.4461 73.0375 20.0379 70.046 19.8178L63.1505 19.2516C58.3021 18.8734 56.2871 17.5187 56.2871 13.3947C56.2871 9.27071 58.2401 7.09766 63.9389 7.09766H69.4817C74.7403 7.09766 76.7554 9.2387 76.9434 13.961C76.9434 14.3712 76.7233 14.5913 76.3131 14.5913H74.4862C74.076 14.5913 73.8559 14.3712 73.8559 13.961C73.6978 11.0336 72.5973 10.0871 69.4797 10.0871H63.9689C60.4732 10.0871 59.3406 10.8435 59.3406 13.4247C59.3406 15.8179 60.4752 16.2901 63.4667 16.5422L70.3622 17.0765C75.1806 17.4547 77.2576 18.9034 77.2576 22.9954C77.2576 27.0874 75.3046 29.3244 69.6058 29.3244H63.5907C58.3321 29.3244 56.3171 27.1834 56.129 22.4591L56.125 22.4611Z" fill="#E3A14D"/>
<path d="M109.66 28.6942V10.0852H102.072C101.662 10.0852 101.441 9.86509 101.441 9.45489V7.72405C101.441 7.31386 101.662 7.09375 102.072 7.09375H120.367C120.777 7.09375 120.997 7.31386 120.997 7.72405V9.45489C120.997 9.86509 120.777 10.0852 120.367 10.0852H112.779V28.6942C112.779 29.1044 112.559 29.3245 112.149 29.3245H110.292C109.882 29.3245 109.662 29.1044 109.662 28.6942H109.66Z" fill="#E3A14D"/>
<path d="M123.641 21.6728V7.72405C123.641 7.31386 123.861 7.09375 124.271 7.09375H126.098C126.508 7.09375 126.728 7.31386 126.728 7.72405V21.7669C126.728 25.3246 127.957 26.3331 131.104 26.3331H137.906C141.055 26.3331 142.252 25.3246 142.252 21.7669V7.72405C142.252 7.31386 142.472 7.09375 142.882 7.09375H144.741C145.149 7.09375 145.372 7.31386 145.372 7.72405V21.6728C145.372 26.5532 143.292 29.3245 137.91 29.3245H131.108C125.692 29.3245 123.645 26.5532 123.645 21.6728H123.641Z" fill="#E3A14D"/>
<path d="M173.611 28.6942V7.72405C173.611 7.31386 173.831 7.09375 174.242 7.09375H176.225C176.539 7.09375 176.823 7.21981 177.011 7.47193L191.338 24.8223V7.72405C191.338 7.31386 191.558 7.09375 191.969 7.09375H193.796C194.206 7.09375 194.426 7.31386 194.426 7.72405V28.6942C194.426 29.1044 194.206 29.3245 193.796 29.3245H191.748C191.434 29.3245 191.15 29.1985 190.962 28.9463L176.697 11.69V28.6942C176.697 29.1044 176.477 29.3245 176.067 29.3245H174.24C173.829 29.3245 173.609 29.1044 173.609 28.6942H173.611Z" fill="#E3A14D"/>
<path d="M206.266 28.6942V7.72405C206.266 7.31386 206.486 7.09375 206.896 7.09375H208.723C209.133 7.09375 209.353 7.31386 209.353 7.72405V26.3331H223.68C224.089 26.3331 224.311 26.5532 224.311 26.9634V28.6962C224.311 29.1064 224.091 29.3265 223.68 29.3265H206.896C206.486 29.3265 206.266 29.1064 206.266 28.6962V28.6942Z" fill="white"/>
<path d="M276.871 22.4611C276.871 22.0529 277.091 21.8308 277.501 21.8308H279.328C279.739 21.8308 279.959 22.0509 279.959 22.4611C280.117 25.3885 281.217 26.335 284.335 26.335H290.35C293.782 26.335 294.948 25.5486 294.948 22.9974C294.948 20.4461 293.784 20.0379 290.792 19.8178L283.897 19.2516C279.048 18.8734 277.033 17.5187 277.033 13.3947C277.033 9.27071 278.986 7.09766 284.685 7.09766H290.228C295.486 7.09766 297.501 9.2387 297.69 13.961C297.69 14.3712 297.469 14.5913 297.059 14.5913H295.232C294.822 14.5913 294.602 14.3712 294.602 13.961C294.444 11.0336 293.343 10.0871 290.226 10.0871H284.715C281.219 10.0871 280.087 10.8435 280.087 13.4247C280.087 15.8179 281.221 16.2901 284.213 16.5422L291.108 17.0765C295.927 17.4547 298.004 18.9034 298.004 22.9954C298.004 27.0874 296.051 29.3244 290.352 29.3244H284.337C279.078 29.3244 277.063 27.1834 276.875 22.4591L276.871 22.4611Z" fill="white"/>
<path d="M103.739 28.5701L93.0012 7.53591C92.8431 7.22176 92.623 7.0957 92.2768 7.0957H90.0717C89.7255 7.0957 89.5054 7.22176 89.3473 7.53591L78.5779 28.5701C78.3578 29.0103 78.5779 29.3265 79.0502 29.3265H81.1592C81.5054 29.3265 81.7255 29.2004 81.8836 28.8863L83.8046 25.1084H96.9391L95.5985 22.4632H85.1272L91.2043 10.4353L96.557 21.1405L99.0122 26.0409L100.431 28.8563C100.589 29.1704 100.809 29.3285 101.155 29.3285H103.264C103.737 29.3285 103.957 29.0143 103.737 28.5721L103.739 28.5701Z" fill="#E3A14D"/>
<path d="M251.426 28.5701L240.689 7.53591C240.531 7.22176 240.31 7.0957 239.964 7.0957H237.759C237.413 7.0957 237.193 7.22176 237.035 7.53591L226.265 28.5701C226.045 29.0103 226.265 29.3265 226.738 29.3265H228.847C229.193 29.3265 229.413 29.2004 229.571 28.8863L231.492 25.1084H244.627L243.286 22.4632H232.817L238.894 10.4353L244.409 21.4667L246.864 26.369L248.118 28.8563C248.276 29.1704 248.497 29.3285 248.843 29.3285H250.952C251.424 29.3285 251.644 29.0143 251.424 28.5721L251.426 28.5701Z" fill="white"/>
<path d="M271.234 18.115C272.524 17.4847 273.973 16.4783 273.973 13.3928V13.0786C273.941 9.01663 271.8 7.0957 266.479 7.0957H252.142C251.732 7.0957 251.512 7.31581 251.512 7.72601V10.0872H266.321C269.439 10.0872 270.793 10.9056 270.793 13.3307V13.7709C270.793 16.0701 269.503 16.7304 267.11 16.7304H256.876V11.5939H253.791V28.6962C253.791 29.1064 254.011 29.3265 254.421 29.3265H266.701C272.022 29.3265 274.133 27.4996 274.133 23.4696V23.1855C274.133 19.9739 272.558 18.7453 271.236 18.115H271.234ZM270.981 23.1855C270.981 25.6107 269.627 26.365 266.541 26.365H256.874V19.4697H267.204C269.659 19.4697 270.981 20.4142 270.981 22.7753V23.1855Z" fill="white"/>
<path d="M170.303 15.1557V14.7775C170.303 9.51892 168.098 7.09375 161.487 7.09375H150.087C149.677 7.09375 149.457 7.31386 149.457 7.72405V10.0852H161.297C165.737 10.0852 167.186 10.9356 167.186 14.8075V15.1216C167.186 18.9315 165.705 19.7499 161.297 19.7499H152.543V11.5899H149.457V28.6922C149.457 29.1024 149.677 29.3225 150.087 29.3225H151.914C152.324 29.3225 152.545 29.1024 152.545 28.6922V22.7093H162.023L166.243 28.9123C166.432 29.1965 166.684 29.3225 167 29.3225H169.173C169.677 29.3225 169.865 28.9764 169.583 28.5662L165.269 22.3952C169.047 21.6088 170.307 19.1836 170.307 15.1537L170.303 15.1557Z" fill="#E3A14D"/>
<defs>
<linearGradient id="paint0_linear_126_218" x1="17.4404" y1="0.349313" x2="41.3079" y2="24.2173" gradientUnits="userSpaceOnUse">
<stop stop-color="#94E5FF"/>
<stop offset="1" stop-color="#0091E9"/>
</linearGradient>
<linearGradient id="paint1_linear_126_218" x1="8.25796" y1="17.1893" x2="27.5333" y2="36.467" gradientUnits="userSpaceOnUse">
<stop stop-color="#94E5FF"/>
<stop offset="1" stop-color="#0091E9"/>
</linearGradient>
</defs>
</svg>
