<svg width="45" height="45" viewBox="0 0 45 45" fill="none" xmlns="http://www.w3.org/2000/svg">
<path d="M22.5404 0.167969C10.1386 0.167969 0.0820312 10.3941 0.0820312 23.0097C0.0820312 33.102 6.51703 41.6642 15.4404 44.6846C16.5628 44.896 16.9749 44.1891 16.9749 43.5857C16.9749 43.0411 16.9541 41.2417 16.9444 39.333C10.6965 40.7148 9.37806 36.6379 9.37806 36.6379C8.35645 33.9977 6.88447 33.2957 6.88447 33.2957C4.84682 31.878 7.03806 31.9071 7.03806 31.9071C9.29327 32.0678 10.4807 34.261 10.4807 34.261C12.4838 37.753 15.7346 36.7435 17.0162 36.1598C17.2177 34.6839 17.7998 33.6754 18.442 33.1054C13.4537 32.5278 8.20992 30.5692 8.20992 21.8167C8.20992 19.3229 9.08724 17.2852 10.5239 15.6856C10.2907 15.1098 9.52199 12.787 10.7415 9.64064C10.7415 9.64064 12.6274 9.02673 16.9191 11.982C18.7105 11.4759 20.6318 11.2221 22.5404 11.2134C24.449 11.2221 26.3717 11.4759 28.1665 11.982C32.453 9.02673 34.3363 9.64064 34.3363 9.64064C35.5588 12.787 34.7897 15.1098 34.5565 15.6856C35.9965 17.2852 36.8679 19.3229 36.8679 21.8167C36.8679 30.59 31.614 32.5217 26.6131 33.0872C27.4186 33.7961 28.1364 35.1862 28.1364 37.3173C28.1364 40.3732 28.1103 42.833 28.1103 43.5857C28.1103 44.1936 28.5146 44.9059 29.653 44.6815C38.5715 41.6578 44.9984 33.0986 44.9984 23.0097C44.9984 10.3941 34.9433 0.167969 22.5404 0.167969Z" fill="white"/>
<path d="M8.58975 32.9634C8.54028 33.0773 8.36475 33.1109 8.20483 33.033C8.04194 32.9585 7.95045 32.8038 8.00326 32.6899C8.0516 32.5731 8.22751 32.5409 8.39003 32.6185C8.5533 32.6934 8.64627 32.8496 8.58975 32.9634Z" fill="white"/>
<path d="M9.49671 33.9967C9.38961 34.0976 9.18023 34.0507 9.03816 33.8911C8.89126 33.7319 8.86374 33.5189 8.97233 33.4164C9.08279 33.3154 9.28584 33.3627 9.43312 33.5219C9.58002 33.6831 9.60865 33.8945 9.49671 33.9967Z" fill="white"/>
<path d="M10.3819 35.3106C10.2443 35.4078 10.0193 35.3167 9.88018 35.1136C9.74257 34.9104 9.74257 34.6668 9.88315 34.5693C10.0226 34.4717 10.2443 34.5594 10.3852 34.761C10.5225 34.9672 10.5225 35.2112 10.3819 35.3106Z" fill="white"/>
<path d="M11.5948 36.582C11.4717 36.7201 11.2095 36.683 11.0176 36.4946C10.8212 36.3104 10.7665 36.0491 10.89 35.911C11.0146 35.7726 11.2783 35.8115 11.4717 35.9984C11.6665 36.1822 11.726 36.4455 11.5948 36.582Z" fill="white"/>
<path d="M13.2715 37.3212C13.2172 37.5001 12.9646 37.5814 12.7103 37.5054C12.4563 37.4271 12.29 37.2175 12.3413 37.0367C12.3941 36.8567 12.6478 36.7719 12.904 36.8533C13.1577 36.9312 13.3243 37.1392 13.2715 37.3212Z" fill="white"/>
<path d="M15.1096 37.4564C15.1159 37.6448 14.9002 37.801 14.6332 37.804C14.3647 37.8105 14.1475 37.658 14.1445 37.4727C14.1445 37.2824 14.3554 37.1277 14.6239 37.1232C14.8909 37.1179 15.1096 37.2692 15.1096 37.4564Z" fill="white"/>
<path d="M16.8169 37.1616C16.8489 37.3454 16.6633 37.5341 16.3981 37.5841C16.1374 37.6329 15.8961 37.5194 15.863 37.3371C15.8306 37.1487 16.0196 36.96 16.2799 36.9112C16.5454 36.8643 16.7831 36.9747 16.8169 37.1616Z" fill="white"/>
</svg>
