<svg width="45" height="45" viewBox="0 0 45 45" fill="none" xmlns="http://www.w3.org/2000/svg">
<path fill-rule="evenodd" clip-rule="evenodd" d="M22.5 45C10.0736 45 0 34.9264 0 22.5C0 10.0736 10.0736 0 22.5 0C34.9264 0 45 10.0736 45 22.5C45 34.9264 34.9264 45 22.5 45ZM22.8135 21.2372C24.6558 21.2372 33.6135 16.2 33.6135 16.2L33.6279 15.3C33.6279 14.3064 32.8215 13.5 31.8252 13.5H13.8018C12.8064 13.5 12 14.3064 12 15.3V16.1019C12 16.1019 21.0558 21.2372 22.8135 21.2372ZM12.0144 18.9C12.0135 18.9 21.0558 23.7122 22.8135 23.7122C24.7404 23.7122 33.6135 18.9 33.6135 18.9L33.6279 29.7C33.6279 30.6936 32.8215 31.5 31.8252 31.5H13.8018C12.8073 31.5 12 30.6936 12 29.7L12.0144 18.9Z" fill="white"/>
</svg>
